<svg id="Layer_1" data-name="Layer 1" xmlns="http://www.w3.org/2000/svg" viewBox="0 0 398.27 518.9"><defs><style>.cls-1{fill:#fcd041;}.cls-2{fill:#efc13c;}.cls-3{fill:#ea5055;}.cls-4{fill:#e83b43;}.cls-5{fill:#f4e8d8;}.cls-6{fill:#e6d9c6;}.cls-7{fill:#f0a435;}.cls-8{fill:#f28e39;}</style></defs><g id="French_Fries" data-name="French Fries"><g id="Fill"><path class="cls-1" d="M177.21,328.4l-19.32,1.88a12.6,12.6,0,0,1-13.77-10.46L101.91,28.24c-1.24-8.54,4.14-16.29,12-17.17l30.2-3.38c7.86-.89,15,5.48,15.8,14.09L188.2,315.5a11.94,11.94,0,0,1-11,12.9Zm0,0"/><path class="cls-2" d="M127.05,350.55l-19.2.95c-6.65.34-12.6-4.49-13.35-10.86l-33.77-287c-1-8.4,4.56-15.68,12.34-16.13l30-1.71c7.8-.45,14.65,6.14,15.24,14.58l20,288.12a11.47,11.47,0,0,1-11.22,12.1Zm0,0"/><path class="cls-1" d="M98.35,370.64,79.54,372.8c-6.52.75-12.78-3.59-14.06-9.79L7.93,84.53c-1.67-8.14,3.13-15.65,10.72-16.65L47.92,64c7.61-1,14.9,4.92,16.2,13.13L108.38,358c1,6.25-3.48,11.84-10,12.6Zm0,0"/><path class="cls-1" d="M221.06,328.4l19.32,1.88a12.6,12.6,0,0,0,13.77-10.46L296.36,28.24c1.24-8.54-4.14-16.29-12-17.16l-30.2-3.39c-7.84-.88-14.95,5.48-15.78,14.09L210.07,315.5a11.94,11.94,0,0,0,11,12.9Zm0,0"/><path class="cls-2" d="M271.23,350.55l19.19.95c6.66.34,12.61-4.49,13.35-10.86l33.77-287c1-8.4-4.55-15.68-12.33-16.13l-30-1.71c-7.79-.45-14.65,6.14-15.23,14.58L260,338.45c-.45,6.39,4.56,11.77,11.23,12.1Zm0,0"/><path class="cls-1" d="M299.91,370.64l18.82,2.16c6.52.75,12.79-3.59,14.06-9.79L390.33,84.53c1.69-8.13-3.12-15.65-10.7-16.65L350.36,64c-7.62-1-14.91,4.92-16.2,13.14L289.89,358c-1,6.25,3.49,11.84,10,12.6Zm0,0"/><path class="cls-2" d="M205.73,359.85H186.55c-6.65,0-12.13-5.07-12.29-11.4L167,63c-.22-8.36,6-15.24,13.75-15.24h30c7.78,0,14,6.88,13.79,15.24L218,348.45c-.14,6.33-5.61,11.4-12.26,11.4Zm0,0"/><path class="cls-1" d="M206.54,386.12l-17.61,7.22c-6.11,2.51-13.17,0-15.87-5.68L51.85,132.59c-3.54-7.45-.65-16,6.47-19l27.43-11.47c7.12-3,15.57.85,18.74,8.48L213.23,371.17c2.42,5.79-.57,12.44-6.69,14.95Zm0,0"/><path class="cls-2" d="M206.73,431.66l-19,.88c-6.61.3-12.41-4.45-13-10.7l-28.31-281c-.83-8.22,4.78-15.31,12.48-15.72l29.69-1.57c7.71-.41,14.37,6,14.8,14.29l14.72,282c.32,6.27-4.73,11.52-11.33,11.83Zm0,0"/><path class="cls-2" d="M288.77,384.54l18.47.83c6.41.28,12.16-4.21,12.91-10.11l33.51-264.64c1-7.7-4.31-14.36-11.76-14.74l-28.71-1.47c-7.46-.38-14.05,5.67-14.65,13.41L278,373.36c-.45,5.92,4.34,10.89,10.75,11.18Zm0,0"/><path class="cls-1" d="M217.67,427.42l20.07,3.16A12.88,12.88,0,0,0,252.45,420l47.13-275.28a12.88,12.88,0,0,0-10.7-14.91l-27.35-4.31a12.89,12.89,0,0,0-14.76,10.89L206.92,412.85a12.9,12.9,0,0,0,10.75,14.57Zm0,0"/><path class="cls-3" d="M292.55,177.63a9.67,9.67,0,0,0-9,6.24,90.4,90.4,0,0,1-168.79,0,9.66,9.66,0,0,0-9-6.24H17.25a9.65,9.65,0,0,0-9.51,11.28l54.2,314.38a9.65,9.65,0,0,0,9.51,8H326.83a9.66,9.66,0,0,0,9.51-8l54.19-314.38a9.64,9.64,0,0,0-9.5-11.28Zm0,0"/><path class="cls-4" d="M381,177.63H320.19a9.63,9.63,0,0,1,9.5,11.28L275.5,503.3a9.65,9.65,0,0,1-9.5,8h60.83a9.66,9.66,0,0,0,9.51-8l54.19-314.39a9.64,9.64,0,0,0-9.5-11.28Zm0,0"/><path class="cls-5" d="M365.43,334.48H32.84l10.52,61H354.91Zm0,0"/><path class="cls-6" d="M365.43,334.48H304.6l-10.53,61h60.84Zm0,0"/><path class="cls-7" d="M278.36,366.82a79.23,79.23,0,1,1-79.22-79.23,79.22,79.22,0,0,1,79.22,79.23Zm0,0"/><path class="cls-8" d="M234.93,296.14a79.23,79.23,0,0,1-111.67,93.5,79.23,79.23,0,1,0,111.67-93.5Zm0,0"/></g><g id="Line"><path d="M199.14,280A86.83,86.83,0,1,0,286,366.82,86.93,86.93,0,0,0,199.14,280Zm0,158.45a71.63,71.63,0,1,1,71.62-71.62,71.71,71.71,0,0,1-71.62,71.62Zm0,0"/><path d="M381,170h-.6l17.35-84a22.33,22.33,0,0,0-3.48-17.45,19.81,19.81,0,0,0-13.68-8.28l-29.27-3.88a20.63,20.63,0,0,0-6.52.2l.26-2.18a22.76,22.76,0,0,0-5-17.31,20.18,20.18,0,0,0-14.45-7.29L304,28.63a23.64,23.64,0,0,0-4.6-17.08,20.7,20.7,0,0,0-14.12-8L255,.13a20.92,20.92,0,0,0-15.62,4.68,24,24,0,0,0-8.58,16.24l-2.75,28.49a21.8,21.8,0,0,0-2.46-3,20.81,20.81,0,0,0-14.94-6.37h-30a20.5,20.5,0,0,0-11.12,3.29l-2.16-22.37a23.88,23.88,0,0,0-8.59-16.24A20.9,20.9,0,0,0,143.23.13L113,3.52a20.72,20.72,0,0,0-14.13,8,23.64,23.64,0,0,0-4.6,17.08L72.63,29.88a20.2,20.2,0,0,0-14.45,7.29,22.84,22.84,0,0,0-5,17.31l.26,2.18a20.92,20.92,0,0,0-6.52-.2L17.65,60.34A19.83,19.83,0,0,0,4,68.62,22.33,22.33,0,0,0,.49,86.07l17.35,84h-.59a17.26,17.26,0,0,0-17,20.17l54.2,314.4a17.21,17.21,0,0,0,17,14.31H326.83a17.2,17.2,0,0,0,17-14.31L398,190.19A17.26,17.26,0,0,0,381,170ZM342.62,75.54c1.44-2.69,4.16-4.35,6.74-4l29.27,3.87a4.68,4.68,0,0,1,3.28,2,7.12,7.12,0,0,1,1,5.57l-18,87H353.8l7.4-58.44a21.11,21.11,0,0,0-4.62-16.19,19.74,19.74,0,0,0-14.29-7.1l-1.17-.06ZM332.25,103l9.27.47a4.66,4.66,0,0,1,3.4,1.67,5.8,5.8,0,0,1,1.2,4.53L338.47,170H303l4.12-24a20.37,20.37,0,0,0-2.77-14.19l1.81-23.44a7.2,7.2,0,0,1,3.16-5.42,5.86,5.86,0,0,1,3.52-1l19.44,1ZM294.51,43.34h.3l30,1.71a5.14,5.14,0,0,1,3.67,1.88A7.64,7.64,0,0,1,330,52.7l-2.33,19.85h0l-1.75,14.89-12.34-.63c-11.56-.59-21.7,8.56-22.61,20.41l-1.17,15-7.11-1.11,4.88-70.32c.28-4.17,3.45-7.54,6.95-7.51Zm-2.42,100.12-4.68,27.34a17.21,17.21,0,0,0-11,10.35,82.72,82.72,0,0,1-29.91,38.22c-1.46,1-2.95,2-4.45,2.89l12.21-84.76a5.28,5.28,0,0,1,2.1-3.5,5.23,5.23,0,0,1,4-1l13,2.05h0l14.36,2.26a5.27,5.27,0,0,1,3.47,2.15,5.21,5.21,0,0,1,.92,4ZM229,198.37,246,22.52a8.66,8.66,0,0,1,3-5.91,5.87,5.87,0,0,1,4.35-1.37l30.2,3.38a5.58,5.58,0,0,1,3.78,2.22,8.36,8.36,0,0,1,1.51,6.31L288.57,29l-.37.12-.47.16q-.72.24-1.41.54L286,30a23,23,0,0,0-2.59,1.39c-.08,0-.15.09-.23.13-.52.34-1,.69-1.52,1.06l-.13.1-.78.63-.16.13c-.44.38-.86.77-1.26,1.18-.11.1-.2.2-.31.31s-.41.43-.61.65l-.64.75-.56.72c-.14.18-.28.37-.41.57s-.36.5-.52.75-.38.59-.56.89-.22.37-.32.56-.37.69-.54,1c-.08.17-.17.34-.24.51-.17.35-.33.72-.48,1.08l-.18.46c-.17.45-.33.92-.49,1.39l-.09.35q-.19.64-.36,1.32c0,.1-.05.19-.06.29-.12.52-.21,1-.3,1.56,0,.12,0,.25-.05.37-.07.54-.14,1.09-.17,1.65l-4.79,69-4.89-.77a20.48,20.48,0,0,0-23.47,17.32l-10.46,72.54ZM176.65,57.12a5.65,5.65,0,0,1,4.06-1.78h30a5.66,5.66,0,0,1,4.07,1.79,7.86,7.86,0,0,1,2.13,5.67l-3,131.47-3-56.79A23.08,23.08,0,0,0,204,122a21,21,0,0,0-15.81-6l-12.21.65-.26-10h0l-1.12-43.88a7.85,7.85,0,0,1,2.1-5.66Zm12.29,74a6.1,6.1,0,0,1,4.45,1.78,7.9,7.9,0,0,1,2.36,5.32l5,96-1.62,0a82.39,82.39,0,0,1-36.58-8.49l-8.63-85.67a7.33,7.33,0,0,1,1.58-5.49,5.29,5.29,0,0,1,3.74-1.88Zm-78-110.33a5.57,5.57,0,0,1,3.78-2.22l30.2-3.38a5.85,5.85,0,0,1,4.35,1.37,8.66,8.66,0,0,1,3,5.91l8.18,84.8.26,10.12-2.3.12A20.33,20.33,0,0,0,144,124.73a22.55,22.55,0,0,0-5.17,16.9L143,183.1l-9.43-22.6L125.88,49.8c0-.56-.11-1.1-.18-1.65l-.06-.37c-.07-.52-.17-1-.29-1.56l-.06-.27c-.11-.46-.22-.91-.36-1.35l-.09-.32c-.15-.48-.32-1-.5-1.43l-.15-.38c-.17-.42-.35-.83-.53-1.23a1.63,1.63,0,0,0-.11-.23c-.21-.44-.44-.87-.68-1.29-.07-.14-.15-.27-.23-.41q-.36-.62-.75-1.2l-.22-.32c-.22-.31-.45-.62-.68-.92-.1-.13-.19-.26-.29-.38-.29-.36-.58-.71-.9-1.05-.09-.12-.2-.22-.31-.34-.27-.29-.54-.56-.82-.82l-.25-.25c-.35-.32-.7-.63-1.06-.93l-.34-.27c-.38-.3-.76-.59-1.15-.87l-.16-.09c-.38-.26-.77-.51-1.17-.74-.08-.06-.17-.1-.25-.15-.44-.26-.89-.49-1.35-.72l-.16-.07c-.48-.23-1-.44-1.46-.63h0c-.51-.19-1-.37-1.56-.53l0,0-.27-1.85a8.4,8.4,0,0,1,1.51-6.31ZM69.82,46.93a5.13,5.13,0,0,1,3.68-1.88l30-1.71h.13c3.56-.11,6.81,3.28,7.11,7.51l4.56,65.87-3.77-9A23.06,23.06,0,0,0,99.73,95.47a20.26,20.26,0,0,0-2-.79l-.11-.05c-.66-.22-1.31-.39-2-.55l-.2,0c-.63-.15-1.28-.25-1.92-.34l-.24,0c-.64-.08-1.28-.12-1.91-.14h-.58c-.34,0-.67,0-1,0s-.57,0-.85,0c-.43,0-.86.11-1.29.17-.26,0-.53.07-.79.12-.47.1-.93.22-1.39.34-.22.06-.44.1-.66.17a18.53,18.53,0,0,0-2,.72l-9.09,3.8L72.34,87.25,68.28,52.7a7.59,7.59,0,0,1,1.54-5.77Zm-8.57,73.68,4.5-1.89,4.53-1.88h0l18.4-7.7a6,6,0,0,1,4.78.18,7.89,7.89,0,0,1,4,4.21l37.85,90.7a82.34,82.34,0,0,1-13.49-23.08A17.17,17.17,0,0,0,105.72,170H78.05L58.72,129.33a7.32,7.32,0,0,1-.36-5.69,5.49,5.49,0,0,1,.64-1.21,5,5,0,0,1,2.25-1.82ZM15.38,83a7.17,7.17,0,0,1,1-5.57,4.71,4.71,0,0,1,3.29-2l29.27-3.87c2.57-.34,5.29,1.31,6.74,4l1.6,13.64L59.13,105l-3.75,1.56A20.37,20.37,0,0,0,44.17,118.2,22.54,22.54,0,0,0,45,135.86L61.22,170H33.36ZM383,187.62,359,326.87H309.32a7.61,7.61,0,0,0,0,15.21h47.09l-7.9,45.85H310.33a7.6,7.6,0,1,0,0,15.2h35.56L328.84,502a2,2,0,0,1-2,1.7H71.45a2.05,2.05,0,0,1-2-1.7l-17-98.87H88a7.6,7.6,0,1,0,0-15.2H49.77l-7.91-45.85H89.18a7.61,7.61,0,0,0,0-15.21H39.24l-24-139.25a2,2,0,0,1,.46-1.67,2,2,0,0,1,1.56-.72h88.47a2.07,2.07,0,0,1,1.93,1.36,98,98,0,0,0,91.49,62.88c1,0,2.08,0,3.15-.06l1.49,0,1.31-.08a97.32,97.32,0,0,0,13.68-1.79h0a98,98,0,0,0,71.82-60.89,2.06,2.06,0,0,1,1.92-1.36H381a2,2,0,0,1,1.56.72,2,2,0,0,1,.45,1.67Zm0,0"/></g></g></svg>