<svg id="Layer_1" data-name="Layer 1" xmlns="http://www.w3.org/2000/svg" viewBox="0 0 625.54 344.99"><defs><style>.cls-1{fill:#a3c956;}.cls-2{fill:#f28e39;}.cls-3{fill:#f0a435;}.cls-4{fill:#ea5055;}.cls-5{fill:#fcd041;}</style></defs><g id="Taco"><g id="Fill"><path class="cls-1" d="M68.26,335.84H559.39c5.26-3.5,33.07-48.16,28.64-67.8-4.48-19.88,8-46.08.1-64.57S561,177.88,549.85,161.22c-11-16.44-8.47-45.74-22.38-60s-41.28-10.37-57.22-21.38c-16.13-11.14-24.06-39.35-41.77-46.95S386.8,39.86,367.94,36C349.31,32.18,332.1,9.15,312.77,9.15s-36.53,23-55.16,26.85c-18.86,3.86-42.83-10.67-60.54-3.07s-25.65,35.81-41.78,46.95c-15.93,11-43.24,7.09-57.21,21.38s-11.42,43.52-22.39,60C64.58,177.88,45.3,185,37.42,203.47s4.58,44.69.1,64.57c-4.44,19.64,25.46,64.3,30.74,67.8Zm0,0"/><path class="cls-2" d="M234.54,86.94C194.14,46.54,127.15,48,84.91,90.26S41.19,199.49,81.59,239.9,189,278.81,231.22,236.57s43.72-109.23,3.32-149.63Zm0,0"/><path class="cls-3" d="M153.36,231.19A62.88,62.88,0,0,1,108.5,213c-25.49-25.51-24-68.49,3.33-95.81a71.79,71.79,0,0,1,51-21.54,62.84,62.84,0,0,1,44.86,18.22c12.12,12.12,18.58,28.59,18.19,46.37a73.56,73.56,0,0,1-72.47,71Zm0,0"/><path class="cls-2" d="M540.63,90.26C498.39,48,431.4,46.54,391,86.94s-38.92,107.4,3.32,149.63S503.54,280.3,544,239.9s38.91-107.4-3.32-149.64Zm0,0"/><path class="cls-3" d="M472.18,231.19A62.85,62.85,0,0,0,517,213c25.5-25.51,24-68.49-3.32-95.81a71.79,71.79,0,0,0-51-21.54,62.82,62.82,0,0,0-44.86,18.22c-12.13,12.12-18.59,28.59-18.19,46.37a73.57,73.57,0,0,0,72.46,71Zm0,0"/><path class="cls-4" d="M136.27,275.18c-4.05-27.69-35.69-46-70.67-40.86s-60,31.72-56,59.41,35.7,46,70.68,40.86,60.05-31.73,56-59.41Zm0,0"/><path class="cls-4" d="M560,234.3c-35-5.13-66.62,13.17-70.68,40.85s21,54.29,56,59.41S611.94,321.39,616,293.7s-21-54.28-56-59.4Zm0,0"/><path class="cls-4" d="M373.51,87.06c0-23.34-27.2-42.26-60.74-42.26S252,63.72,252,87.06s27.19,42.26,60.73,42.26,60.74-18.92,60.74-42.26Zm0,0"/><path class="cls-5" d="M312.77,73.09C171.89,73.09,56.91,184,50.31,323.2a12.12,12.12,0,0,0,12.13,12.64H563.11a12.11,12.11,0,0,0,12.12-12.64C568.63,184,453.65,73.09,312.77,73.09Zm0,0"/><path class="cls-3" d="M312.77,73.09a265.25,265.25,0,0,0-35.18,2.35c128.47,17.21,227.56,127.23,227.56,260.4h58a12.11,12.11,0,0,0,12.12-12.64C568.63,184,453.65,73.09,312.77,73.09Zm0,0"/></g><g id="Line"><path d="M609.26,249.26A73.89,73.89,0,0,0,598,239.57c1.91-13.41,3.86-27.28-1.44-39.7-3.62-8.48-9.07-14.77-14.79-20.15A120.41,120.41,0,0,0,466.47,48.5C438,47.61,411.21,57,390.3,75.14c-3.5-1-7-2-10.57-2.89-8.67-21.51-35.69-36.6-67-36.6s-58.29,15.09-66.95,36.6c-3.55.9-7.08,1.85-10.58,2.89C214.35,57,187.52,47.6,159.08,48.5A120.41,120.41,0,0,0,43.78,179.72C38.07,185.1,32.61,191.39,29,199.87c-5.31,12.42-3.35,26.29-1.45,39.7a73.33,73.33,0,0,0-11.26,9.69C3.76,262.56-1.84,278.82.54,295c3.54,24.24,25.11,43.53,53.83,48.35A21.32,21.32,0,0,0,62.44,345H563.1a21.41,21.41,0,0,0,8.08-1.61C599.9,338.56,621.47,319.27,625,295c2.37-16.21-3.22-32.47-15.75-45.77ZM465.88,66.8a101,101,0,0,1,68.28,29.93c31,31,38.38,77.4,20,113.7q-5.79-11.13-12.62-21.72c5.7-19.89,2.91-41.68-7.9-60.51a9.15,9.15,0,1,0-15.87,9.12,61.9,61.9,0,0,1,8.33,29.86l-1.51-1.88c-.37-.46-.74-.93-1.11-1.38-.68-.83-1.37-1.65-2.05-2.47s-1.52-1.82-2.29-2.72c-.42-.48-.84-.95-1.25-1.44-1.08-1.22-2.15-2.44-3.25-3.65L514,153q-2-2.18-4-4.32a1.14,1.14,0,0,0-.11-.11,273.06,273.06,0,0,0-28.6-26.12l-.47-.36c-1.3-1-2.62-2-3.94-3-.44-.32-.88-.67-1.31-1l-2.21-1.62q-8.11-6-16.6-11.27a57.08,57.08,0,0,1,6-.32,60.74,60.74,0,0,1,27.67,6.62,9.15,9.15,0,1,0,8.25-16.34,78.93,78.93,0,0,0-35.92-8.59,74.43,74.43,0,0,0-28.89,5.82q-11.16-5.57-22.78-10.07A92.55,92.55,0,0,1,465.88,66.8ZM312.77,54c16.3,0,31.24,5.09,40.8,13-1.56-.23-3.12-.45-4.69-.66l-.74-.1c-1.49-.19-3-.38-4.47-.55l-1-.11c-2.84-.31-5.69-.58-8.55-.79l-.88-.08-3-.19c-1-.07-2.06-.14-3.1-.19-.86,0-1.73-.09-2.59-.12-1.26-.06-2.5-.1-3.76-.14l-2.09,0c-2-.05-3.94-.08-5.92-.08s-3.94,0-5.91.08l-2.1,0c-1.25,0-2.5.08-3.74.14q-1.32,0-2.61.12l-3.1.19-3,.19-.86.07q-4.31.33-8.59.8l-1,.11-4.48.55-.73.1c-1.56.21-3.13.43-4.69.66,9.56-7.95,24.5-13,40.79-13ZM91.39,96.73A100.91,100.91,0,0,1,159.66,66.8c1,0,2.09,0,3.12,0a92.2,92.2,0,0,1,51.67,15.49q-11.61,4.5-22.77,10.06a74.44,74.44,0,0,0-28.9-5.82,78.91,78.91,0,0,0-36.06,8.66A9.15,9.15,0,0,0,135,111.47a60.86,60.86,0,0,1,27.78-6.67,57.13,57.13,0,0,1,6,.32q-8.48,5.3-16.57,11.24c-.75.55-1.51,1.09-2.25,1.65l-1.28,1q-2,1.5-4,3.06c-.16.12-.31.23-.45.35a272.36,272.36,0,0,0-28.62,26.13s-.07.08-.11.11q-2,2.15-4,4.33l-.61.67q-1.64,1.81-3.24,3.65l-1.25,1.44c-.77.9-1.54,1.81-2.29,2.73s-1.38,1.63-2.05,2.45c-.38.46-.74.93-1.12,1.39l-1.51,1.87a62,62,0,0,1,8.3-29.79,9.15,9.15,0,1,0-15.89-9.09c-10.76,18.8-13.53,40.56-7.85,60.42q-6.82,10.57-12.62,21.72c-18.41-36.3-11-82.75,20-113.7Zm-45,184.42c-.11.54-.22,1.08-.34,1.62-.19,1-.39,2.08-.59,3.12s-.33,1.83-.49,2.76-.31,1.75-.46,2.64c-.28,1.74-.56,3.49-.82,5.24-.07.49-.13,1-.19,1.48-.2,1.45-.4,2.91-.57,4.37-.09.64-.17,1.29-.24,1.94-.16,1.43-.31,2.87-.46,4.31l-.15,1.54c-.18,1.91-.35,3.83-.49,5.75,0,.43,0,.86-.07,1.29-.07,1-.15,2-.2,3.06-12.43-6-20.94-16.15-22.66-27.89C17.1,281.82,21,271,29.61,261.82a56.75,56.75,0,0,1,11.9-9.53c.27-.14.53-.29.79-.45a65.68,65.68,0,0,1,13.81-6.05,269.74,269.74,0,0,0-9.73,35.36Zm-1.6-50.76c-1.13-8.91-1.6-17.12,1-23.33a33,33,0,0,1,2.57-4.81,107.82,107.82,0,0,0,10.84,23.9,87.38,87.38,0,0,0-14.46,4.24Zm521.27,93.85-.06.23a2.76,2.76,0,0,1-.08.27,3,3,0,0,1-1.47,1.62l-.05,0a2.91,2.91,0,0,1-1.28.3H62.44a2.77,2.77,0,0,1-1.27-.3l-.06,0a3,3,0,0,1-1.47-1.62,1.43,1.43,0,0,1-.09-.27c0-.07,0-.15,0-.23a2.93,2.93,0,0,1,0-.6q.13-2.94.35-5.85c0-.66.1-1.3.15-1.94.1-1.3.21-2.59.33-3.89.07-.8.16-1.59.24-2.38l.36-3.39.33-2.66c.14-1,.26-2,.41-3s.28-2,.42-2.94l.42-2.67c.18-1.09.37-2.19.56-3.28.12-.72.26-1.45.39-2.18.23-1.24.47-2.49.72-3.72.1-.53.2-1,.32-1.56.29-1.44.6-2.89.93-4.33l.15-.66A253,253,0,0,1,79,237.3a5,5,0,0,0,.23-.65c.44-1,.9-2.07,1.36-3.11.08-.15.16-.29.23-.44a254.35,254.35,0,0,1,30.59-51.51c.19-.25.38-.48.56-.73,1-1.31,2-2.59,3.07-3.88.41-.5.81-1,1.23-1.53l2.23-2.67c.7-.83,1.4-1.67,2.12-2.51.17-.2.36-.4.53-.61q7.73-8.88,16.32-17.12,4.41-4.22,9-8.18a1.49,1.49,0,0,1,.14-.12c1.38-1.21,2.78-2.39,4.18-3.56l.83-.68c1.22-1,2.45-2,3.69-3l1.56-1.23c1-.81,2.08-1.61,3.13-2.4l2.47-1.84,2.36-1.74c1.29-.92,2.58-1.82,3.88-2.72l1.11-.77a252.78,252.78,0,0,1,65.91-32.15c.1,0,.2-.09.3-.12q9.31-3,18.86-5.17H255a256.26,256.26,0,0,1,115.57,0h.09q9.53,2.22,18.85,5.17l.31.11a253.22,253.22,0,0,1,65.9,32.16l1.11.77c1.3.9,2.59,1.8,3.88,2.72l2.37,1.73,2.47,1.85c1,.79,2.08,1.59,3.12,2.4l1.56,1.23c1.24,1,2.47,2,3.69,3l.83.68c1.4,1.17,2.8,2.35,4.18,3.56a.75.75,0,0,1,.14.12q4.57,4,9,8.18,8.59,8.24,16.32,17.12l.54.61,2.11,2.51c.75.89,1.5,1.78,2.23,2.67.42.51.82,1,1.24,1.53,1,1.29,2,2.57,3.06,3.88l.56.73a253.89,253.89,0,0,1,30.59,51.51c.07.15.15.29.23.44.46,1,.92,2.07,1.36,3.11.07.22.14.44.23.65A252,252,0,0,1,560,279.15q.09.33.15.66c.33,1.44.64,2.89.93,4.34.12.51.22,1,.33,1.54.25,1.24.49,2.49.71,3.73.13.73.27,1.46.4,2.18.19,1.09.38,2.19.55,3.28l.42,2.66c.15,1,.29,2,.43,2.95s.27,2,.4,3l.33,2.67c.13,1.13.25,2.25.37,3.38.07.8.16,1.59.24,2.39.12,1.3.21,2.59.32,3.88,0,.65.11,1.29.16,2,.13,1.94.25,3.89.34,5.85a3.86,3.86,0,0,1,0,.6Zm.27-98.11a108.56,108.56,0,0,0,10.83-23.88,32,32,0,0,1,2.56,4.81c2.65,6.21,2.19,14.41,1.06,23.32-.11,0-.23-.07-.34-.12-1.23-.47-2.49-.93-3.75-1.34l-1-.33c-1.4-.44-2.8-.86-4.23-1.24-.3-.09-.6-.15-.91-.23-1.17-.3-2.35-.57-3.54-.82l-.71-.17Zm40.58,66.25c-1.72,11.74-10.24,21.85-22.66,27.89,0-1-.13-2-.2-3.06l-.09-1.3c-.13-1.91-.29-3.83-.47-5.74-.05-.52-.1-1-.16-1.55-.14-1.43-.3-2.86-.46-4.29-.07-.66-.15-1.31-.23-2-.18-1.45-.37-2.9-.57-4.34q-.09-.75-.21-1.5-.37-2.62-.81-5.24c-.14-.89-.3-1.76-.45-2.65s-.33-1.83-.5-2.75-.38-2.08-.59-3.12l-.33-1.6a270,270,0,0,0-9.73-35.35l1.06.34q.88.28,1.77.6c.68.24,1.35.49,2,.76l1,.41a64.23,64.23,0,0,1,8.18,4.07l.35.17a56.19,56.19,0,0,1,12.1,9.66c8.62,9.14,12.51,20,11,30.55Zm0,0"/><path d="M208.62,39.85c5.77-.11,12.34,1.3,19.3,2.78,7.43,1.58,15,3.19,22.61,3.19a44,44,0,0,0,8.92-.86c10.26-2.1,19.32-8.4,28.09-14.49,9-6.26,17.51-12.16,25.23-12.16S329,24.21,338,30.47c8.77,6.09,17.84,12.39,28.09,14.49,10.44,2.14,21.16-.13,31.53-2.33,7.63-1.62,14.84-3.14,21-2.7a9.16,9.16,0,0,0,1.3-18.27c-8.7-.62-17.52,1.26-26.05,3.06-8.93,1.89-17.37,3.68-24.07,2.3S356,20.7,348.45,15.43C337.53,7.85,326.24,0,312.77,0S288,7.85,277.1,15.43C269.52,20.7,262.35,25.68,255.77,27s-15.13-.41-24.06-2.3c-7.64-1.62-15.56-3.29-23.37-3.17a9.15,9.15,0,1,0,.28,18.3Zm0,0"/></g></g></svg>