<svg id="Layer_1" data-name="Layer 1" xmlns="http://www.w3.org/2000/svg" viewBox="0 0 518.9 484.7"><defs><style>.cls-1{fill:#922d2d;}.cls-2{fill:#7d1f1f;}.cls-3{fill:#a3c956;}.cls-4{fill:#95c34e;}.cls-5{fill:#f0a435;}.cls-6{fill:#f28e39;}.cls-7{fill:#ea5055;}.cls-8{fill:#e83b43;}.cls-9{fill:#fcd041;}.cls-10{fill:#efc13c;}</style></defs><g id="Burger"><g id="Fill"><path class="cls-1" d="M460.3,298.69H58.77a25,25,0,0,0-25,25v21.87a9.83,9.83,0,0,0,9.83,9.83H475.45a9.83,9.83,0,0,0,9.83-9.83V323.67a25,25,0,0,0-25-25Zm0,0"/><path class="cls-2" d="M460.3,298.69H426.66v56.69h48.79a9.84,9.84,0,0,0,9.83-9.84V323.67a25,25,0,0,0-25-25Zm0,0"/><path class="cls-3" d="M477.1,268.85a24.27,24.27,0,0,1,24,24.36c0,19.36-22.06,29.61-47.71,25.86-23.95-3.51-24.25-14.53-48.5-14.53s-24.25,14.53-48.51,14.53-24.25-14.53-48.5-14.53-24.26,14.53-48.51,14.53-24.25-14.53-48.51-14.53-24.25,14.53-48.5,14.53-24.25-14.53-48.51-14.53-24.56,11-48.5,14.53c-25.65,3.75-47.72-6.5-47.71-25.86a24.26,24.26,0,0,1,24-24.36Zm0,0"/><path class="cls-4" d="M501.08,293.21a24.27,24.27,0,0,0-24-24.36H440.71v47.08a62.06,62.06,0,0,0,12.66,3.14c25.65,3.75,47.72-6.5,47.71-25.86Zm0,0"/><path class="cls-5" d="M490.83,350.34H28.06A20.45,20.45,0,0,0,7.62,370.79a106.3,106.3,0,0,0,106.3,106.3H405a106.3,106.3,0,0,0,106.3-106.3,20.45,20.45,0,0,0-20.45-20.45Zm0,0"/><path class="cls-6" d="M490.83,350.34H452.77v40.9a85.86,85.86,0,0,1-85.86,85.86H405a106.31,106.31,0,0,0,106.3-106.31,20.45,20.45,0,0,0-20.45-20.45Zm0,0"/><path class="cls-7" d="M460.21,242.82H58.69a25,25,0,0,1-25-25V196a9.83,9.83,0,0,1,9.83-9.83H475.36a9.84,9.84,0,0,1,9.83,9.83v21.88a25,25,0,0,1-25,25Zm0,0"/><path class="cls-8" d="M475.36,186.14H426.75v41.54a15.14,15.14,0,0,1-15.15,15.14h48.61a25,25,0,0,0,25-25V196a9.84,9.84,0,0,0-9.83-9.83Zm0,0"/><path class="cls-9" d="M481.3,238.08H38.06c-10,0-18.58,8.22-18.39,18.27a17.93,17.93,0,0,0,17.92,17.59H319.21a19.17,19.17,0,0,1,12.48,4.61l40,34.25a29.24,29.24,0,0,0,39.88-1.72l30.86-31.41a19.23,19.23,0,0,1,13.68-5.73h24.77c10.05,0,18.59-8.23,18.39-18.28a17.93,17.93,0,0,0-17.93-17.58Zm0,0"/><path class="cls-5" d="M259.45,7.62C25,7.7,7.62,162.38,7.62,184.28a20.44,20.44,0,0,0,20.44,20.45H490.83a20.44,20.44,0,0,0,20.45-20.45c0-21.9-17.36-176.58-251.83-176.66Zm0,0"/><path class="cls-10" d="M481.3,238.08H440.71v43.31l1.68-1.72a19.23,19.23,0,0,1,13.68-5.73h24.77c10.05,0,18.59-8.23,18.39-18.28a17.93,17.93,0,0,0-17.93-17.58Zm0,0"/><path class="cls-6" d="M511.28,183.7v-.2c0-.14,0-.29,0-.45a1.62,1.62,0,0,1,0-.22c0-.16,0-.33,0-.49v-.24c0-.17,0-.36,0-.55s0-.14,0-.21c0-.23,0-.45,0-.69v-.13c-.09-1.48-.23-3.2-.44-5.13h0c-4.3-39.53-37.83-167.7-251.27-167.77q-15.24,0-29.26.86C372.24,17,424.17,87,442.75,136.67c7.82,20.92-7.82,43.2-30.15,43.2H28.06A20.44,20.44,0,0,1,9.28,167.49a107,107,0,0,0-1.66,16.79,20.44,20.44,0,0,0,20.44,20.45H490.83a20.44,20.44,0,0,0,20.45-20.45v-.58Zm0,0"/></g><g id="Line"><path d="M492.89,342.81V323.67a32.71,32.71,0,0,0-.2-3.43,36.64,36.64,0,0,0,5.23-3.76,30,30,0,0,0,10.77-23.27,32.23,32.23,0,0,0-7.85-21,25.2,25.2,0,0,0,6-16.68,25.67,25.67,0,0,0-17.22-23.64,32.4,32.4,0,0,0,3.18-14v-5.58a28.11,28.11,0,0,0,26.1-28c0-2.14-.45-53-39.7-101.31-19.94-24.55-46.34-44-78.48-57.79C361.86,8.49,314.32,0,259.44,0,190.33,0,133.25,13.39,89.8,39.72a7.61,7.61,0,1,0,7.89,13c41-24.87,95.46-37.49,161.75-37.51,52.81,0,98.31,8.07,135.27,23.94C424.56,52,449,70,467.38,92.57c35.88,44.15,36.29,89.79,36.29,91.71a12.85,12.85,0,0,1-12.84,12.84H28.06a12.85,12.85,0,0,1-12.83-12.84c0-1.91.24-19.38,9-43.39a166.06,166.06,0,0,1,46-67.9A7.61,7.61,0,1,0,60.07,61.64C.69,114.7,0,181.47,0,184.28a28.1,28.1,0,0,0,26.09,28v5.58A32.33,32.33,0,0,0,29.33,232a26.58,26.58,0,0,0-10,6.36,25.07,25.07,0,0,0-7.3,18.15,25.41,25.41,0,0,0,5.79,15.72,32.28,32.28,0,0,0-7.84,21,30,30,0,0,0,10.77,23.27,37.29,37.29,0,0,0,5.58,4c-.1,1.07-.18,2.14-.18,3.23v19.12A28.11,28.11,0,0,0,0,370.79,114,114,0,0,0,113.92,484.7H405A114,114,0,0,0,518.9,370.79a28.1,28.1,0,0,0-26-28ZM488,305c-7,6-19.83,8.57-33.5,6.57-9.67-1.42-14.76-4.11-20.15-7-1.24-.65-2.49-1.32-3.79-2L447.82,285a11.62,11.62,0,0,1,8.25-3.46h24.76a25.47,25.47,0,0,0,7-1,17,17,0,0,1,5.68,12.63A15,15,0,0,1,488,305ZM41.32,212.35H477.58v5.5a17.38,17.38,0,0,1-7.5,14.27l-.39.26q-.48.31-1,.6l-.35.2c-.43.23-.87.44-1.32.64l-.08,0c-.5.21-1,.4-1.54.56l-.18.05a12,12,0,0,1-1.34.35l-.43.08c-.39.08-.78.14-1.18.19l-.45,0c-.53.05-1.07.08-1.62.08H58.69a17.38,17.38,0,0,1-17.37-17.36ZM30.23,249a11,11,0,0,1,7.83-3.32h3.7a32.42,32.42,0,0,0,16.93,4.74H460.21q1,0,2-.06l.64-.05c.46,0,.93-.08,1.39-.14l.68-.09c.6-.09,1.19-.19,1.77-.31.24,0,.49-.1.73-.16q.6-.13,1.2-.3c.3-.07.6-.16.9-.25s.63-.2,1-.3l.91-.31c.52-.19,1-.39,1.54-.6l.9-.42.85-.4.88-.46c.34-.18.67-.36,1-.56l.6-.33h4.15a10.2,10.2,0,0,1,4.27,19.52h0a10.78,10.78,0,0,1-4.74,1.12H456.06a27,27,0,0,0-19.11,8L406.1,305.75a21.69,21.69,0,0,1-27.54,2.75l-.55-.39c-.47-.34-.94-.69-1.4-1.08h0l-40-34.25a26.83,26.83,0,0,0-17.43-6.44H37.59a10.14,10.14,0,0,1-4.52-1.07h0a10.26,10.26,0,0,1-5.79-9.05,10,10,0,0,1,2.95-7.2Zm-5,44.2a17,17,0,0,1,5.61-12.57,25,25,0,0,0,6.74.91H319.21a11.57,11.57,0,0,1,7.52,2.78l31.61,27.09q-.94,0-2,0c-10,0-14.58-2.72-20.34-6.18-6.53-3.91-13.93-8.34-28.16-8.34s-21.64,4.43-28.17,8.34c-5.76,3.46-10.31,6.18-20.34,6.18s-14.58-2.72-20.34-6.18c-6.53-3.91-13.93-8.34-28.17-8.34s-21.63,4.43-28.16,8.34c-5.76,3.46-10.32,6.18-20.34,6.18s-14.58-2.72-20.34-6.18c-6.53-3.91-13.93-8.34-28.17-8.34-15,0-22.37,3.88-29.47,7.64-5.38,2.85-10.47,5.55-20.14,7-13.66,2-26.49-.52-33.48-6.56a15,15,0,0,1-5.5-11.76ZM405,469.48H113.92a98.8,98.8,0,0,1-98.69-98.69A12.84,12.84,0,0,1,28.06,358H369.33a7.62,7.62,0,0,0,0-15.23H41.41V326.06a67.55,67.55,0,0,0,13.72,1.37,78.25,78.25,0,0,0,11.3-.83c12.27-1.8,19.07-5.4,25.06-8.57,6.2-3.29,11.09-5.88,22.34-5.88,10,0,14.58,2.73,20.35,6.18,6.53,3.92,13.93,8.35,28.16,8.35s21.63-4.43,28.17-8.35c5.76-3.45,10.31-6.18,20.33-6.18s14.58,2.73,20.35,6.18c6.53,3.92,13.93,8.35,28.17,8.35s21.63-4.43,28.16-8.35c5.76-3.45,10.32-6.18,20.34-6.18s14.58,2.73,20.34,6.18c6.53,3.92,13.94,8.35,28.16,8.35a48.1,48.1,0,0,0,17.93-3.1A36.94,36.94,0,0,0,417,316.42l2.14-2.16a60.52,60.52,0,0,1,8.11,3.77c6,3.18,12.79,6.77,25.07,8.57a78.11,78.11,0,0,0,11.29.83,67.46,67.46,0,0,0,14.1-1.45v16.75H404.75a7.62,7.62,0,0,0,0,15.23h86.08a12.85,12.85,0,0,1,12.85,12.83A98.81,98.81,0,0,1,405,469.48Zm0,0"/></g></g></svg>