<svg id="Layer_1" data-name="Layer 1" xmlns="http://www.w3.org/2000/svg" viewBox="0 0 518.9 518.82"><defs><style>.cls-1{fill:#f0a435;}.cls-2{fill:#ea5055;}.cls-3{fill:#e83b43;}.cls-4{fill:#f28e39;}.cls-5{fill:#a3c956;}</style></defs><g id="Hot_Dog" data-name="Hot Dog"><g id="Fill"><path class="cls-1" d="M489.55,137.44a16.88,16.88,0,0,0-23.87,0l18.71-18.71a59.58,59.58,0,1,0-84.26-84.27L381.42,53.18a16.88,16.88,0,0,0,0-23.87,74.21,74.21,0,0,0-105,0L29.35,276.4a74.2,74.2,0,0,0,0,105,16.88,16.88,0,0,0,23.87,0L34.51,400.09a59.58,59.58,0,1,0,84.26,84.26l18.71-18.72a16.89,16.89,0,0,0,0,23.88,74.23,74.23,0,0,0,105,0L489.55,242.42a74.23,74.23,0,0,0,0-105Zm0,0"/><path class="cls-2" d="M34.51,484.36a59.57,59.57,0,0,1,0-84.27L400.13,34.47a59.58,59.58,0,0,1,84.26,84.26L118.77,484.36a59.59,59.59,0,0,1-84.26,0Zm0,0"/><path class="cls-3" d="M484.39,34.47a59.19,59.19,0,0,0-26.08-15.25,59.57,59.57,0,0,1-15.24,58.19L77.44,443a59.55,59.55,0,0,1-58.18,15.24,59.57,59.57,0,0,0,99.51,26.09L484.39,118.73a59.58,59.58,0,0,0,0-84.26Zm0,0"/><path class="cls-4" d="M381.42,29.31l-.33-.33c-16.23-16-42.45-15.67-58.58.45l-293,293.05C13.35,338.6,13,364.82,29,381.05l.33.33a16.88,16.88,0,0,0,23.87,0l328.2-328.2a16.88,16.88,0,0,0,0-23.87Zm0,0"/><path class="cls-5" d="M315.71,81c-6.63,6.64-18.35,1.69-29,9.51-17.66,13-16.29,23-28.34,35.05-15.33,15.33-25.07,13.74-35.82,24.49-17.39,17.39-15.49,32.73-26.82,45.68-13,11.33-28.29,9.43-45.68,26.82-10.75,10.75-9.16,20.5-24.49,35.83-12,12.05-22,10.67-35,28.34C82.73,297.32,87.68,309,81,315.67,67,329.7,46.4,342.12,69.63,365L217.32,217.28,365,69.59C342.16,46.36,329.74,67,315.71,81Zm0,0"/><path class="cls-4" d="M495.7,144.45a73.68,73.68,0,0,1-16.86,26L170.52,478.81a74,74,0,0,1-26,16.86,74.21,74.21,0,0,0,98-6.16L489.55,242.42a74.21,74.21,0,0,0,6.15-98Zm0,0"/><path class="cls-5" d="M437.86,203.14c-6.64,6.64-1.69,18.36-9.52,29-13,17.67-23,16.29-35,28.34-15.33,15.33-13.74,25.08-24.49,35.83-17.39,17.39-32.73,15.48-45.68,26.82-11.34,13-9.43,28.29-26.82,45.69-10.75,10.74-20.5,9.16-35.83,24.49-12.05,12-10.67,22-28.34,35-10.6,7.82-22.32,2.87-29,9.51-14,14-26.45,34.64-49.28,11.4L449.26,153.86c23.24,22.84,2.62,35.26-11.4,49.28Zm0,0"/></g><g id="Line"><path d="M446.68,82.83c-9.23,9.23-17.64,9.49-28.29,9.81-11.76.36-25.08.76-38.58,14.26s-13.91,26.83-14.26,38.58c-.32,10.65-.58,19.06-9.82,28.3s-17.64,9.49-28.29,9.81c-11.76.36-25.08.76-38.59,14.26S275,224.68,274.6,236.43c-.32,10.65-.58,19.06-9.82,28.3s-17.65,9.49-28.29,9.81c-11.76.36-25.09.77-38.59,14.27s-13.9,26.82-14.26,38.58c-.32,10.64-.57,19.06-9.82,28.29s-17.64,9.5-28.29,9.82c-11.75.35-25.08.76-38.59,14.26S93,406.59,92.68,418.35c-.33,10.64-.58,19.06-9.82,28.29A7.6,7.6,0,0,0,93.61,457.4c13.51-13.51,13.91-26.83,14.26-38.59.33-10.65.58-19.06,9.82-28.3S135.34,381,146,380.7c11.76-.36,25.08-.77,38.58-14.27s13.91-26.83,14.27-38.58c.32-10.65.58-19.06,9.81-28.3s17.65-9.49,28.3-9.81c11.76-.36,25.08-.76,38.58-14.26s13.9-26.83,14.26-38.59c.33-10.64.58-19,9.81-28.29s17.65-9.49,28.3-9.81c11.76-.36,25.08-.76,38.58-14.26s13.9-26.83,14.26-38.59c.32-10.64.58-19,9.81-28.29s17.65-9.49,28.3-9.81c11.76-.36,25.08-.76,38.58-14.26a7.6,7.6,0,0,0-10.75-10.75Zm0,0"/><path d="M494.93,132.07a24.36,24.36,0,0,0-7.85-5.28l2.69-2.69a67.19,67.19,0,0,0-95-95l-2.7,2.71a24.22,24.22,0,0,0-5.26-7.87,81.92,81.92,0,0,0-115.73,0l-5.55,5.55a7.6,7.6,0,0,0,10.75,10.75l5.55-5.55a66.7,66.7,0,0,1,94.23,0,9.28,9.28,0,0,1,0,13.12L364.72,59.12c-6.55-5.18-13-7.66-19.5-7.61-12.55.18-21.61,10-29.61,18.57-1.82,2-3.53,3.81-5.27,5.55-1.27,1.27-3.87,1.62-8,2.08-5.78.65-13,1.44-20.09,6.68-11.61,8.58-16.08,16.29-20,23.08-2.63,4.52-4.89,8.42-9.18,12.71-7.46,7.47-13.4,10.42-19.14,13.28-5.36,2.68-10.91,5.44-16.69,11.21-10.94,10.94-15,21.09-18.56,30.05-2.36,5.93-4.42,11.07-8.27,15.62-4.55,3.85-9.7,5.91-15.63,8.27-8.95,3.58-19.1,7.62-30,18.56-5.77,5.78-8.54,11.33-11.21,16.69-2.86,5.74-5.82,11.68-13.28,19.14-4.29,4.3-8.19,6.55-12.71,9.18-6.8,3.94-14.51,8.41-23.08,20-5.24,7.09-6,14.3-6.68,20.09-.46,4.13-.81,6.73-2.08,8-1.74,1.74-3.59,3.45-5.55,5.27-8.62,8-18.39,17.06-18.57,29.61-.09,6.52,2.41,12.95,7.61,19.51L47.84,376a9.27,9.27,0,0,1-13.12,0,66.7,66.7,0,0,1,0-94.23L251.25,65.24a7.6,7.6,0,1,0-10.74-10.75L24,271a81.83,81.83,0,0,0,0,115.73A24.31,24.31,0,0,0,31.81,392l-2.68,2.68a67.19,67.19,0,0,0,95,95l2.69-2.68a24.42,24.42,0,0,0,5.28,7.84,81.91,81.91,0,0,0,115.72,0l5.56-5.55a7.6,7.6,0,1,0-10.76-10.75l-5.54,5.55a66.7,66.7,0,0,1-94.23,0,9.28,9.28,0,0,1,0-13.12l11.32-11.32c6.44,5.1,12.75,7.62,19.15,7.62h.36c12.54-.19,21.61-10,29.61-18.59,1.81-2,3.53-3.8,5.27-5.54,1.27-1.27,3.87-1.62,8-2.08,5.79-.64,13-1.45,20.09-6.68,11.62-8.58,16.09-16.28,20-23.08,2.62-4.52,4.89-8.43,9.18-12.71,7.46-7.47,13.4-10.42,19.14-13.28,5.36-2.68,10.91-5.44,16.68-11.21,10.94-10.95,15-21.09,18.56-30,2.37-5.93,4.42-11.08,8.28-15.63,4.55-3.86,9.7-5.91,15.62-8.28,9-3.56,19.1-7.62,30.05-18.56,5.77-5.77,8.53-11.32,11.21-16.68,2.86-5.74,5.81-11.67,13.28-19.14,4.29-4.29,8.19-6.56,12.71-9.18,6.8-3.94,14.5-8.41,23.08-20,5.23-7.1,6-14.3,6.68-20.08.46-4.14.81-6.74,2.08-8,1.74-1.75,3.59-3.46,5.54-5.28,8.63-8,18.4-17.07,18.58-29.61.1-6.53-2.41-12.95-7.61-19.51l11.31-11.3a0,0,0,0,1,0,0,9.27,9.27,0,0,1,13.12,0,66.7,66.7,0,0,1,0,94.23L267.64,453.58a7.6,7.6,0,1,0,10.75,10.75L494.93,247.8a81.83,81.83,0,0,0,0-115.73ZM80.46,326.71c2-1.83,4-3.72,6-5.66,5.1-5.1,5.81-11.46,6.44-17.07.53-4.8,1-8.93,3.81-12.75,6.69-9.08,12.15-12.24,18.47-15.9,4.75-2.76,10.13-5.88,15.83-11.58,9.22-9.22,13.06-16.92,16.14-23.11,2.42-4.86,4.33-8.69,8.35-12.72,8.73-8.73,16.6-11.86,24.93-15.19,6.78-2.7,13.78-5.5,20.39-11.28a6.9,6.9,0,0,0,.71-.72c5.79-6.6,8.58-13.61,11.28-20.39,3.32-8.32,6.46-16.18,15.2-24.92,4-4,7.85-5.93,12.71-8.35,6.18-3.09,13.89-6.92,23.11-16.14,5.7-5.7,8.82-11.08,11.58-15.83,3.66-6.32,6.83-11.78,15.9-18.47,3.81-2.82,8-3.28,12.75-3.81,5.61-.63,12-1.34,17.07-6.45,1.94-1.94,3.83-4,5.66-5.94,6.5-7,12.65-13.63,18.69-13.72,2.53-.09,5.33,1.05,8.44,3.25L70,353.84c-2.19-3.11-3.29-5.93-3.25-8.44.09-6,6.71-12.19,13.71-18.69Zm358-134.6c-2,1.83-4,3.72-5.95,5.66h0c-5.11,5.1-5.81,11.46-6.44,17.06-.53,4.79-1,8.94-3.81,12.75-6.7,9.08-12.15,12.24-18.47,15.91a70.19,70.19,0,0,0-15.84,11.57c-9.21,9.21-13.05,16.92-16.13,23.11-2.42,4.86-4.33,8.69-8.36,12.71-8.73,8.74-16.59,11.87-24.92,15.2-6.78,2.7-13.78,5.5-20.39,11.28a6.9,6.9,0,0,0-.71.72c-5.79,6.6-8.58,13.61-11.29,20.38-3.32,8.33-6.46,16.2-15.19,24.93-4,4-7.86,5.93-12.71,8.35-6.19,3.09-13.9,6.92-23.12,16.14-5.69,5.69-8.81,11.08-11.57,15.83-3.66,6.32-6.83,11.77-15.9,18.47-3.82,2.82-8,3.28-12.75,3.81-5.61.63-12,1.34-17.07,6.44-1.94,1.94-3.84,4-5.66,6-6.51,7-12.65,13.62-18.69,13.71-2.53.06-5.34-1.05-8.44-3.25L448.89,165c2.2,3.11,3.3,5.94,3.26,8.44-.09,6-6.71,12.18-13.72,18.69ZM479,113.35,113.39,479a52,52,0,1,1-73.51-73.51L405.5,39.84A52,52,0,1,1,479,113.35Zm0,0"/></g></g></svg>