<svg id="Layer_1" data-name="Layer 1" xmlns="http://www.w3.org/2000/svg" viewBox="0 0 283.66 518.9"><defs><style>.cls-1{fill:#922d2d;}.cls-2{fill:#7d1f1f;}.cls-3{fill:#dfeee7;}.cls-4{fill:#d7e0dc;}.cls-5{fill:#9e4a4a;}</style></defs><g id="Cola"><g id="Fill"><path class="cls-1" d="M236.09,73.13H21.68a8.09,8.09,0,0,0-7.5,5C8.38,92.4-3,139.24,31.2,247.23,63,347.61,51.61,445.3,43.82,488.36A19.46,19.46,0,0,0,63,511.28H194.79A19.46,19.46,0,0,0,214,488.36c-7.79-43.06-19.15-140.75,12.62-241.13,34.19-108,22.82-154.83,17-169.07a8.09,8.09,0,0,0-7.5-5Zm0,0"/><path class="cls-2" d="M243.59,78.16a8.09,8.09,0,0,0-7.5-5h-53.7s28.05,39.66-14.5,174.1C133.56,355.67,149.57,461,157.05,497.64a11.37,11.37,0,0,1-11.15,13.64h48.89A19.46,19.46,0,0,0,214,488.36c-7.79-43.06-19.15-140.74,12.62-241.13,34.19-108,22.82-154.83,17-169.07Zm0,0"/><path class="cls-3" d="M210,462.47a19.37,19.37,0,0,1-15.18,7.28H63a19.37,19.37,0,0,1-15.18-7.28c-1.29,10-2.69,18.71-4,25.9A19.46,19.46,0,0,0,63,511.28H194.79A19.46,19.46,0,0,0,214,488.37c-1.3-7.19-2.7-15.91-4-25.9Zm0,0"/><path class="cls-4" d="M197,511.15h.06A19.45,19.45,0,0,0,214,488.36c-.14-.83-.29-1.67-.44-2.53,0-.2-.07-.39-.11-.59-.12-.72-.25-1.45-.37-2.19l-.1-.55c-.31-1.89-.64-3.87-1-5.93a2.17,2.17,0,0,0,0-.25c-.15-1-.31-2-.46-3.06a.77.77,0,0,1,0-.15q-.49-3.35-1-6.93a.06.06,0,0,0,0,0c-.16-1.2-.32-2.4-.48-3.64v0a19.37,19.37,0,0,1-15.18,7.28H152.27c1.63,11.47,3.36,20.92,4.78,27.88a11.38,11.38,0,0,1-11.15,13.65h48.89c.58,0,1.13,0,1.7-.08l.54-.05Zm0,0"/><path class="cls-3" d="M21.68,73.13a8.09,8.09,0,0,0-7.5,5c-2.4,5.9-5.75,17.39-6.44,36.5H250c-.68-19.11-4-30.6-6.43-36.5a8.09,8.09,0,0,0-7.5-5Zm0,0"/><path class="cls-4" d="M182.39,73.13s7.86,11.12,8.94,41.53H250a136.3,136.3,0,0,0-3-25.35.08.08,0,0,0,0,0c-.3-1.37-.63-2.64-.95-3.83a.19.19,0,0,0,0-.07c-.16-.57-.32-1.11-.47-1.64a.74.74,0,0,1,0-.14c-.32-1-.63-2-.93-2.84l-.06-.17c-.14-.41-.29-.8-.43-1.17l-.06-.17-.42-1.07a8,8,0,0,0-3-3.66,7,7,0,0,0-1-.58,8.11,8.11,0,0,0-3.49-.79Zm0,0"/><path class="cls-5" d="M123.67,213.83,88.21,184.46a3.28,3.28,0,0,1-.43-4.6l29.38-35.46a3.27,3.27,0,0,1,4.6-.43l35.46,29.37a3.27,3.27,0,0,1,.43,4.6L128.27,213.4a3.26,3.26,0,0,1-4.6.43Zm0,0"/><path class="cls-5" d="M128,272l29.95-40a3.55,3.55,0,0,1,5-.71l40,30a3.55,3.55,0,0,1,.71,5l-30,40a3.53,3.53,0,0,1-5,.71l-40-29.95a3.55,3.55,0,0,1-.71-5Zm0,0"/><path class="cls-1" d="M203,261.18l-32-24c-1,3.29-2,6.61-3.08,10a436.71,436.71,0,0,0-12.49,49.65l13.39,10a3.55,3.55,0,0,0,5-.71l29.95-40a3.55,3.55,0,0,0-.71-5Zm0,0"/><path class="cls-5" d="M183.3,136.8l30.8-1.22a2.19,2.19,0,0,1,2.27,2.1l1.23,30.81a2.2,2.2,0,0,1-2.11,2.27L184.69,172a2.18,2.18,0,0,1-2.27-2.1l-1.22-30.81a2.19,2.19,0,0,1,2.1-2.27Zm0,0"/><path class="cls-1" d="M214.1,135.58,191,136.5a335.23,335.23,0,0,1-4.26,35.4l28.76-1.14a2.2,2.2,0,0,0,2.11-2.27l-1.23-30.81a2.19,2.19,0,0,0-2.27-2.1Zm0,0"/><path class="cls-5" d="M48.24,115l33,19a2.72,2.72,0,0,1,1,3.7l-19,33a2.69,2.69,0,0,1-3.69,1l-33-19a2.69,2.69,0,0,1-1-3.69l19-33a2.7,2.7,0,0,1,3.69-1Zm0,0"/><path class="cls-5" d="M66.64,232.27,99,229a2.3,2.3,0,0,1,2.53,2.06l3.29,32.37a2.33,2.33,0,0,1-2.07,2.54L70.4,269.23a2.31,2.31,0,0,1-2.54-2.06l-3.28-32.38a2.29,2.29,0,0,1,2.06-2.52Zm0,0"/></g><g id="Line"><path d="M283.56,6.37A7.62,7.62,0,0,0,274.8.1L210.52,10.79a13.09,13.09,0,0,0-10.36,8.94L185.39,65.51H21.68A15.63,15.63,0,0,0,7.13,75.29c-3.61,8.86-7.76,25.16-7,52.45C1,161.32,9,202.3,23.93,249.53c29.14,92,21,182.91,14.21,226.67-.21,1.29-.41,2.57-.62,3.85-.07.39-.13.78-.19,1.15q-.49,2.94-1,5.81A27.1,27.1,0,0,0,63,518.9H194.79A27.09,27.09,0,0,0,221.46,487c-.32-1.74-.63-3.51-.93-5.29-.05-.31-.1-.61-.16-.92-1.05-6.28-2-12.74-2.84-19.3h0c-1.2-9.31-2.17-18.81-2.9-28.42a7.62,7.62,0,0,0-15.19,1.16q1,12.9,2.52,25.48a11.76,11.76,0,0,1-7.17,2.42H63a11.75,11.75,0,0,1-7.13-2.39C62.33,407,64.51,327.23,38.46,244.93c-18.06-57-23.09-96.49-23.16-122.66H32.14L18.91,145.18a10.34,10.34,0,0,0,3.78,14.1l33,19.05a10.36,10.36,0,0,0,14.1-3.78l19-33A10.33,10.33,0,0,0,85,127.46l-9-5.19H125A7.62,7.62,0,0,0,125,107H15.88C17,93.26,19.61,85,21.24,81a.45.45,0,0,1,.44-.28H180.47L172,107H160.41a7.62,7.62,0,0,0,0,15.23h82.13c0,1.64,0,3.33-.08,5.07-.84,32.16-8.63,71.72-23.15,117.59-14.87,47-22.09,98.37-21.47,152.77a7.62,7.62,0,0,0,7.62,7.52h.08a7.62,7.62,0,0,0,7.53-7.7c-.6-52.77,6.39-102.56,20.76-148,20.06-63.36,24.7-106.41,23.79-134.53,0-.11,0-.23,0-.34,0-.33,0-.64-.06-1-.77-19.68-4.27-31.85-6.94-38.41a15.63,15.63,0,0,0-14.55-9.78h-34.7l12.87-39.9,63-10.48a7.61,7.61,0,0,0,6.26-8.76ZM51.31,489.71c.77-4.29,1.56-9,2.33-14A27.13,27.13,0,0,0,63,477.37H194.79a27.18,27.18,0,0,0,9.35-1.65q1.06,7.08,2.32,14a11.86,11.86,0,0,1-6.64,12.84,12,12,0,0,1-5,1.11H63a12,12,0,0,1-3.84-.63,11.86,11.86,0,0,1-7.83-13.32ZM48.69,124.07,73.16,138.2,59,162.68,34.56,148.55Zm187.4-43.32a.45.45,0,0,1,.44.28c1.76,4.3,4.28,12.56,5.42,26H188l8.48-26.29Zm0,0"/><path d="M118.82,219.7a10.88,10.88,0,0,0,15.32-1.44l29.37-35.46a10.88,10.88,0,0,0-1.44-15.33L126.62,138.1a10.9,10.9,0,0,0-15.33,1.44L81.92,175a10.9,10.9,0,0,0,1.44,15.33Zm1.43-67.09L149,176.44,125.19,205.2,96.42,181.37Zm0,0"/><path d="M124.18,283l40,29.95a11.08,11.08,0,0,0,6.67,2.23,10.91,10.91,0,0,0,1.61-.12,11.05,11.05,0,0,0,7.35-4.36l30-40a11.16,11.16,0,0,0-2.26-15.63l-40-30a11.18,11.18,0,0,0-15.63,2.25l-29.95,40A11.18,11.18,0,0,0,124.18,283Zm37.47-43.28,33.52,25.08-25.09,33.52-33.52-25.08Zm0,0"/><path d="M184.6,179.6H185l30.8-1.22a9.81,9.81,0,0,0,9.41-10.18L224,137.38A9.85,9.85,0,0,0,213.81,128L183,129.19a9.82,9.82,0,0,0-9.41,10.18l1.22,30.81a9.81,9.81,0,0,0,9.79,9.42ZM209,143.41l.79,20-20,.79-.79-20Zm0,0"/><path d="M98.24,221.4l-32.37,3.29A9.92,9.92,0,0,0,57,235.57l3.28,32.37a9.93,9.93,0,0,0,9.86,8.92c.34,0,.68,0,1-.05l32.38-3.29a9.92,9.92,0,0,0,8.87-10.88l-3.29-32.37a10,10,0,0,0-10.88-8.87ZM74.9,261.12l-2.21-21.81,21.81-2.22,2.22,21.81Zm0,0"/></g></g></svg>