<svg id="Layer_1" data-name="Layer 1" xmlns="http://www.w3.org/2000/svg" viewBox="0 0 406.36 518.9"><defs><style>.cls-1{fill:#f0a435;}.cls-2{fill:#f28e39;}.cls-3{fill:#ea5055;}.cls-4{fill:#dfeee7;}.cls-5{fill:#fcd041;}</style></defs><g id="Pizza"><g id="Fill"><path class="cls-1" d="M383.34,59A469.62,469.62,0,0,0,50.22,197L360.56,507.34a13.34,13.34,0,0,0,22.78-9.43Zm0,0"/><path class="cls-2" d="M325.77,62.51v410l34.79,34.79a13.34,13.34,0,0,0,22.78-9.43V59a473.62,473.62,0,0,0-57.57,3.49Zm0,0"/><path class="cls-3" d="M351.29,139.3a25.53,25.53,0,1,1-25.52-25.53,25.53,25.53,0,0,1,25.52,25.53Zm0,0"/><path class="cls-3" d="M249,302.15a23.09,23.09,0,1,1-23.08-23.08A23.08,23.08,0,0,1,249,302.15Zm0,0"/><path class="cls-3" d="M360.86,298.68a24.17,24.17,0,1,1-24.17-24.16,24.17,24.17,0,0,1,24.17,24.16Zm0,0"/><path class="cls-4" d="M328.54,364.26H323a26.24,26.24,0,0,0-26.24,26.24,7.08,7.08,0,0,0,7.08,7.09h7.07a2.78,2.78,0,0,1,2.78,2.92l-.59,11a6,6,0,0,0,5.93,6.26h13.52a5.94,5.94,0,0,0,5.93-6.26l-.59-11a2.78,2.78,0,0,1,2.78-2.92h7.07a7.08,7.08,0,0,0,7.08-7.09,26.24,26.24,0,0,0-26.24-26.24Zm0,0"/><path class="cls-4" d="M225.91,200.89v6.58a30.92,30.92,0,0,0,30.93,30.93,8.35,8.35,0,0,0,8.35-8.35v-8.33a3.27,3.27,0,0,1,3.45-3.27l13,.69a7,7,0,0,0,7.37-7V196.22a7,7,0,0,0-7.37-7l-13,.7a3.27,3.27,0,0,1-3.45-3.27v-8.34a8.36,8.36,0,0,0-8.35-8.35,30.93,30.93,0,0,0-30.93,30.93Zm0,0"/><path class="cls-5" d="M372.09,7.61l-4,0A496.68,496.68,0,0,0,15.79,153.52l-.38.39a26.89,26.89,0,0,0,0,37.91L35,211.34a27.12,27.12,0,0,0,38.26,0l.19-.19.17-.17a22.55,22.55,0,0,1,32.21.46L145.52,253a13.87,13.87,0,0,0,19.87.22,14.62,14.62,0,0,0,.22-20.31L137,203a14.46,14.46,0,0,1-.31-19.89,14.2,14.2,0,0,1,20.56,0l9,9.42a14.45,14.45,0,0,0,19.85,1.2,14.19,14.19,0,0,0,1-20.54l-6.53-6.84A22.57,22.57,0,0,1,187,130.39,415,415,0,0,1,368.1,89.07h3.69a26.77,26.77,0,0,0,27-26.8V34.45A26.86,26.86,0,0,0,372.09,7.61Zm0,0"/><path class="cls-1" d="M372.09,7.61l-4,0q-14,0-27.72.77V90q13.74-.9,27.72-.92h3.69a26.77,26.77,0,0,0,27-26.8V34.45A26.86,26.86,0,0,0,372.09,7.61Zm0,0"/></g><g id="Line"><path d="M372.16,0,368.1,0A504.31,504.31,0,0,0,10.41,148.17l-.38.38a34.46,34.46,0,0,0,0,48.65l19.51,19.51a34.38,34.38,0,0,0,24.49,10.12h0A34.46,34.46,0,0,0,78.59,216.7l.35-.35A14.68,14.68,0,0,1,89.4,212h.19a14.94,14.94,0,0,1,10.7,4.65L140,258.25a21.33,21.33,0,0,0,15.29,6.65h.24a21.33,21.33,0,0,0,15.19-6.3,22.26,22.26,0,0,0,.35-30.93L142.5,197.74a6.91,6.91,0,0,1-.31-9.41,6.61,6.61,0,0,1,4.8-2.06h0a6.55,6.55,0,0,1,4.77,2l9,9.43a22,22,0,0,0,30.33,1.68A21.59,21.59,0,0,0,198.59,184a21.88,21.88,0,0,0-6-16.06L186,161.06a15,15,0,0,1,4.24-23.83A405.34,405.34,0,0,1,368.1,96.67c1.21,0,2.42,0,3.62,0a34.36,34.36,0,0,0,34.64-34.41V34.45A34.56,34.56,0,0,0,372.16,0Zm19,62.26A19.09,19.09,0,0,1,385.48,76a18.82,18.82,0,0,1-13.62,5.54H368.1a420.33,420.33,0,0,0-184.43,42.07,30.17,30.17,0,0,0-8.61,48l6.53,6.84a6.61,6.61,0,0,1-.45,9.57,6.91,6.91,0,0,1-9.38-.72l-9-9.43A21.89,21.89,0,0,0,147,171.08h0a21.61,21.61,0,0,0-15.78,6.78,22,22,0,0,0,.33,30.37l28.61,29.93a7.05,7.05,0,0,1-.11,9.69,6.28,6.28,0,0,1-9-.09l-39.75-41.58a30,30,0,0,0-21.5-9.34H89.4a29.79,29.79,0,0,0-21.18,8.74l-.2.2-.18.19a19.32,19.32,0,0,1-13.76,5.67h0A19.31,19.31,0,0,1,40.32,206L20.81,186.45a19.24,19.24,0,0,1,0-27.19l.36-.37A489.07,489.07,0,0,1,368.1,15.19H372a19.35,19.35,0,0,1,19.16,19.25Zm0,0"/><path d="M383.34,115.91a7.6,7.6,0,0,0-7.6,7.6v374.4a5.74,5.74,0,0,1-9.81,4.06l-267-267a7.59,7.59,0,0,0-10.74,10.74l267,267a20.6,20.6,0,0,0,14.66,6.19,21.42,21.42,0,0,0,8.15-1.65,20.6,20.6,0,0,0,12.92-19.34V123.51a7.59,7.59,0,0,0-7.59-7.6Zm0,0"/><path d="M325.77,106.18a33.12,33.12,0,1,0,33.12,33.12,33.15,33.15,0,0,0-33.12-33.12Zm0,51.06A17.94,17.94,0,1,1,343.7,139.3a18,18,0,0,1-17.93,17.94Zm0,0"/><path d="M195.23,302.15a30.68,30.68,0,1,0,30.68-30.68,30.72,30.72,0,0,0-30.68,30.68Zm30.68-15.48a15.49,15.49,0,1,1-15.49,15.48,15.51,15.51,0,0,1,15.49-15.48Zm0,0"/><path d="M336.69,266.92a31.76,31.76,0,1,0,31.76,31.76,31.79,31.79,0,0,0-31.76-31.76Zm0,48.32a16.57,16.57,0,1,1,16.56-16.56,16.59,16.59,0,0,1-16.56,16.56Zm0,0"/><path d="M362.38,390.5a33.88,33.88,0,0,0-33.83-33.84H323a33.88,33.88,0,0,0-33.84,33.84,14.7,14.7,0,0,0,14.68,14.68h2l-.31,5.94A13.53,13.53,0,0,0,319,425.38h13.51A13.54,13.54,0,0,0,346,411.12l-.32-5.94h2a14.69,14.69,0,0,0,14.68-14.68Zm-21.75-.5a10.36,10.36,0,0,0-10.36,10.92l.5,9.27h-10l.49-9.27A10.36,10.36,0,0,0,310.87,390h-6.55A18.66,18.66,0,0,1,323,371.86h5.59A18.65,18.65,0,0,1,347.18,390Zm0,0"/><path d="M256.84,162.37a38.57,38.57,0,0,0-38.53,38.53v6.57A38.57,38.57,0,0,0,256.84,246a16,16,0,0,0,15.94-15.94v-3.78l8.43.44a14.59,14.59,0,0,0,15.37-14.57V196.22a14.6,14.6,0,0,0-15.37-14.58l-8.43.45v-3.77a16,16,0,0,0-15.94-15.95Zm24.56,34.47v14.68L269,210.86a10.87,10.87,0,0,0-11.45,10.86v8.33a.76.76,0,0,1-.75.76,23.37,23.37,0,0,1-23.34-23.34v-6.58a23.37,23.37,0,0,1,23.34-23.34.76.76,0,0,1,.75.76v8.34A10.87,10.87,0,0,0,269,197.5Zm0,0"/></g></g></svg>