<svg id="Main_File" data-name="Main File" xmlns="http://www.w3.org/2000/svg" viewBox="0 0 1047.54 1385.68"><defs><style>.cls-1{fill:#333;}.cls-1,.cls-12{opacity:0.1;}.cls-2{fill:#ffcd00;}.cls-12,.cls-3{fill:#fff;}.cls-3{opacity:0.2;}.cls-4{fill:#f6dbc0;}.cls-5{fill:#db1928;}.cls-6{fill:#49c950;}.cls-7{fill:#d79c1e;}.cls-8{fill:#ee1822;}.cls-9{fill:#ec984f;}.cls-10{fill:#734d36;}.cls-11{fill:#e28c4b;}.cls-13{fill:#edc003;}.cls-14{fill:#eaceb5;}.cls-15{fill:#cc172d;}.cls-16{fill:#42b745;}</style></defs><path class="cls-1" d="M965,1345c0-14.85-197.44-26.89-441-26.89s-441,12-441,26.89a2.07,2.07,0,0,0,.45,1.18l-.45,0c5.9,11.14,15.26,14.78,24,17.5,74,23,149.74,22.26,225,21.49,13.52-.14,27.07-.28,40.55-2.34,16.35-2.51,32.48-7.81,48.72-11.73,33,.48,67.36.74,102.74.74q8.52,0,17,0c19.27,3.83,38.43,8.66,57.85,11,17,2.06,34.09,2.2,51.16,2.34,94.93.77,190.54,1.46,283.87-21.49,10.62-2.61,21.9-6.15,29.37-16.32C964.37,1346.63,965,1345.82,965,1345Z" transform="translate(-0.23 0.18)"/><path class="cls-2" d="M893.89,436.26c-2.09-11.78-4.26-24-5.23-36.27l-.22-2.84c-1.59-19.77-3.36-42,7-60.62l14.3-31.14q-17.82-9.7-36-18.4c-215.23-103.21-462.76-101.57-677,4.93q-13,6.46-25.89,13.47L191,349.17c13.49,23.76,5.35,51.5-2.55,78.38-7.68,26.16-14.94,50.86-2.19,69.62a82.37,82.37,0,0,0,8.37,9.83c4.14,4.38,8.41,8.91,11.68,14.59,9.48,16.45,8.3,37.54-3.59,64.49-1.17,2.65-2.39,5.32-3.61,8-7.11,15.53-13.82,30.2-12.54,45.35,2.26,26.52,30.15,45.2,55.26,49.3,6.56,1.07,11.12.51,13.2-1.6,1.55-1.58,2-4,2-7.51,0-1.9-.14-4.11-.32-6.65-.57-7.81-1.28-17.52,5.06-25.07a20.33,20.33,0,0,1,15.12-7.31c11.31-.47,22.78,6.83,29.74,13.83s16.64,16.72,24.27,14.63l6.15-1.69,54.66,119.08.17.67c.29,1.14.55,2.28.77,3.42h0c4.12,20.44-.68,41.08-5.34,61.08-5.1,21.9-9.91,42.59-3.09,61.55,4.05,11.29,12,20.94,20.32,31.15C414.1,956,424,968,428.42,983.25c4.13,14.11,2.88,28.46,1.68,42.34-.21,2.49-.43,5-.61,7.45-1,12.94-1,29.25,7.32,40.63a24.69,24.69,0,0,0,17.95,9.6c3.35.19,8.06-.36,11.47-4.07a14.52,14.52,0,0,0,2.93-4.81c2.89-7.8-.06-18.53-3.15-29.78-.95-3.42-1.92-7-2.7-10.39-.26-1.11-.46-2.26-.63-3.46l-.27-.41v-1.82c-.61-6.33,13.24,5.47,28.65,20.36,3.38,13.14,3,27,3.3,40.49a383.82,383.82,0,0,0,7.32,66.15c.89,4.47,1.88,9,4,13a26.65,26.65,0,0,0,2.19,3.4c4.5,5.92,11.33,10,18.11,13.26,8.79,4.26,18.23,7.76,28,7.74s20-4.12,25.25-12.34c6.69-10.39,4.1-23.91,5.07-36.23,1.1-14,7.94-28.21,20.26-34.9,6.17-3.36,14-5.22,17.21-11.46a18.57,18.57,0,0,0,1.64-5.48c2.13-12.69-1.12-25.58-3.08-38.3s-2.38-26.64,4.57-37.48c4-6.3,10.28-11,13.92-17.58a27.82,27.82,0,0,0,2.65-19.07,116.74,116.74,0,0,1,7.54-15.87A51.07,51.07,0,0,1,658,953c8.68-8.14,19.62-11.83,30.19-15.4,10.29-3.47,20-6.74,26.1-13.77,8.08-9.33,8.6-23.54,9.15-38.58.68-18.6,1.38-37.83,16.72-50.34a66,66,0,0,1,8.73-5.76c4.25-2.48,7.92-4.63,9.64-7.66,1.25-2.21,1.64-5.3,1.85-8,1.6-19.94-4.16-39.42-10.26-60-1.64-5.58-3.35-11.35-4.88-17.08-5.77-21.65-7.39-40.22-4.82-56a71.33,71.33,0,0,1,8.57-24.67L786.39,574l6.87,3.27a40.59,40.59,0,0,0,7.38,2.66h0a42,42,0,0,0,52.77-38.07c.16-2.55.11-5.25.05-8.11-.15-8.14-.33-17.36,4.7-25.55,5.39-8.81,14.62-12.86,22.77-16.44,7.17-3.16,13.38-5.88,16.09-10.91,2.11-3.9,2.06-9.16,1.32-15.86C897.3,455.46,895.57,445.7,893.89,436.26ZM471,254.56c12.38-9.64,29.39-16.65,46.67-19.23a238.9,238.9,0,0,1,83.3,2.26c29.66,6.07,48.93,18.34,57.28,36.47,3.57,7.75,4.74,16.11,5.31,21.72.7,7,1.24,17.31-2.12,27.12C656.25,338,642,350,625.09,353.58a57.4,57.4,0,0,1-11.82,1.22A69.12,69.12,0,0,1,578.72,345a159,159,0,0,1-15.21-10.49c-6.25-4.69-12.16-9.12-18.78-12.24A53.31,53.31,0,0,0,513.2,318a110.73,110.73,0,0,0-13,3.36,105.24,105.24,0,0,1-16.44,4c-10.39,1.37-24.9-1-31.63-12.27a27.82,27.82,0,0,1-3.64-12.78C447.47,282.64,455.24,266.82,471,254.56ZM621.22,527.73c-1.92,16.5-17.33,29.77-33.79,29.77-1,0-1.94,0-2.91-.14-17.52-1.69-31.71-18.56-30.37-36.11,1.67-21.78,17.81-32.4,32.11-33.05s31.1,8.36,34.7,29.67A35.11,35.11,0,0,1,621.22,527.73ZM429.15,427.51C440.58,420,456.59,419.1,472,425a74.26,74.26,0,0,1,7.91,3.6,93.33,93.33,0,0,1-6.78-13.92c-5.9-15.47-6-30.93-.26-43.54,2.93-6.43,7.13-11.2,12.16-13.81,8.94-4.63,20.68-2.72,31.4,5.13,14.74,10.8,23.41,28.56,24.12,46.6,8.31-9.32,18.25-15.72,28.94-18.42,11.35-2.86,25.4,0,30.29,11,3.42,7.67,1,15.83-2.09,23.51-2.24,5.54-4.74,11.4-8.44,16.74-8.82,12.73-22.24,19.32-32,22.61s-21.14,6.68-30,6.68a29.36,29.36,0,0,1-3-.15c-1.3,3.14-3.81,5.64-5.76,7.58l-.33.33a45.5,45.5,0,0,1-30.77,13.35h-1c-15.49,0-29.66-7.94-41.09-14.35l-7.57-4.23c-9.92-5.56-20.15-12.83-20.87-24.54C416.3,441.08,421,432.8,429.15,427.51Zm-177.67-9.18c-14.8-17.6-21.08-40.5-17.69-64.49,3.35-23.68,15.77-45.62,35-61.77,39.88-33.54,97-31.48,127.36,4.6,14.8,17.6,21.08,40.5,17.69,64.49-3.35,23.68-15.77,45.62-35,61.77-19,16-41.88,23.87-63.94,23.87C290.63,446.8,267.38,437.23,251.48,418.33Zm70.77,94.53c-4.83-18.18,3.51-40.48,18.58-49.73,11.67-7.15,25.08-5.24,36.8,5.26a18.71,18.71,0,0,1,5.52,7.86,21.82,21.82,0,0,1,1,6.36l.64,16.08c.28,6.82.62,15.29-3,23.11-4.79,10.25-16,16.86-27.56,16.86a29.88,29.88,0,0,1-5.72-.55C336.15,535.68,325.62,525.54,322.25,512.86ZM431.64,664.39c-1.88.07-2.67.47-5.23,7.69-2.47,6.95-7.07,19.88-23.63,18.5-21.11-1.79-40.15-18.57-46.31-40.81C351.25,630.9,355,609,366.63,589.66c9.27-15.34,22.69-27.7,37.77-34.8,24.49-11.53,55-9.45,77.67,5.3C500.34,572,510.53,591,508,608.57c-1.34,9.39-7.49,19.89-18.21,22.19a32,32,0,0,1-10.41.1l-.79-.09a45.82,45.82,0,0,0,3.87,8.13,140.74,140.74,0,0,0,18.89,25.46c1.16,1.25,2.36,2.48,3.55,3.72,6.37,6.59,12.95,13.4,16.55,22.68,5,12.91,1.18,30.43-12.51,35.93a22.49,22.49,0,0,1-8.38,1.57,29.45,29.45,0,0,1-17.29-6c-5.88-4.36-10.09-10.22-13.8-15.4l-.66-.91c-1.18-1.64-2.6-3.74-4.24-6.16-4.69-6.92-11.11-16.4-17.86-24C437,664.76,432.44,664.34,431.64,664.39Zm52.72,201.88c-13.16-8.91-20.29-24-26-36.08l-3.72-7.84c-4.86-10.27-9-22.13-2.79-32.09,4.25-6.83,12.91-10.84,22.58-10.46,13.65.54,27.24,9,36.37,22.74a73.35,73.35,0,0,1,4.37,7.51,93.38,93.38,0,0,1,2.53-15.27c4.15-16,13-28.69,25-35.64,6.11-3.55,12.3-5,17.91-4.22,10,1.41,18.43,9.77,22.62,22.37,5.77,17.35,2.55,36.84-7.33,52,12.18-2.79,24-2.24,34.26,1.75,10.91,4.25,20.71,14.71,18.34,26.49-1.66,8.23-8.34,13.49-15.33,18-5,3.22-10.46,6.55-16.57,8.76a54.09,54.09,0,0,1-18.45,3.11,73.26,73.26,0,0,1-20.69-3.18c-11-3.31-23.74-7.72-30.74-13.84-2.87,1.81-6.36,2.39-9.08,2.85l-.45.07a45.68,45.68,0,0,1-32.82-6.94Zm34.58,52.61c4.1-4.88,10-7.64,17.07-8a38.26,38.26,0,0,1,27,10.26c10.33,10.13,8.52,26.23,7.65,34-.72,6.39-2.39,21.34-14.31,27.33a24.68,24.68,0,0,1-11.22,2.4,51.08,51.08,0,0,1-5.94-.39c-12.53-1.47-21.09-5.61-26.15-12.66C502.37,956.92,509.52,930.09,518.94,918.88ZM639.8,752c-47.15,0-85.5-42.39-85.5-94.5S592.65,563,639.8,563s85.5,42.39,85.5,94.5S687,752,639.8,752Zm141-286.8c-8.42,4.36-20.55,5.44-28.64-2a32,32,0,0,1-6.11-8.42l-.4-.7a46.08,46.08,0,0,0-4.37,7.87,140.82,140.82,0,0,0-9.79,30.16c-.34,1.67-.65,3.35-1,5.05-1.67,9-3.41,18.32-8.88,26.64-5.36,8.14-15.12,14-24.76,14a21.55,21.55,0,0,1-11.77-3.4C678,529.9,673.69,520.9,673.88,511c.14-7.33,2.48-14.16,4.54-20.19l.36-1.05c.65-1.92,1.54-4.29,2.56-7,2.92-7.83,6.92-18.56,9.21-28.47,3.32-14.32,1-18.26.51-18.9-1.15-1.49-1.92-1.9-9.29.19-7.1,2-20.31,5.78-28.77-8.51-10.79-18.24-8.17-43.48,6.38-61.4,12.34-15.2,32.34-24.89,54.86-26.58,17.87-1.35,35.72,2.42,50.25,10.59,23.6,13.26,39.59,39.3,40.73,66.34C806.15,437.75,796.57,457.08,780.84,465.2Zm29.44-140.57a11,11,0,0,1-10.44,6.82c-1.91.08-3.88.14-5.88.14-7.33,0-15.13-.85-22.13-4.8a21.13,21.13,0,0,1-8.74-8.66,24.3,24.3,0,0,1-2.3-9.59,81.33,81.33,0,0,1,1.05-20c3.95-22.27,19.06-22.12,25.37-21,11.81,2.05,21.13,9.28,25.55,19.85C817.38,298.47,816.48,312,810.28,324.63Z" transform="translate(-0.23 0.18)"/><path class="cls-3" d="M629.88,283.85c-5.15.23-10.43.6-15.14,2.7-6.73,3-11.49,9.16-15.23,15.51-14.46,24.54-19.2,56.63-42.63,72.83-22.65,15.66-53,9.77-80.49,8.85-34.78-1.17-71,7.5-97.42,30.2s-40.62,61-29.24,93.85c9.1,26.31,33.59,46,60.83,51.78S467,557.93,489.84,542c14.36-10,26.29-23.13,40.09-33.91a155.25,155.25,0,0,1,91.28-32.56c8.42-.19,17,.34,24.9,3.22,12.83,4.67,22.66,15,34.08,22.44,24.57,16.09,58,18.18,83.85,4.32s42.8-43.49,40.48-72.77c-1.94-24.4-16-47.13-14.89-71.58.77-17.57,8-36.75-7.76-49.69-12.29-10.09-36-12.07-51.08-16.46C697.8,285.42,664.29,282.31,629.88,283.85Z" transform="translate(-0.23 0.18)"/><path class="cls-3" d="M436.82,788.57c10.5,22.14,27.86,41,34.75,64.56,9.74,33.23-3,70.15,7.75,103.06,8.21,25.07,30.6,45,56.47,50.16,14.1,2.84,30.21.95,40.37-9.23s12-25.91,13.71-40.26c2.51-20.53,6.55-41.82,19.13-58.24,9.52-12.43,23.16-21,34.07-32.25,19.34-19.93,29.43-49,24.63-76.41-3.24-18.51-12.8-35.5-15.74-54.06-5.32-33.57,11-70.92-5.85-100.45-10.9-19.13-32.71-28.85-53.32-36.6-9.85-3.71-20.81-7.26-30.67-3.57-18.57,7-20.19,33.13-34.24,47.12-13.87,13.79-36,12.73-55.59,13.06s-43,6-49,24.65c-4,12.46,3.14,34.74,2.45,49.06C424.77,749.7,428,769.9,436.82,788.57Z" transform="translate(-0.23 0.18)"/><path class="cls-4" d="M508.4,705c-.54,3.54-2.2,6.62-5,7.75-3,1.22-7.39.21-11.14-2.56-4-3-7.18-7.4-10.55-12.1l-.66-.92c-1.06-1.47-2.42-3.48-4-5.82-14.62-21.57-30.22-42.63-46-42-12.69.49-16.51,11.24-18.79,17.65-2.83,8-3.75,9-8.22,8.58-14.75-1.25-28.68-13.81-33.12-29.86-4.13-14.92-1-32.54,8.54-48.35a80.77,80.77,0,0,1,6-8.62,72.45,72.45,0,0,1,25.31-20.37,66.31,66.31,0,0,1,63.11,4.31c11,7.13,21.19,20.32,19.28,33.71-.59,4.12-3.07,8.9-6.51,9.64a20.06,20.06,0,0,1-5.66-.15c-4-.42-8.89-1-13.85,1.3l-4,1.81-.37,4.38c-.75,8.73,3,16.52,6.72,23a155.33,155.33,0,0,0,20.91,28.19c1.22,1.31,2.47,2.6,3.72,3.9,5.58,5.77,10.85,11.23,13.36,17.69A17.75,17.75,0,0,1,508.4,705Z" transform="translate(-0.23 0.18)"/><path class="cls-4" d="M774,451.88c-3.71,1.91-9,2.66-11.63.29a20.71,20.71,0,0,1-3.17-4.7c-1.95-3.47-4.38-7.8-9.08-10.53l-3.8-2.21L742.49,437c-7.54,4.46-11.72,12-14.82,18.81a155.8,155.8,0,0,0-10.84,33.38c-.35,1.75-.68,3.52-1,5.29-1.47,7.9-2.86,15.35-6.67,21.14a17.18,17.18,0,0,1-4.28,4.4c-3.73,2.71-8.4,3.92-11.62,1.86-2.74-1.76-4.46-5.91-4.37-10.57.09-5,1.86-10.14,3.73-15.61l.37-1.07c.58-1.72,1.43-4,2.42-6.64,9.09-24.42,17.17-49.3,7.54-61.78a17.1,17.1,0,0,0-14.26-7,40.44,40.44,0,0,0-11,2c-8.15,2.32-9.47,2.13-11.75-1.73-7.54-12.74-5.39-31.37,5.11-44.3,9.24-11.37,24.22-18.87,41.43-20.8,1-.12,1.94-.21,2.92-.28,15-1.12,29.79,2,41.78,8.7a66.34,66.34,0,0,1,33.09,53.91C790.79,429.7,786,445.67,774,451.88Z" transform="translate(-0.23 0.18)"/><path class="cls-5" d="M653.48,313.38a36.62,36.62,0,0,1-1.53,6.27C647.9,331.47,636.55,341,623,343.8c-12.37,2.61-26.68-.1-39.29-7.43a147.62,147.62,0,0,1-14.23-9.84c-6.38-4.78-13-9.73-20.52-13.29a63.4,63.4,0,0,0-26.89-6,61.79,61.79,0,0,0-10.61.91,119.85,119.85,0,0,0-14.14,3.63,96.39,96.39,0,0,1-14.87,3.65c-7.38,1-17.5-.4-21.73-7.49a17.94,17.94,0,0,1-2.25-8.24c-.05-.84-.07-1.67-.07-2.49,0-16.12,9.42-28.41,21.94-37.05,11.92-8.24,26.65-13.17,38.74-15a228.73,228.73,0,0,1,79.82,2.17c26.37,5.4,43.26,15.78,50.21,30.85,2.24,4.87,3.65,10.76,4.44,18.55A65.82,65.82,0,0,1,653.48,313.38Z" transform="translate(-0.23 0.18)"/><path class="cls-6" d="M618.69,855.52c-.87,4.31-5,7.71-10.91,11.5-4.56,2.91-9.45,5.91-14.59,7.77-12,4.34-24.5,2.26-32.87-.24-15.83-4.74-23.1-8.56-26.42-11.2l.28-.25c8-7.4,19.42-14.65,31.35-19.9,8.47-3.73,25.07-9.07,41-2.88,4.88,1.9,9.64,5.63,11.5,9.9A8.82,8.82,0,0,1,618.69,855.52Z" transform="translate(-0.23 0.18)"/><path class="cls-6" d="M553.44,837.91a125.9,125.9,0,0,0-23,15.16c-.4-1.31-.88-2.68-1.41-4.14-.39-1.09-.82-2.23-1.27-3.41-.71-1.88-1.39-3.65-1.68-4.71-.42-1.48-.84-3-1.28-4.52h.3c-.65-12.13-1.07-26.15,2.26-39,3.43-13.23,10.85-24,20.35-29.5a21.13,21.13,0,0,1,9.23-3,10.82,10.82,0,0,1,2.27.09c7.22,1,12.23,8.73,14.52,15.62C580.56,801,571.65,826.19,553.44,837.91Z" transform="translate(-0.23 0.18)"/><path class="cls-6" d="M521.91,861a1.09,1.09,0,0,1-.24.48c-.55.72-2,1.16-5.69,1.77l-.47.07A35.4,35.4,0,0,1,490,858c-10.89-7.38-17.1-20.5-22.59-32.08l-3.71-7.84c-3.71-7.83-7-16.64-3.35-22.52a9,9,0,0,1,1.06-1.39c2.94-3.22,7.92-4.38,11.87-4.38H474c10.45.42,21.08,7.26,28.44,18.3,7,10.49,10.55,23.17,14,35.42.41,1.49,1.13,3.38,2,5.57C519.55,852.07,522.22,859.08,521.91,861Z" transform="translate(-0.23 0.18)"/><path class="cls-6" d="M588.38,421.34c-2,5-4.27,10.3-7.39,14.79-7.26,10.49-18.66,16-26.94,18.84-14.17,4.82-22.2,6.17-26.72,6.21-.47,0-.9,0-1.3,0,2.24-10.77,7.35-23.42,14.11-34.75,4.75-7.95,15.19-21.91,31.75-26.09,5.63-1.42,12.43-.93,16.32,2.26a8.26,8.26,0,0,1,2.4,3.08C592.6,410.12,590.5,416.09,588.38,421.34Z" transform="translate(-0.23 0.18)"/><path class="cls-6" d="M513.3,469.47c-.5.56-1.14,1.22-1.92,2l-.33.34a35.48,35.48,0,0,1-23.94,10.42c-13.16.34-25.82-6.8-37-13.06l-7.57-4.24c-7.51-4.21-15.25-9.44-15.77-16.28,0,0,0-.09,0-.14-.32-5.33,4-10.14,7.84-12.63a31.57,31.57,0,0,1,17.33-4.74,46.25,46.25,0,0,1,16.45,3.18c11.78,4.5,22,12.77,31.93,20.77,1.2,1,2.88,2.1,4.82,3.39,2.66,1.79,8.9,6,9.77,7.73C515.2,467,514.85,467.77,513.3,469.47Z" transform="translate(-0.23 0.18)"/><path class="cls-6" d="M527.22,429.09a126.52,126.52,0,0,0-10,25.64v0c-1.91-1.45-4.11-3-6.56-4.6-1.67-1.11-3.25-2.17-4.1-2.86l-3.66-2.94.24-.19c-7.56-9.51-16-20.69-20.75-33.1-4.87-12.76-5.05-25.82-.49-35.83,1.36-3,3.76-7,7.48-9l.17-.09c6.47-3.36,15,0,20.89,4.32C528,383.3,535.28,409,527.22,429.09Z" transform="translate(-0.23 0.18)"/><path class="cls-7" d="M552.52,931.88c4.49,4.39,4.21,13,3.25,21.57-.7,6.17-2,13.52-6.14,15.59-2.18,1.1-5.62.88-8.69.52-8.1-.95-13.24-3.08-15.7-6.5-5.45-7.59-1.58-26.48,5.18-34.53,1.36-1.62,3.49-2.51,6.32-2.65A23.33,23.33,0,0,1,552.52,931.88Z" transform="translate(-0.23 0.18)"/><path class="cls-7" d="M369.79,499.3c.22,5.45.46,11.64-1.65,16.15-2.65,5.68-10.19,9.25-16.79,7.94s-12.7-7.23-14.6-14.38c-3.08-11.6,2.6-27.37,11.92-33.09,5.86-3.59,12.24-2.37,18.95,3.64,1.15,1,1.33,1.51,1.33,1.53a12.54,12.54,0,0,1,.19,2.12Z" transform="translate(-0.23 0.18)"/><path class="cls-7" d="M606.17,520.37a20,20,0,0,1,.16,5.62c-1.1,9.35-11,17.34-20.37,16.44s-17.57-10.64-16.85-20c1-13.63,10.25-18.86,17.83-19.21S603.93,507.14,606.17,520.37Z" transform="translate(-0.23 0.18)"/><path class="cls-7" d="M798.92,293.2c2.74,6.55,2.2,15.17-1.41,23.33-6.59.23-13.27,0-18.3-2.81a6.79,6.79,0,0,1-2.75-2.4,11.74,11.74,0,0,1-.71-3.84,66.66,66.66,0,0,1,.86-16.27c1.77-10,5.24-9.36,8-8.87C791.31,283.49,796.52,287.45,798.92,293.2Z" transform="translate(-0.23 0.18)"/><path class="cls-5" d="M679.73,616.88c13.36,20.37,16,47.68,6.86,69.58-4.91,11.68-12.69,19.82-21.37,22.31-3.4,1-6.41.82-8.25-.44-2.14-1.48-3.31-4.75-4.17-7.75a10.68,10.68,0,0,1-.62-3.74c.19-1.58,1.77-3.47,3.15-5.14,7.65-9.19,14.33-17.63,18.64-27.82,5.22-12.3,5.53-25.15.87-35.26-1.24-2.67-3.85-5.67-7.16-9.46C664.05,615,657.3,607.27,657.61,604c0-.14,0-.27.4-.56a5,5,0,0,1,3.2-1.14,6.51,6.51,0,0,1,1.14.1C668.46,603.43,676.19,611.48,679.73,616.88Z" transform="translate(-0.23 0.18)"/><path class="cls-5" d="M628.42,696.84a10.68,10.68,0,0,1-.62,3.74c-.86,3-2,6.27-4.17,7.75-1.84,1.26-4.85,1.42-8.25.44-8.68-2.49-16.46-10.63-21.37-22.31-9.19-21.9-6.5-49.21,6.86-69.58,3.54-5.4,11.27-13.45,17.38-14.46a5.11,5.11,0,0,1,4.34,1c.38.29.39.42.4.56.31,3.25-6.44,11-10.07,15.14-3.31,3.79-5.92,6.79-7.16,9.46-4.66,10.11-4.35,23,.87,35.26,4.31,10.19,11,18.63,18.64,27.82C626.65,693.37,628.23,695.26,628.42,696.84Z" transform="translate(-0.23 0.18)"/><path class="cls-5" d="M380.47,339.3c3.16,5.32,2,16.43.12,22.61-7,23.33-26.15,43-48.83,50-12.1,3.76-23.34,3-30.84-2-2.94-2-4.75-4.38-5-6.6-.25-2.59,1.5-5.59,3.24-8.18a10.65,10.65,0,0,1,2.46-2.88c1.34-.87,3.8-.89,6-.9,11.95-.06,22.71-.38,33.29-3.64,12.77-3.93,22.8-12,27.53-22,1.25-2.67,1.86-6.59,2.63-11.57.85-5.45,2.42-15.59,5.11-17.45a.5.5,0,0,1,.32-.1,1.51,1.51,0,0,1,.37,0A5.14,5.14,0,0,1,380.47,339.3Z" transform="translate(-0.23 0.18)"/><path class="cls-5" d="M354.08,309.54c0,.48-.07.57-.17.67-2.29,2.33-12.55,2.15-18.07,2-5-.09-9-.16-11.85.62-10.73,2.93-20.37,11.44-26.43,23.35-5,9.86-7.17,20.4-9.29,32.17-.38,2.14-.82,4.56-1.9,5.73a10.84,10.84,0,0,1-3.26,1.93c-2.85,1.27-6.11,2.48-8.61,1.79-2.16-.59-4.22-2.79-5.66-6-3.67-8.25-2.46-19.45,3.33-30.72C283,320,305.64,304.45,329.82,301.56c6.41-.76,17.56,0,22.26,4A5.17,5.17,0,0,1,354.08,309.54Z" transform="translate(-0.23 0.18)"/><path class="cls-8" d="M384.64,306.33c12,14.29,17.1,33,14.32,52.73-2.84,20-13.41,38.62-29.78,52.39-33.55,28.22-81.2,27-106.22-2.78-12-14.29-17.1-33-14.32-52.73,2.84-20,13.41-38.62,29.78-52.39,16.19-13.62,35.67-20.38,54.3-20.38C352.69,283.17,371.69,290.94,384.64,306.33Zm5.53,58.45c.23-.78,5.64-19.23-1.1-30.58A15.22,15.22,0,0,0,379,326.86a10.69,10.69,0,0,0-8.45,1.61c-6.23,4.3-7.87,14.85-9.31,24.15-.54,3.51-1.16,7.48-1.8,8.85C355.86,369,348.06,375.1,338,378.2c-9.27,2.86-19.25,3.14-30.4,3.2-3.19,0-7.56,0-11.36,2.51a19,19,0,0,0-5.3,5.68c-2.74,4.07-5.46,9-4.91,14.73.52,5.29,3.84,10.24,9.35,13.94a38,38,0,0,0,21.53,6.1,61,61,0,0,0,17.85-2.87C360.89,413.35,382.13,391.61,390.17,364.78Zm-29.12-47.57a10.61,10.61,0,0,0,3-8A15.2,15.2,0,0,0,358.58,298c-10-8.58-29.13-6.41-29.94-6.32-27.82,3.32-52.86,20.53-65.37,44.9-4.22,8.22-10.29,24.26-3.56,39.36,2.7,6.07,7,10.18,12.13,11.59a15.81,15.81,0,0,0,4.26.57c4,0,7.77-1.39,11.09-2.87a19.11,19.11,0,0,0,6.51-4.26c3.08-3.32,3.85-7.62,4.41-10.76,2-11,4-20.76,8.37-29.41,4.78-9.4,12.13-16,20.15-18.24,1.46-.4,5.48-.32,9-.26C345.07,322.43,355.74,322.62,361.05,317.21Z" transform="translate(-0.23 0.18)"/><path class="cls-8" d="M639.8,578c38.87,0,70.5,35.66,70.5,79.5S678.67,737,639.8,737s-70.5-35.66-70.5-79.5S600.93,578,639.8,578Zm56,112.32c10.6-25.26,7.65-55.5-7.72-78.92-.44-.68-11.08-16.69-24.11-18.85a15.22,15.22,0,0,0-12.12,3,10.62,10.62,0,0,0-4.21,7.49c-.72,7.54,6.3,15.58,12.49,22.68,2.34,2.67,5,5.7,5.62,7.08,3.48,7.55,3.12,17.45-1,27.16-3.79,8.93-10,16.75-17.12,25.32-2,2.46-4.84,5.82-5.4,10.31a19.15,19.15,0,0,0,.94,7.72c1.35,4.71,3.37,10,8.11,13.23a17,17,0,0,0,9.79,2.85,24.89,24.89,0,0,0,6.9-1C683.87,713.81,692.24,698.84,695.81,690.32Zm-58.4,13a19.15,19.15,0,0,0,.94-7.72c-.56-4.49-3.36-7.85-5.4-10.31-7.12-8.57-13.33-16.39-17.12-25.32-4.11-9.71-4.47-19.61-1-27.16.64-1.38,3.28-4.41,5.62-7.08,6.19-7.1,13.21-15.14,12.49-22.68a10.62,10.62,0,0,0-4.21-7.49,15.22,15.22,0,0,0-12.12-3c-13,2.16-23.67,18.17-24.11,18.85-15.37,23.42-18.32,53.66-7.72,78.92,3.57,8.52,11.94,23.49,27.82,28.06a24.89,24.89,0,0,0,6.9,1,17,17,0,0,0,9.79-2.85C634,713.3,636.06,708,637.41,703.33Z" transform="translate(-0.23 0.18)"/><path class="cls-9" d="M948,316.27c-7.45,17.67-22.44,53-42.41,98.94-.82-5.48-1.51-11-1.94-16.4l-.23-2.86q-.23-2.82-.44-5.64c-1.06-14.09-1.57-28.24,2.77-40.27l3.08-6.7c.51-.9,1.05-1.78,1.64-2.64l-.33-.22,13-28.32a59.85,59.85,0,0,0,22,4.19C946.06,316.35,947,316.32,948,316.27Z" transform="translate(-0.23 0.18)"/><path class="cls-9" d="M825.72,594.5C803.06,644.11,781.1,691,760.23,734.4c-.18-.66-.37-1.32-.54-2q-2.09-7.81-3.38-15c-3.24-17.88-2.78-32.76,1.37-45l4.61-10c.55-.92,1.11-1.82,1.71-2.7l-.36-.24,30.25-65.89a57.68,57.68,0,0,0,16.73,2.65A58.26,58.26,0,0,0,825.72,594.5Z" transform="translate(-0.23 0.18)"/><path class="cls-9" d="M378.58,818.06a228.61,228.61,0,0,1-4.6,24.71c-27.66-54.16-58-116.58-90.36-186A36.64,36.64,0,0,1,296,665c4.9,4.93,11.16,11.22,18.4,15.27a29.42,29.42,0,0,0,13.95,4.09l49.15,107.06C379.58,800,379.62,808.92,378.58,818.06Z" transform="translate(-0.23 0.18)"/><path class="cls-9" d="M181.48,394.72c-1.37,7.22-3.41,14.72-5.62,22.37-20.38-46.86-35.68-82.91-43.23-100.82a59.95,59.95,0,0,0,24.85-4.12l19,41.31-.31.22c.55.8,1.05,1.61,1.53,2.43l3.09,6.73C184.07,372.46,183.64,383.24,181.48,394.72Z" transform="translate(-0.23 0.18)"/><path class="cls-9" d="M1025.66,209l-30.9,53-8.93,15.31a49.93,49.93,0,0,1-9,11.34c-14.48,13.49-35.88,16.82-53.69,6.93a795.2,795.2,0,0,0-186.94-74.78,781.84,781.84,0,0,0-391.72,0A795.2,795.2,0,0,0,157.5,295.6c-22.06,12.25-49.61,4.22-62.73-18.27L54.94,209a53.26,53.26,0,0,1-5.27-40.55,49.67,49.67,0,0,1,23.5-30.67q23.83-13.4,48.16-25.34,4.86-2.4,9.76-4.73C411-25.92,734-15.9,1007.43,137.82a49.67,49.67,0,0,1,23.5,30.67A53.26,53.26,0,0,1,1025.66,209Z" transform="translate(-0.23 0.18)"/><path class="cls-10" d="M812.76,287.41c4.62,11.06,3.72,24.62-2.48,37.22a11,11,0,0,1-10.44,6.82c-1.91.08-3.88.14-5.88.14-7.33,0-15.13-.85-22.13-4.8a21.13,21.13,0,0,1-8.74-8.66,24.3,24.3,0,0,1-2.3-9.59,81.33,81.33,0,0,1,1.05-20c3.95-22.27,19.06-22.12,25.37-21C799,269.61,808.34,276.84,812.76,287.41Zm-15.25,29.12c3.61-8.16,4.15-16.78,1.41-23.33-2.4-5.75-7.61-9.71-14.28-10.86-2.79-.49-6.26-1.09-8,8.87a66.66,66.66,0,0,0-.86,16.27,11.74,11.74,0,0,0,.71,3.84,6.79,6.79,0,0,0,2.75,2.4C784.24,316.57,790.92,316.76,797.51,316.53Z" transform="translate(-0.23 0.18)"/><path class="cls-10" d="M805.22,416c.93,21.77-8.65,41.1-24.38,49.22-8.42,4.36-20.55,5.44-28.64-2a32,32,0,0,1-6.11-8.42l-.4-.7a46.08,46.08,0,0,0-4.37,7.87,140.82,140.82,0,0,0-9.79,30.16c-.34,1.67-.65,3.35-1,5.05-1.67,9-3.41,18.32-8.88,26.64-5.36,8.14-15.12,14-24.76,14a21.55,21.55,0,0,1-11.77-3.4C678,529.9,673.69,520.9,673.88,511c.14-7.33,2.48-14.16,4.54-20.19l.36-1.05c.65-1.92,1.54-4.29,2.56-7,2.92-7.83,6.92-18.56,9.21-28.47,3.32-14.32,1-18.26.51-18.9-1.15-1.49-1.92-1.9-9.29.19-7.1,2-20.31,5.78-28.77-8.51-10.79-18.24-8.17-43.48,6.38-61.4,12.34-15.2,32.34-24.89,54.86-26.58,17.87-1.35,35.72,2.42,50.25,10.59C788.09,362.9,804.08,388.94,805.22,416ZM774,451.88c12-6.21,16.83-22.18,16.28-35.26a66.34,66.34,0,0,0-33.09-53.91c-12-6.73-26.83-9.82-41.78-8.7-18.43,1.38-34.59,9.07-44.35,21.08-10.5,12.93-12.65,31.56-5.11,44.3,2.28,3.86,3.6,4.05,11.75,1.73a40.44,40.44,0,0,1,11-2,17.1,17.1,0,0,1,14.26,7c9.63,12.48,1.55,37.36-7.54,61.78-1,2.64-1.84,4.92-2.42,6.64l-.37,1.07c-1.87,5.47-3.64,10.64-3.73,15.61-.09,4.66,1.63,8.81,4.37,10.57,4.67,3,12.38-.91,15.9-6.26,3.81-5.79,5.2-13.24,6.67-21.14.33-1.77.66-3.54,1-5.29a155.8,155.8,0,0,1,10.84-33.38c3.1-6.8,7.28-14.35,14.82-18.81l3.79-2.24,3.8,2.21c4.7,2.73,7.13,7.06,9.08,10.53a20.71,20.71,0,0,0,3.17,4.7C764.92,454.54,770.25,453.79,774,451.88Z" transform="translate(-0.23 0.18)"/><path class="cls-10" d="M639.8,563c47.15,0,85.5,42.39,85.5,94.5S687,752,639.8,752s-85.5-42.39-85.5-94.5S592.65,563,639.8,563Zm70.5,94.5c0-43.84-31.63-79.5-70.5-79.5s-70.5,35.66-70.5,79.5S600.93,737,639.8,737,710.3,701.34,710.3,657.5Z" transform="translate(-0.23 0.18)"/><path class="cls-10" d="M688.09,611.4c15.37,23.42,18.32,53.66,7.72,78.92-3.57,8.52-11.94,23.49-27.82,28.06a24.89,24.89,0,0,1-6.9,1,17,17,0,0,1-9.79-2.85c-4.74-3.26-6.76-8.52-8.11-13.23a19.15,19.15,0,0,1-.94-7.72c.56-4.49,3.36-7.85,5.4-10.31,7.12-8.57,13.33-16.39,17.12-25.32,4.11-9.71,4.47-19.61,1-27.16-.64-1.38-3.28-4.41-5.62-7.08-6.19-7.1-13.21-15.14-12.49-22.68a10.62,10.62,0,0,1,4.21-7.49,15.22,15.22,0,0,1,12.12-3C677,594.71,687.65,610.72,688.09,611.4Zm-1.5,75.06c9.19-21.9,6.5-49.21-6.86-69.58-3.54-5.4-11.27-13.45-17.38-14.46a6.51,6.51,0,0,0-1.14-.1,5,5,0,0,0-3.2,1.14c-.38.29-.39.42-.4.56-.31,3.25,6.44,11,10.07,15.14,3.31,3.79,5.92,6.79,7.16,9.46,4.66,10.11,4.35,23-.87,35.26-4.31,10.19-11,18.63-18.64,27.82-1.38,1.67-3,3.56-3.15,5.14a10.68,10.68,0,0,0,.62,3.74c.86,3,2,6.27,4.17,7.75,1.84,1.26,4.85,1.42,8.25.44C673.9,706.28,681.68,698.14,686.59,686.46Z" transform="translate(-0.23 0.18)"/><path class="cls-10" d="M663.53,295.78c.7,7,1.24,17.31-2.12,27.12C656.25,338,642,350,625.09,353.58a57.4,57.4,0,0,1-11.82,1.22A69.12,69.12,0,0,1,578.72,345a159,159,0,0,1-15.21-10.49c-6.25-4.69-12.16-9.12-18.78-12.24A53.31,53.31,0,0,0,513.2,318a110.73,110.73,0,0,0-13,3.36,105.24,105.24,0,0,1-16.44,4c-10.39,1.37-24.9-1-31.63-12.27a27.82,27.82,0,0,1-3.64-12.78c-1-17.68,6.72-33.5,22.45-45.76,12.38-9.64,29.39-16.65,46.67-19.23a238.9,238.9,0,0,1,83.3,2.26c29.66,6.07,48.93,18.34,57.28,36.47C661.79,281.81,663,290.17,663.53,295.78ZM652,319.65c2.08-6,2.59-13.31,1.63-22.86-.79-7.79-2.2-13.68-4.44-18.55-6.95-15.07-23.84-25.45-50.21-30.85a228.73,228.73,0,0,0-79.82-2.17c-24.78,3.69-60.68,20.54-60.68,52,0,.82,0,1.65.07,2.49a17.94,17.94,0,0,0,2.25,8.24c4.23,7.09,14.35,8.46,21.73,7.49a96.39,96.39,0,0,0,14.87-3.65,119.85,119.85,0,0,1,14.14-3.63,61.79,61.79,0,0,1,10.61-.91,63.4,63.4,0,0,1,26.89,6c7.55,3.56,14.14,8.51,20.52,13.29a147.62,147.62,0,0,0,14.23,9.84c12.61,7.33,26.92,10,39.29,7.43C636.55,341,647.9,331.47,652,319.65Z" transform="translate(-0.23 0.18)"/><path class="cls-10" d="M638.35,695.61a19.15,19.15,0,0,1-.94,7.72c-1.35,4.71-3.37,10-8.11,13.23a17,17,0,0,1-9.79,2.85,24.89,24.89,0,0,1-6.9-1c-15.88-4.57-24.25-19.54-27.82-28.06-10.6-25.26-7.65-55.5,7.72-78.92.44-.68,11.08-16.69,24.11-18.85a15.22,15.22,0,0,1,12.12,3,10.62,10.62,0,0,1,4.21,7.49c.72,7.54-6.3,15.58-12.49,22.68-2.34,2.67-5,5.7-5.62,7.08-3.48,7.55-3.12,17.45,1,27.16,3.79,8.93,10,16.75,17.12,25.32C635,687.76,637.79,691.12,638.35,695.61Zm-10.55,5a10.68,10.68,0,0,0,.62-3.74c-.19-1.58-1.77-3.47-3.15-5.14-7.65-9.19-14.33-17.63-18.64-27.82-5.22-12.3-5.53-25.15-.87-35.26,1.24-2.67,3.85-5.67,7.16-9.46C616.55,615,623.3,607.27,623,604c0-.14,0-.27-.4-.56a5.11,5.11,0,0,0-4.34-1c-6.11,1-13.84,9.06-17.38,14.46-13.36,20.37-16,47.68-6.86,69.58,4.91,11.68,12.69,19.82,21.37,22.31,3.4,1,6.41.82,8.25-.44C625.77,706.85,626.94,703.58,627.8,700.58Z" transform="translate(-0.23 0.18)"/><path class="cls-10" d="M610.15,831c10.91,4.25,20.71,14.71,18.34,26.49-1.66,8.23-8.34,13.49-15.33,18-5,3.22-10.46,6.55-16.57,8.76a54.09,54.09,0,0,1-18.45,3.11,73.26,73.26,0,0,1-20.69-3.18c-11-3.31-23.74-7.72-30.74-13.84-2.87,1.81-6.36,2.39-9.08,2.85l-.45.07a45.68,45.68,0,0,1-32.82-6.94c-13.16-8.91-20.29-24-26-36.08l-3.72-7.84c-4.86-10.27-9-22.13-2.79-32.09,4.25-6.83,12.91-10.84,22.58-10.46,13.65.54,27.24,9,36.37,22.74a73.35,73.35,0,0,1,4.37,7.51,93.38,93.38,0,0,1,2.53-15.27c4.15-16,13-28.69,25-35.64,6.11-3.55,12.3-5,17.91-4.22,10,1.41,18.43,9.77,22.62,22.37,5.77,17.35,2.55,36.84-7.33,52C588.07,826.46,599.88,827,610.15,831Zm8.54,24.52c1.27-6.31-5.32-12.54-12.16-15.2-15.93-6.19-32.53-.85-41,2.88-12.07,5.31-23.57,12.67-31.63,20.15,3.32,2.64,10.59,6.46,26.42,11.2,8.37,2.5,20.87,4.58,32.87.24,5.14-1.86,10-4.86,14.59-7.77C613.7,863.23,617.82,859.83,618.69,855.52Zm-65.25-17.61c18.21-11.72,27.12-36.91,20.29-57.46-2.29-6.89-7.3-14.61-14.52-15.62-4.25-.6-8.6,1.28-11.5,3-9.5,5.52-16.92,16.27-20.35,29.5-3.33,12.84-2.91,26.86-2.26,39h-.3c.44,1.53.86,3,1.28,4.52.29,1.06,1,2.83,1.68,4.71,1,2.75,2,5.26,2.68,7.55A125.9,125.9,0,0,1,553.44,837.91ZM521.91,861c.31-1.95-2.36-9-3.5-11.95-.83-2.19-1.55-4.08-2-5.57-3.44-12.25-7-24.93-14-35.42-7.36-11-18-17.88-28.44-18.3h-.78c-4.47,0-10.26,1.48-12.93,5.77-3.66,5.88-.36,14.69,3.35,22.52l3.71,7.84c5.49,11.58,11.7,24.7,22.59,32.08a35.4,35.4,0,0,0,25.55,5.36l.47-.07C520.38,862.54,521.65,862.06,521.91,861Z" transform="translate(-0.23 0.18)"/><path class="cls-10" d="M621,517.87a35.11,35.11,0,0,1,.26,9.86c-1.92,16.5-17.33,29.77-33.79,29.77-1,0-1.94,0-2.91-.14-17.52-1.69-31.71-18.56-30.37-36.11,1.67-21.78,17.81-32.4,32.11-33.05S617.36,496.56,621,517.87ZM606.33,526a20,20,0,0,0-.16-5.62c-2.24-13.23-11.77-17.55-19.23-17.19s-16.79,5.58-17.83,19.21c-.72,9.4,7.47,19.13,16.85,20S605.23,535.34,606.33,526Z" transform="translate(-0.23 0.18)"/><path class="cls-10" d="M599.74,401.58c3.42,7.67,1,15.83-2.09,23.51-2.24,5.54-4.74,11.4-8.44,16.74-8.82,12.73-22.24,19.32-32,22.61s-21.14,6.68-30,6.68a29.36,29.36,0,0,1-3-.15c-1.3,3.14-3.81,5.64-5.76,7.58l-.33.33a45.5,45.5,0,0,1-30.77,13.35h-1c-15.49,0-29.66-7.94-41.09-14.35l-7.57-4.23c-9.92-5.56-20.15-12.83-20.87-24.54-.49-8,4.25-16.32,12.36-21.61C440.58,420,456.59,419.1,472,425a74.26,74.26,0,0,1,7.91,3.6,93.33,93.33,0,0,1-6.78-13.92c-5.9-15.47-6-30.93-.26-43.54,2.93-6.43,7.13-11.2,12.16-13.81,8.94-4.63,20.68-2.72,31.4,5.13,14.74,10.8,23.41,28.56,24.12,46.6,8.31-9.32,18.25-15.72,28.94-18.42C580.8,387.75,594.85,390.6,599.74,401.58Zm-11.36,19.76c2.12-5.25,4.22-11.22,2.23-15.69-2.62-5.87-11.6-7.14-18.72-5.34-16.56,4.18-27,18.14-31.75,26.09-6.76,11.33-11.87,24-14.11,34.75,4.23.24,12.38-.87,28-6.18,8.28-2.8,19.68-8.35,26.94-18.84C584.11,431.64,586.35,426.36,588.38,421.34Zm-61.16,7.75c8.06-20.1.73-45.79-16.74-58.59-5.86-4.29-14.42-7.68-20.89-4.32-3.82,2-6.27,6-7.65,9.07-4.56,10-4.38,23.07.49,35.83,4.73,12.41,13.19,23.59,20.75,33.1l-.24.19,3.66,2.94c.85.69,2.43,1.75,4.1,2.86,2.45,1.64,4.65,3.15,6.56,4.6A126.3,126.3,0,0,1,527.22,429.09Zm-15.84,42.38c3.16-3.15,3.92-4.28,3.53-5.26-.87-1.77-7.11-5.94-9.77-7.73-1.94-1.29-3.62-2.42-4.82-3.39-9.91-8-20.15-16.27-31.93-20.77a46.25,46.25,0,0,0-16.45-3.18,31.57,31.57,0,0,0-17.33,4.74c-3.82,2.49-8.16,7.3-7.84,12.63.42,6.91,8.22,12.18,15.78,16.42l7.57,4.24c11.17,6.26,23.83,13.4,37,13.06a35.48,35.48,0,0,0,23.94-10.42Z" transform="translate(-0.23 0.18)"/><path class="cls-10" d="M563,921.16c10.33,10.13,8.52,26.23,7.65,34-.72,6.39-2.39,21.34-14.31,27.33a24.68,24.68,0,0,1-11.22,2.4,51.08,51.08,0,0,1-5.94-.39c-12.53-1.47-21.09-5.61-26.15-12.66-10.68-14.88-3.53-41.71,5.89-52.92,4.1-4.88,10-7.64,17.07-8A38.26,38.26,0,0,1,563,921.16Zm-7.25,32.29c1-8.61,1.24-17.18-3.25-21.57a23.33,23.33,0,0,0-15.78-6c-2.83.14-5,1-6.32,2.65-6.76,8.05-10.63,26.94-5.18,34.53,2.46,3.42,7.6,5.55,15.7,6.5,3.07.36,6.51.58,8.69-.52C553.75,967,555.07,959.62,555.77,953.45Z" transform="translate(-0.23 0.18)"/><path class="cls-10" d="M521.48,690.76c5,12.91,1.18,30.43-12.51,35.93a22.49,22.49,0,0,1-8.38,1.57,29.45,29.45,0,0,1-17.29-6c-5.88-4.36-10.09-10.22-13.8-15.4l-.66-.91c-1.18-1.64-2.6-3.74-4.24-6.16-4.69-6.92-11.11-16.4-17.86-24-9.74-11-14.3-11.43-15.1-11.38-1.88.07-2.67.47-5.23,7.69-2.47,6.95-7.07,19.88-23.63,18.5-21.11-1.79-40.15-18.57-46.31-40.81C351.25,630.9,355,609,366.63,589.66c9.27-15.34,22.69-27.7,37.77-34.8,24.49-11.53,55-9.45,77.67,5.3C500.34,572,510.53,591,508,608.57c-1.34,9.39-7.49,19.89-18.21,22.19a32,32,0,0,1-10.41.1l-.79-.09a45.82,45.82,0,0,0,3.87,8.13,140.74,140.74,0,0,0,18.89,25.46c1.16,1.25,2.36,2.48,3.55,3.72C511.3,674.67,517.88,681.48,521.48,690.76Zm-18.11,22c5.15-2.06,6.44-10.61,4.13-16.58-2.51-6.46-7.78-11.92-13.36-17.69-1.25-1.3-2.5-2.59-3.72-3.9a155.33,155.33,0,0,1-20.91-28.19c-3.74-6.46-7.47-14.25-6.72-23l.37-4.38,4-1.81c5-2.25,9.89-1.72,13.85-1.3a20.06,20.06,0,0,0,5.66.15c3.44-.74,5.92-5.52,6.51-9.64,1.91-13.39-8.31-26.58-19.28-33.71a66.31,66.31,0,0,0-63.11-4.31c-12.44,5.86-23.56,16.15-31.32,29-9.56,15.81-12.67,33.43-8.54,48.35,4.44,16.05,18.37,28.61,33.12,29.86,4.47.38,5.39-.59,8.22-8.58,2.28-6.41,6.1-17.16,18.79-17.65,15.74-.66,31.34,20.4,46,42,1.58,2.34,2.94,4.35,4,5.82l.66.92c3.37,4.7,6.56,9.14,10.55,12.1C496,713,500.35,714,503.37,712.77Z" transform="translate(-0.23 0.18)"/><path class="cls-10" d="M396.12,296.67c14.8,17.6,21.08,40.5,17.69,64.49-3.35,23.68-15.77,45.62-35,61.77-19,16-41.88,23.87-63.94,23.87-24.27,0-47.52-9.57-63.42-28.47-14.8-17.6-21.08-40.5-17.69-64.49,3.35-23.68,15.77-45.62,35-61.77C308.64,258.53,365.77,260.59,396.12,296.67ZM399,359.06c2.78-19.72-2.3-38.44-14.32-52.73-12.95-15.39-31.95-23.16-51.92-23.16-18.63,0-38.11,6.76-54.3,20.38-16.37,13.77-26.94,32.37-29.78,52.39-2.78,19.72,2.3,38.44,14.32,52.73,25,29.75,72.67,31,106.22,2.78C385.55,397.68,396.12,379.08,399,359.06Z" transform="translate(-0.23 0.18)"/><path class="cls-10" d="M389.07,334.2c6.74,11.35,1.33,29.8,1.1,30.58-8,26.83-29.28,48.57-55.44,56.71a61,61,0,0,1-17.85,2.87,38,38,0,0,1-21.53-6.1c-5.51-3.7-8.83-8.65-9.35-13.94-.55-5.73,2.17-10.66,4.91-14.73a19,19,0,0,1,5.3-5.68c3.8-2.47,8.17-2.49,11.36-2.51,11.15-.06,21.13-.34,30.4-3.2,10.09-3.1,17.89-9.2,21.43-16.73.64-1.37,1.26-5.34,1.8-8.85,1.44-9.3,3.08-19.85,9.31-24.15a10.69,10.69,0,0,1,8.45-1.61A15.22,15.22,0,0,1,389.07,334.2Zm-8.48,27.71c1.85-6.18,3-17.29-.12-22.61a5.14,5.14,0,0,0-3.59-2.65,1.51,1.51,0,0,0-.37,0,.5.5,0,0,0-.32.1c-2.69,1.86-4.26,12-5.11,17.45-.77,5-1.38,8.9-2.63,11.57-4.73,10.08-14.76,18.11-27.53,22-10.58,3.26-21.34,3.58-33.29,3.64-2.17,0-4.63,0-6,.9a10.65,10.65,0,0,0-2.46,2.88c-1.74,2.59-3.49,5.59-3.24,8.18.21,2.22,2,4.62,5,6.6,7.5,5,18.74,5.75,30.84,2C354.44,404.88,373.6,385.24,380.59,361.91Z" transform="translate(-0.23 0.18)"/><path class="cls-10" d="M384.77,498.69c.28,6.82.62,15.29-3,23.11-4.79,10.25-16,16.86-27.56,16.86a29.88,29.88,0,0,1-5.72-.55c-12.3-2.43-22.83-12.57-26.2-25.25-4.83-18.18,3.51-40.48,18.58-49.73,11.67-7.15,25.08-5.24,36.8,5.26a18.71,18.71,0,0,1,5.52,7.86,21.82,21.82,0,0,1,1,6.36Zm-16.63,16.76c2.11-4.51,1.87-10.7,1.65-16.15l-.65-16.09a12.54,12.54,0,0,0-.19-2.12s-.18-.5-1.33-1.53c-6.71-6-13.09-7.23-18.95-3.64-9.32,5.72-15,21.49-11.92,33.09,1.9,7.15,7.91,13.06,14.6,14.38S365.49,521.13,368.14,515.45Z" transform="translate(-0.23 0.18)"/><path class="cls-10" d="M364.07,309.17a10.61,10.61,0,0,1-3,8c-5.31,5.41-16,5.22-25.39,5-3.55-.06-7.57-.14-9,.26-8,2.2-15.37,8.84-20.15,18.24-4.41,8.65-6.39,18.44-8.37,29.41-.56,3.14-1.33,7.44-4.41,10.76a19.11,19.11,0,0,1-6.51,4.26c-3.32,1.48-7.1,2.87-11.09,2.87a15.81,15.81,0,0,1-4.26-.57c-5.12-1.41-9.43-5.52-12.13-11.59-6.73-15.1-.66-31.14,3.56-39.36,12.51-24.37,37.55-41.58,65.37-44.9.81-.09,19.91-2.26,29.94,6.32A15.2,15.2,0,0,1,364.07,309.17Zm-10.16,1c.1-.1.19-.19.17-.67a5.17,5.17,0,0,0-2-4c-4.7-4-15.85-4.75-22.26-4C305.64,304.45,283,320,272.17,341.1c-5.79,11.27-7,22.47-3.33,30.72,1.44,3.23,3.5,5.43,5.66,6,2.5.69,5.76-.52,8.61-1.79a10.84,10.84,0,0,0,3.26-1.93c1.08-1.17,1.52-3.59,1.9-5.73,2.12-11.77,4.27-22.31,9.29-32.17,6.06-11.91,15.7-20.42,26.43-23.35,2.84-.78,6.82-.71,11.85-.62C341.36,312.36,351.62,312.54,353.91,310.21Z" transform="translate(-0.23 0.18)"/><path class="cls-11" d="M976.79,288.67c-14.48,13.49-35.88,16.82-53.69,6.93a795.2,795.2,0,0,0-186.94-74.78,781.84,781.84,0,0,0-391.72,0A795.2,795.2,0,0,0,157.5,295.6c-22.06,12.25-49.61,4.22-62.73-18.27L54.94,209a53.26,53.26,0,0,1-5.27-40.55,49.67,49.67,0,0,1,23.5-30.67q23.83-13.4,48.16-25.34c-1.9,18.52-2.33,42.83,8.33,62.39,15.16,27.83,51.43,37,81.46,36.12,29.13-.84,57.21-10.29,85.16-18.53,125.44-37,258.88-50.88,387.89-29.46C790,180.56,892.61,222.74,976.79,288.67Z" transform="translate(-0.23 0.18)"/><path class="cls-12" d="M260.37,146.6c20.2,5,41.43,2.59,62-.41,71.78-10.49,142.54-27.6,214.58-36.11S683.63,102,752.15,125.8C787.29,138,820,156.08,853.7,171.93c14.62,6.89,33.86,12.69,45.33,1.3,7.75-7.69,8-20.72,3.09-30.49s-13.83-16.84-23-22.79c-40.35-26.2-88.8-36.29-136.2-44.52-87-15.1-175.21-25.65-263.49-23-56.77,1.71-113.56,9-168.47,23.68-23.8,6.39-58.85,12.57-78.77,27.59C207.21,122.53,240.21,141.59,260.37,146.6Z" transform="translate(-0.23 0.18)"/><path class="cls-11" d="M144.65,315.63l36.83,79.09c-1.37,7.22-3.41,14.72-5.62,22.37-20.38-46.86-35.68-82.91-43.23-100.82A59.9,59.9,0,0,0,144.65,315.63Z" transform="translate(-0.23 0.18)"/><path class="cls-11" d="M378.58,818.06a228.61,228.61,0,0,1-4.6,24.71c-27.66-54.16-58-116.58-90.36-186A36.64,36.64,0,0,1,296,665c4.9,4.93,11.16,11.22,18.4,15.27Z" transform="translate(-0.23 0.18)"/><path class="cls-11" d="M810.62,596.29a58.26,58.26,0,0,0,15.1-1.79C803.06,644.11,781.1,691,760.23,734.4c-.18-.66-.37-1.32-.54-2q-2.09-7.81-3.38-15Z" transform="translate(-0.23 0.18)"/><path class="cls-11" d="M948,316.27c-7.45,17.67-22.44,53-42.41,98.94-.82-5.48-1.51-11-1.94-16.4l-.23-2.86q-.23-2.82-.44-5.64l33.44-74.6a59.6,59.6,0,0,0,8.72.64C946.06,316.35,947,316.32,948,316.27Z" transform="translate(-0.23 0.18)"/><path class="cls-13" d="M469.16,1074.39a14.52,14.52,0,0,1-2.93,4.81c-3.41,3.71-8.12,4.26-11.47,4.07a24.69,24.69,0,0,1-17.95-9.6c-8.32-11.38-8.28-27.69-7.32-40.63.18-2.47.4-5,.61-7.45,1.2-13.88,2.45-28.23-1.68-42.34C424,968,414.1,956,404.56,944.31c-8.36-10.21-16.27-19.86-20.32-31.15-6.82-19-2-39.65,3.09-61.55,4.66-20,9.46-40.64,5.34-61.08,7.16,15.05,11.55,32.62,11.2,47.06-.44,18.36-8.23,36.58-4.86,54.64,5.21,27.85,34.5,44.78,45.24,71,6.67,16.28,5.56,34.63,3,52-2.38,16.29-5.47,34.56,4.21,47.88A29.61,29.61,0,0,0,469.16,1074.39Z" transform="translate(-0.23 0.18)"/><path class="cls-13" d="M257.05,679.61c0,3.47-.49,5.93-2,7.51-2.08,2.11-6.64,2.67-13.2,1.6-25.11-4.1-53-22.78-55.26-49.3-1.28-15.15,5.43-29.82,12.54-45.35,1.22-2.67,2.44-5.34,3.61-8,11.89-27,13.07-48,3.59-64.49-3.27-5.68-7.54-10.21-11.68-14.59a82.37,82.37,0,0,1-8.37-9.83c-12.75-18.76-5.49-43.46,2.19-69.62,7.9-26.88,16-54.62,2.55-78.38l-20.1-43.78q12.85-7,25.89-13.47c4.41,14.71,8.51,29.55,12.67,44.25,7.28,25.74,13.94,52.86,8.14,79-2.55,11.49-7.45,22.4-9.37,34a68.15,68.15,0,0,0,5,38.84c4.19,9.34,10.44,17.61,15,26.79a81.57,81.57,0,0,1,1.41,68c-3.81,8.63-9.15,16.59-12.25,25.51a54.63,54.63,0,0,0,39.67,71.3Z" transform="translate(-0.23 0.18)"/><path class="cls-13" d="M898.35,465c.74,6.7.79,12-1.32,15.86-2.71,5-8.92,7.75-16.09,10.91-8.15,3.58-17.38,7.63-22.77,16.44-5,8.19-4.85,17.41-4.7,25.55.06,2.86.11,5.56-.05,8.11A42,42,0,0,1,800.65,580c11.75-5.58,21.83-14.28,25.19-26.54,4.65-17-5-36.06,1.88-52.29,6.6-15.69,26.27-22.86,32.63-38.66,7.6-18.87-7-38.61-12.48-58.21-6.11-21.89-.47-45.27,6.84-66.79,5.35-15.75,11.19-33.76,19-50.48q18.15,8.7,36,18.4l-14.3,31.14c-10.34,18.64-8.57,40.85-7,60.62l.22,2.84c1,12.31,3.14,24.49,5.23,36.27C895.57,445.7,897.3,455.46,898.35,465Z" transform="translate(-0.23 0.18)"/><path class="cls-14" d="M774,451.88c-3.71,1.91-9,2.66-11.63.29a20.71,20.71,0,0,1-3.17-4.7c-1.95-3.47-4.38-7.8-9.08-10.53l-3.8-2.21L742.49,437c-7.54,4.46-11.72,12-14.82,18.81a155.8,155.8,0,0,0-10.84,33.38c-.35,1.75-.68,3.52-1,5.29-1.47,7.9-2.86,15.35-6.67,21.14a17.18,17.18,0,0,1-4.28,4.4q5.57-28.1,11.12-56.2c3.1-15.69,7.87-33.59,22.37-40.31,7.43-3.45,16.86-3.56,22.21-9.76,3.47-4,4.29-9.69,3.88-15-1.14-14.61-10.8-27.7-23.26-35.42A68.21,68.21,0,0,0,723,355.66c-2.66-.72-6.82-.85-10.58-1.37,1-.12,1.94-.21,2.92-.28,15-1.12,29.79,2,41.78,8.7a66.34,66.34,0,0,1,33.09,53.91C790.79,429.7,786,445.67,774,451.88Z" transform="translate(-0.23 0.18)"/><path class="cls-14" d="M508.4,705q-17.5-18.78-35-37.58c-7.17-7.69-14.49-15.61-18.55-25.32s-4.24-21.73,2.27-30c2.06-2.61,4.7-4.77,6.37-7.65,3.27-5.66,1.94-13.19-2-18.39s-10.1-8.35-16.38-10.16c-15.17-4.37-31.79-1.66-46.07,5.07a98,98,0,0,0-13.51,7.81,72.45,72.45,0,0,1,25.31-20.37,66.31,66.31,0,0,1,63.11,4.31c11,7.13,21.19,20.32,19.28,33.71-.59,4.12-3.07,8.9-6.51,9.64a20.06,20.06,0,0,1-5.66-.15c-4-.42-8.89-1-13.85,1.3l-4,1.81-.37,4.38c-.75,8.73,3,16.52,6.72,23a155.33,155.33,0,0,0,20.91,28.19c1.22,1.31,2.47,2.6,3.72,3.9,5.58,5.77,10.85,11.23,13.36,17.69A17.75,17.75,0,0,1,508.4,705Z" transform="translate(-0.23 0.18)"/><path class="cls-15" d="M653.48,313.38a36.62,36.62,0,0,1-1.53,6.27C647.9,331.47,636.55,341,623,343.8c-12.37,2.61-26.68-.1-39.29-7.43a147.62,147.62,0,0,1-14.23-9.84c-6.38-4.78-13-9.73-20.52-13.29a63.4,63.4,0,0,0-26.89-6,61.79,61.79,0,0,0-10.61.91,119.85,119.85,0,0,0-14.14,3.63,96.39,96.39,0,0,1-14.87,3.65c-7.38,1-17.5-.4-21.73-7.49a17.94,17.94,0,0,1-2.25-8.24c-.05-.84-.07-1.67-.07-2.49,0-16.12,9.42-28.41,21.94-37.05a31.12,31.12,0,0,0-2.4,8.72,15,15,0,0,0,.41,6.46c1.08,3.32,3.82,5.85,6.8,7.65,20,12.12,46.71-4.17,68.87,3.26,15.91,5.33,25.47,21.44,39.58,30.51,8.52,5.48,18.6,8.26,28.7,9,5.93.46,12.07.23,17.55-2.09C645.17,321.51,649.43,317.5,653.48,313.38Z" transform="translate(-0.23 0.18)"/><path class="cls-16" d="M518.41,849.08c1.14,3,3.81,10,3.5,11.95a1.09,1.09,0,0,1-.24.48c-10.85-8.45-16.31-22.61-23.62-34.59a102.53,102.53,0,0,0-22.34-25.72,33.32,33.32,0,0,0-9.69-6,19.4,19.4,0,0,0-4.65-1c2.94-3.22,7.92-4.38,11.87-4.38H474c10.45.42,21.08,7.26,28.44,18.3,7,10.49,10.55,23.17,14,35.42C516.86,845,517.58,846.89,518.41,849.08Z" transform="translate(-0.23 0.18)"/><path class="cls-16" d="M553.44,837.91a125.9,125.9,0,0,0-23,15.16c-.4-1.31-.88-2.68-1.41-4.14a19,19,0,0,1,1.21-3.31c1.43-3,3.68-5.56,5.77-8.16a99.3,99.3,0,0,0,21-72.59.59.59,0,0,0,0-.13,10.82,10.82,0,0,1,2.27.09c7.22,1,12.23,8.73,14.52,15.62C580.56,801,571.65,826.19,553.44,837.91Z" transform="translate(-0.23 0.18)"/><path class="cls-16" d="M618.69,855.52c-.87,4.31-5,7.71-10.91,11.5-4.56,2.91-9.45,5.91-14.59,7.77-12,4.34-24.5,2.26-32.87-.24-15.83-4.74-23.1-8.56-26.42-11.2l.28-.25c9,1.28,18.27.75,27.39.22,12.57-.74,25.23-1.49,37.42-4.66a66,66,0,0,0,19-8.44A8.82,8.82,0,0,1,618.69,855.52Z" transform="translate(-0.23 0.18)"/><path class="cls-16" d="M514.91,466.21c.29.74-.06,1.56-1.61,3.26a19.74,19.74,0,0,1-2.31-.32c-4.56-.89-8.74-3.09-12.92-5.13-22.1-10.79-47.1-17.8-71.29-15.37,0,0,0-.09,0-.14-.32-5.33,4-10.14,7.84-12.63a31.57,31.57,0,0,1,17.33-4.74,46.25,46.25,0,0,1,16.45,3.18c11.78,4.5,22,12.77,31.93,20.77,1.2,1,2.88,2.1,4.82,3.39C507.8,460.27,514,464.44,514.91,466.21Z" transform="translate(-0.23 0.18)"/><path class="cls-16" d="M527.22,429.09a126.52,126.52,0,0,0-10,25.64c-5.44-11.07-5.95-24.31-7.93-36.71a205.22,205.22,0,0,0-5.19-22.69c-2.95-10.6-6.66-21.57-14.73-29.06l.17-.09c6.47-3.36,15,0,20.89,4.32C528,383.3,535.28,409,527.22,429.09Z" transform="translate(-0.23 0.18)"/><path class="cls-16" d="M588.38,421.34c-2,5-4.27,10.3-7.39,14.79-7.26,10.49-18.66,16-26.94,18.84-14.17,4.82-22.2,6.17-26.72,6.21a6.76,6.76,0,0,1,.91-.71c17.63-11.91,33.85-25.8,49.25-40.49,4.93-4.7,10.09-10.1,10.68-16.89,0-.17,0-.35,0-.52a8.26,8.26,0,0,1,2.4,3.08C592.6,410.12,590.5,416.09,588.38,421.34Z" transform="translate(-0.23 0.18)"/><path class="cls-13" d="M750.07,753.37c-1.64-5.58-3.35-11.35-4.88-17.08-5.77-21.65-7.39-40.22-4.82-56-12.58,11.17-13.94,41.45-13.55,54.66.68,22.37,7.62,46.42-3.11,66.06-7.94,14.54-24.22,23.4-31,38.5-11.2,24.84,7,57.5-8.71,79.8-11.08,15.77-34.27,18.43-46.76,33.11-4.23,5-6.88,10.88-9.26,17a7,7,0,0,0-1.29,2.49,43.8,43.8,0,0,1-12.09,20.24c-4.53,4.3-9.94,7.59-14.39,12a40.62,40.62,0,0,0-11,36.45c1.62,7.9,5.59,15.09,8.4,22.64s4.43,16.14,1.31,23.57c-6.34,15.1-28.1,17.75-36.35,31.9-7.35,12.6-1.3,29.65-8.14,42.54-5.69,10.72-19.11,15.44-31.21,14.39a58.88,58.88,0,0,1-15.24-3.61c4.5,5.92,11.33,10,18.11,13.26,8.79,4.26,18.23,7.76,28,7.74s20-4.12,25.25-12.34c6.69-10.39,4.1-23.91,5.07-36.23,1.1-14,7.94-28.21,20.26-34.9,6.17-3.36,14-5.22,17.21-11.46a18.57,18.57,0,0,0,1.64-5.48c2.13-12.69-1.12-25.58-3.08-38.3s-2.38-26.64,4.57-37.48c4-6.3,10.28-11,13.92-17.58a27.82,27.82,0,0,0,2.65-19.07l.57-1.38c.84-2.05,1.71-4.09,2.64-6.12a2.56,2.56,0,0,1,.11-.24c.22-.49.46-1,.69-1.48l.24-.49c.2-.43.41-.85.63-1.27l.34-.69.57-1.09.48-.88c.16-.3.33-.59.49-.88l.62-1.08A51.39,51.39,0,0,1,658,953c8.68-8.14,19.62-11.83,30.19-15.4,10.29-3.47,20-6.74,26.1-13.77,8.08-9.33,8.6-23.54,9.15-38.58.68-18.6,1.38-37.83,16.72-50.34a66,66,0,0,1,8.73-5.76c4.25-2.48,7.92-4.63,9.64-7.66,1.25-2.21,1.64-5.3,1.85-8C761.93,793.48,756.17,774,750.07,753.37Z" transform="translate(-0.23 0.18)"/><path class="cls-10" d="M1045.4,164.56a64.54,64.54,0,0,0-30.62-39.82A976.89,976.89,0,0,0,783.19,31.05a960.15,960.15,0,0,0-485.78,0A976.89,976.89,0,0,0,65.82,124.74,64.54,64.54,0,0,0,35.2,164.56a68.34,68.34,0,0,0,6.78,52l39.83,68.29a63.15,63.15,0,0,0,33,27.8c5.2,12.41,25.54,60.72,54.53,127.08-6,23-9,46,4.45,65.83a94.21,94.21,0,0,0,9.87,11.69c3.71,3.92,7.2,7.63,9.59,11.78,6.93,12,5.51,28.69-4.31,50.95-1.15,2.6-2.34,5.2-3.53,7.81-7.6,16.6-15.46,33.78-13.84,52.85,2.92,34.47,36.31,57.7,67.79,62.84,4.37.71,17.69,2.88,26.31-5.9,7.31-7.45,6.57-17.6,6-25.75-.15-2-.29-4-.32-5.86,35.19,75.36,67.95,142.45,97.51,199.64-3.44,17.51-5,35.25,1.24,52.59,4.93,13.72,14,24.83,22.84,35.58,9,11,17.46,21.32,21.06,33.64,3.34,11.41,2.27,23.76,1.14,36.84-.22,2.55-.44,5.1-.63,7.64-1.15,15.49-1,35.25,10.16,50.57a39.75,39.75,0,0,0,29.23,15.74c9.3.52,17.6-2.64,23.35-8.91,6.25-6.8,8.17-14.89,8-23.2.38,2.53.66,5.18.86,7.95.53,7.31.47,14.59.41,22.31,0,5.43-.09,11,.09,16.64a208,208,0,0,0,5.82,42.63c2.26,9.26,5.84,21,13.45,30,6.8,8,16.41,13.36,29.37,16.46a70,70,0,0,0,16.22,2c13.91,0,25.89-4.76,34.13-13.86a26.85,26.85,0,0,0,6.33-11,33.34,33.34,0,0,0,1-9.11c0-3.76-.24-7.47-.44-11.06a117.81,117.81,0,0,1-.25-15.53c.59-8.13,3.22-14.71,7-17.61,1.89-1.44,4.46-2.31,7.43-3.31,1.12-.38,2.23-.76,3.33-1.17,13.46-5,22.81-14.79,25.67-26.84s-1.22-23.37-4.82-33.38c-2.83-7.89-5.32-15.33-4.86-22.38,1.29-19.86,20.29-26.86,26.87-46.95.47-1.43,1.15-2.8,1.73-4.2,3.74-9.21,7.28-17.9,13.6-23.82s15.25-8.93,24.73-12.12c11.74-4,23.87-8.06,32.64-18.17,11.54-13.32,12.18-30.88,12.8-47.85.58-16,1.13-31,11.21-39.27a53.66,53.66,0,0,1,6.82-4.43c5.34-3.13,11.4-6.67,15.11-13.2,2.71-4.77,3.43-9.89,3.77-14.25,1.62-20.24-3.32-39.73-8.82-58.63,25.39-52.42,52.5-110.3,80.59-172.14a57.9,57.9,0,0,0,21.34-41c.16-2.72.14-5.42.09-8.05h0c0-.42,0-.85,0-1.27-.13-6.67-.25-13,2.48-17.42,2.95-4.81,9.3-7.6,16-10.55,8.48-3.73,18.09-7.95,23.26-17.5,4.19-7.76,3.93-16.42,3-24.64-.78-7.12-1.9-14.21-3.1-21.18,29.54-67.6,50.32-116.93,55.59-129.49a63.23,63.23,0,0,0,33-27.82l39.83-68.29A68.34,68.34,0,0,0,1045.4,164.56ZM132.63,316.27a59.83,59.83,0,0,0,24.85-4.12l19,41.31-.31.22c.55.8,1.05,1.61,1.53,2.43l3.09,6.73c5.4,15.67.84,34.43-4.9,54.25C155.48,370.23,140.18,334.18,132.63,316.27ZM374,842.77c-27.66-54.16-58-116.58-90.36-186A36.64,36.64,0,0,1,296,665c7.83,7.87,19.09,19.2,32.35,19.36l49.15,107.06C381.4,807.63,378.11,824.75,374,842.77ZM760.23,734.4c-.18-.66-.37-1.32-.54-2-6.6-24.71-7.27-44.47-2-59.92l4.61-10c.55-.92,1.11-1.82,1.71-2.7l-.36-.24,30.25-65.89a58.37,58.37,0,0,0,31.83.86C803.06,644.11,781.1,691,760.23,734.4ZM897,480.88c-2.71,5-8.92,7.75-16.09,10.91-8.15,3.58-17.38,7.63-22.77,16.44-5,8.19-4.85,17.41-4.7,25.55.06,2.86.11,5.56-.05,8.11a42.11,42.11,0,0,1-60.16,35.41L786.39,574l-37.45,81.54c-11.63,20.13-12.85,46.61-3.75,80.72,1.53,5.73,3.24,11.5,4.88,17.08,6.1,20.63,11.86,40.11,10.26,60-.21,2.72-.6,5.81-1.85,8-1.72,3-5.39,5.18-9.64,7.66a66,66,0,0,0-8.73,5.76c-15.34,12.51-16,31.74-16.72,50.34-.55,15-1.07,29.25-9.15,38.58-6.09,7-15.81,10.3-26.1,13.77-10.57,3.57-21.51,7.26-30.19,15.4s-13.05,18.81-17.24,29.1c-.55,1.37-1.11,2.73-1.67,4.08a74.55,74.55,0,0,1-7.25,13.87,88.92,88.92,0,0,0-8.83,8.62c-6.46,7.32-12,16.64-13.08,28.76a39.57,39.57,0,0,0-.11,5.54c.39,8.54,3.27,16.56,5.86,23.79,3.1,8.65,6,16.83,4.3,24.17-2.26,9.51-11.63,13.94-15.56,15.4-1,.35-1.9.68-2.86,1-3.78,1.28-8.06,2.72-12,5.76-10.37,7.88-12.84,21.76-13.39,29.33a134.22,134.22,0,0,0,.23,17.65c.21,3.53.4,6.87.42,10.2a19.72,19.72,0,0,1-.39,4.74,11.27,11.27,0,0,1-2.71,4.39c-9.88,10.9-25.91,9.05-34.59,7-9.5-2.27-16.31-5.94-20.8-11.21-5.4-6.33-8.2-15.78-10.05-23.31a192.21,192.21,0,0,1-5.36-39.29c-.17-5.27-.12-10.72-.08-16,0-4,.06-8,0-12.13-.05-3.8-.18-7.64-.46-11.48-.94-12.94-3.59-27.15-10.74-38.23-5.79-9-20.3-12.23-29.14-6.16v1.82l.27.41c.17,1.2.37,2.35.63,3.46.78,3.43,1.75,7,2.7,10.39,3.79,13.79,7.37,26.81.22,34.59-3.41,3.71-8.12,4.26-11.47,4.07a24.69,24.69,0,0,1-17.95-9.6c-8.32-11.38-8.28-27.69-7.32-40.63.18-2.47.4-5,.61-7.45,1.2-13.88,2.45-28.23-1.68-42.34C424,968,414.1,956,404.56,944.31c-8.36-10.21-16.27-19.86-20.32-31.15-6.82-19-2-39.65,3.09-61.55,4.92-21.12,10-43,4.57-64.51l-.17-.67L337.07,667.35,330.92,669c-7.63,2.09-17.24-7.57-24.27-14.63s-18.43-14.3-29.74-13.83a20.33,20.33,0,0,0-15.12,7.31c-6.34,7.55-5.63,17.26-5.06,25.07.52,7.18.67,11.72-1.72,14.16-2.08,2.11-6.64,2.67-13.2,1.6-25.11-4.1-53-22.78-55.26-49.3-1.28-15.15,5.43-29.82,12.54-45.35,1.22-2.67,2.44-5.34,3.61-8,11.89-27,13.07-48,3.59-64.49-3.27-5.68-7.54-10.21-11.68-14.59a82.37,82.37,0,0,1-8.37-9.83c-12.75-18.76-5.49-43.46,2.19-69.62,7.9-26.88,16-54.62,2.55-78.38l-20.1-43.78c231.85-126.13,507-126.13,738.84,0l-14.3,31.14c-10.34,18.64-8.57,40.85-7,60.62l.22,2.84c1,12.31,3.14,24.49,5.23,36.27,1.68,9.44,3.41,19.2,4.46,28.76C899.09,471.72,899.14,477,897,480.88Zm8.53-65.67c-.82-5.48-1.51-11-1.94-16.4l-.23-2.86c-1.28-15.92-2.59-32.27,2.33-45.91l3.08-6.7c.51-.9,1.05-1.78,1.64-2.64l-.33-.22,13-28.32a59.73,59.73,0,0,0,22,4.19c.95,0,1.91,0,2.86-.08C940.52,333.94,925.53,369.26,905.56,415.21ZM1025.66,209l-39.83,68.29c-13.12,22.49-40.68,30.52-62.73,18.27a795.2,795.2,0,0,0-186.94-74.78,781.84,781.84,0,0,0-391.72,0A795.2,795.2,0,0,0,157.5,295.6c-22.06,12.25-49.61,4.22-62.73-18.27L54.94,209a53.26,53.26,0,0,1-5.27-40.55,49.67,49.67,0,0,1,23.5-30.67c292.5-164.44,641.76-164.44,934.26,0a49.67,49.67,0,0,1,23.5,30.67A53.26,53.26,0,0,1,1025.66,209Z" transform="translate(-0.23 0.18)"/><path class="cls-10" d="M819.94,1036.59l-3.87,2.13a10.73,10.73,0,0,0-4.25,14.57l2.12,3.87a10.1,10.1,0,0,1-17.71,9.72l-2.12-3.87a10.73,10.73,0,0,0-14.58-4.25l-3.87,2.12a10.1,10.1,0,0,1-9.71-17.71l3.87-2.12a10.76,10.76,0,0,0,4.25-14.58l-2.13-3.87a10.1,10.1,0,1,1,17.71-9.71l2.13,3.87a10.75,10.75,0,0,0,14.58,4.25l3.87-2.13a10.1,10.1,0,0,1,9.71,17.71Z" transform="translate(-0.23 0.18)"/><path class="cls-10" d="M59.47,360.76l-3.87,2.12a10.74,10.74,0,0,0-4.25,14.58l2.12,3.87A10.1,10.1,0,0,1,35.76,391l-2.12-3.87a10.74,10.74,0,0,0-14.58-4.25L15.19,385a10.1,10.1,0,1,1-9.71-17.71l3.87-2.12a10.76,10.76,0,0,0,4.25-14.58l-2.13-3.87a10.1,10.1,0,1,1,17.71-9.71l2.13,3.87a10.73,10.73,0,0,0,14.57,4.25l3.88-2.12a10.1,10.1,0,0,1,9.71,17.71Z" transform="translate(-0.23 0.18)"/><path class="cls-10" d="M858.3,885.3A15.83,15.83,0,1,1,836.81,879,15.82,15.82,0,0,1,858.3,885.3Z" transform="translate(-0.23 0.18)"/><path class="cls-10" d="M101.66,485.63a15.83,15.83,0,1,1-21.49-6.26A15.83,15.83,0,0,1,101.66,485.63Z" transform="translate(-0.23 0.18)"/></svg>