<svg xmlns="http://www.w3.org/2000/svg" viewBox="0 0 3510.03 3354.91"><defs><style>.cls-1{isolation:isolate;}.cls-2{fill:#2d5162;}.cls-3{fill:#043348;}.cls-4{fill:#c5dee8;}.cls-19,.cls-21,.cls-24,.cls-4,.cls-9{mix-blend-mode:multiply;}.cls-5{fill:#b6e1f9;}.cls-11,.cls-5{stroke:#262e62;}.cls-11,.cls-12,.cls-13,.cls-14,.cls-15,.cls-17,.cls-23,.cls-26,.cls-5,.cls-7,.cls-8{stroke-miterlimit:10;}.cls-23,.cls-6{fill:#7fc9f1;}.cls-7{fill:#6c73b5;}.cls-13,.cls-14,.cls-23,.cls-7,.cls-8{stroke:#18203a;}.cls-15,.cls-8{fill:#f9b96c;}.cls-12,.cls-13,.cls-14,.cls-15,.cls-8{stroke-width:1.62px;}.cls-9{fill:#def1f9;}.cls-10,.cls-13,.cls-26{fill:#fff;}.cls-11,.cls-12,.cls-14{fill:none;}.cls-12,.cls-26{stroke:#383a1a;}.cls-15{stroke:#5271b6;}.cls-16{fill:#18203a;}.cls-17{fill:#6a71b4;stroke:#1b1d3d;}.cls-18{fill:#3b363c;}.cls-19{opacity:0.68;}.cls-20{fill:#83c6ee;}.cls-21,.cls-25{fill:#d8d8d8;}.cls-22{fill:#6067ad;}.cls-26{stroke-width:0.59px;}</style></defs><g class="cls-1"><g id="Layer_1" data-name="Layer 1"><path class="cls-2" d="M0,0S37.59,184.21,201.06,291.14C630,571.7,1115.28,213.36,1481.33,596.29c247.75,259.18,130,728.85,375.09,988.33,249.74,264.37,869.41,81.23,869.41,671.35,0,175.5-109.5,479.54,11.56,693.75,170.91,302.43,667.38,403.14,772.64,403.22L0,3353Z"/><path class="cls-3" d="M0,880.52C189,900,969,742.71,981.63,1531.86s874.79,447.22,1119.95,774.35c379.75,506.72-544.61,681.05-372.5,1048.2L0,3353Z"/><path class="cls-4" d="M2543.26,1869.93h-801.6a148.89,148.89,0,0,1-148.88-148.88V775.77c103.52,261,68.06,601.8,263.63,808.85C2019.47,1757.22,2340.23,1739.08,2543.26,1869.93Z"/><path class="cls-5" d="M1237.26,2625.39s101.31,202.63,64.47,218a12.86,12.86,0,0,1-2.82.83c-41.63,8.91-196.89-106.07-202.88-142-6.14-36.84-36.84-537.27-36.84-537.27L893.34,1902.5l-3-4.72c6.14-181.14,110.52-218,110.52-218s257.89,218,310.08,451.3C1332.77,2228.7,1237.26,2625.39,1237.26,2625.39Z"/><circle class="cls-6" cx="765.17" cy="926.92" r="204.65" transform="translate(-431.32 812.54) rotate(-45)"/><path class="cls-5" d="M871.92,1934.62s-67.55,303.94-153.51,396-343.85,257.89-343.85,257.89-9.22,171.93-49.13,214.91a19.28,19.28,0,0,1-5.65,4.39c-45.92,22.72-80.31-283.77-80.31-283.77l276.31-386.84,103.89-389.59,6.64-24.87c49.06-34.33,145.12-17.75,195.87,18.51,12.8,9.12,22.69,19.5,28.24,30.61,18.15,36.29,21.74,95.08,22.05,131.16C872.65,1921.94,871.92,1934.62,871.92,1934.62Z"/><path class="cls-7" d="M1031.56,1701.29c-73.68,33.77-125.87,233.33-125.87,233.33H871.92s2.94-12.44.55-31.56c-3-24.47-14.86-59.87-52.75-94.32-15.22-13.84-34.32-24.56-54.8-32.82-54.71-22.23-119.21-27.17-145.25-28.27-7.49-.31-11.79-.31-11.79-.31L611,1679.8c137.09-53.33,318.28-43.66,376.89-38.72,12.25,1.05,19.16,1.87,19.16,1.87Z"/><path class="cls-5" d="M1662.47,1420.37s-61.4,86-181.14,67.54c0,0-134.41,79.7-244.87,110.87-7.61,2.18-15.1,4.08-22.41,5.71-35.43,8-67,9.57-88.85.09-16.06-7-33.25-19.9-50.66-36.51-14.7-14-29.59-30.7-44.14-48.6-66.9-82.43-126.25-191.2-126.25-191.2l144.3-147.37,135.08,261,288.38-19.95Z"/><path class="cls-7" d="M577.81,1009.36s42.35-20.34,60.78,13.43-5.71,60.26-5.71,60.26S593.79,1054.25,577.81,1009.36Z"/><path class="cls-8" d="M715,1106.3s10.07-68-5-135.91,60.66-106.29,100.67-83.06c78,45.3,57.89,188.77-7.55,166.12l6.72,55.66Z"/><path class="cls-5" d="M1059.19,1456.84c-15.75,73.13-36.5,139.26-46.45,169.2-3.56,10.81-5.74,16.91-5.74,16.91l-26.28,2.46L611,1679.8s-52.68-77.49-101.52-166.68c-45.87-83.82-88.36-178-80.5-227.8,8.62-54.74,139.53-144.85,272.84-163.8s253-28.12,345.14,60.92C1094.56,1228.49,1082.22,1350.16,1059.19,1456.84Z"/><path class="cls-5" d="M1260.29,1586.16a144.64,144.64,0,0,1-23.83,12.62,176.53,176.53,0,0,1-20.81,7.43c-18.64,5.4-41.88,8.78-67.42,4.88-62.94-9.58-73.69-43-73.69-43s25.73-34.41,72.3-36.13C1176.59,1530.83,1214.82,1543.08,1260.29,1586.16Z"/><circle class="cls-7" cx="871.92" cy="1246.91" r="42.98" transform="translate(-541.96 1809.02) rotate(-76.72)"/><path class="cls-7" d="M644.53,1088.65c94.5,20.64,184,4.61,271.25-27.46l5.62,55.61c-86.19,15.2-171.55,31.29-282.81,19.58Z"/><path class="cls-9" d="M1215.65,1606.21c-18.64,5.4-41.88,8.78-67.42,4.88-62.94-9.58-73.69-43-73.69-43-14.7-14-29.59-30.7-44.14-48.6l-34.08-150,150.52,162.44,67.21,72.55Z"/><path class="cls-7" d="M626.61,1345s203.86-69,449.47-32.11l-21.49,125.87L677,1472.56Z"/><path class="cls-10" d="M868.84,1257.65a19.94,19.94,0,0,1-19.94-19.45c-.27-10.55-3.39-18.31-9.84-24.41-24.94-23.63-93.47-21.62-153.92-19.86-78.54,2.31-146.38,4.28-163.48-41.33-9.55-25.45-9.23-49.46,1-71.35,18.75-40.3,64.86-57.06,66.81-57.75a20,20,0,0,1,13.42,37.59c-.71.26-32.65,12.25-44.12,37.16-5.5,11.94-5.4,25.14.3,40.34,7.08,18.89,75.2,16.91,124.94,15.45,71.56-2.09,145.56-4.25,182.54,30.77,14.26,13.51,21.75,31.13,22.28,52.39a20,20,0,0,1-19.45,20.45Z"/><path class="cls-11" d="M868.84,1257.65a19.94,19.94,0,0,1-19.94-19.45c-.27-10.55-3.39-18.31-9.84-24.41-24.94-23.63-93.47-21.62-153.92-19.86-78.54,2.31-146.38,4.28-163.48-41.33-9.55-25.45-9.23-49.46,1-71.35,18.75-40.3,64.86-57.06,66.81-57.75a20,20,0,0,1,13.42,37.59c-.71.26-32.65,12.25-44.12,37.16-5.5,11.94-5.4,25.14.3,40.34,7.08,18.89,75.2,16.91,124.94,15.45,71.56-2.09,145.56-4.25,182.54,30.77,14.26,13.51,21.75,31.13,22.28,52.39a20,20,0,0,1-19.45,20.45Z"/><path class="cls-12" d="M560.5,1038.75s17.84,8,20.33,34.4"/><path class="cls-12" d="M515.78,1139.45s14-24.46,39.24-16.83"/><path class="cls-12" d="M613.62,1194.45s-12.69-15.88,0-40"/><path class="cls-12" d="M701.77,1154.41s-16.65,19.4,0,39.06"/><path class="cls-12" d="M826.07,1162.87s10,16.93-16.58,36.67"/><path class="cls-5" d="M1177.52,1341.74s29.15-11.94,50.64,6.48,39.92-24.56-12.28-46S1177.52,1341.74,1177.52,1341.74Z"/><path class="cls-5" d="M1202,1329.46s29.16-11.94,50.65,6.48,39.91-24.56-12.28-46S1202,1329.46,1202,1329.46Z"/><rect class="cls-7" x="1102.71" y="1380.19" width="554.07" height="40.94" transform="translate(2759.5 2801.33) rotate(180)"/><polygon class="cls-7" points="1274.1 1421.14 1637.08 1421.14 1733.88 1108.75 1370.9 1108.75 1274.1 1421.14"/><path class="cls-9" d="M1076.08,1446l-41.42,166.77L1012.74,1626l-24.9,15-7.12,4.33-158.54,95.88-57.26,34.63-52.37,31.65-87.63,366.52L277,2558.44l42.79,249.41c-45.92,22.72-80.31-283.77-80.31-283.77l276.31-386.84,103.89-389.59c-7.49-.31-11.79-.31-11.79-.31L611,1679.8s-52.68-77.49-101.52-166.68L858.13,1586l201.06-129.19Z"/><polygon class="cls-13" points="1298.51 1421.14 1661.49 1421.14 1758.28 1108.75 1395.3 1108.75 1298.51 1421.14"/><path class="cls-5" d="M1148.23,1391.2s-8.23,10.9-22.51,28.53c-21.06,25.91-55.2,66.37-95.48,108.1-35.27,36.56-75.31,74.08-115.34,103.61-32.55,24-65.09,42.74-95.18,51.43-13.54,3.9-37.36,2.42-67.72-4.46-29.66-6.69-65.55-18.51-104.23-35.46a792.74,792.74,0,0,1-153.48-89c-58.55-43.56-88.7-104.6-96.09-158.54-9.37-67.67,17.16-124.16,68.46-120.84,57.26,3.68,170.08,74,250.89,129.53,53.51,36.75,93,67,93,67l122.5-67h0l141.5-77.34Z"/><path class="cls-5" d="M1074.54,1326.73s82.9-82.89,171.93-52.19,33.77,58.33,0,39.91-98.24,76.75-98.24,76.75Z"/><path class="cls-14" d="M717.53,1404.08S607.8,1526.29,647.75,1643"/><path class="cls-14" d="M752,1678.42s-12.1-75.38,67.72-90.73,95.18,43.75,95.18,43.75"/><line class="cls-14" x1="810.51" y1="1471.03" x2="819.72" y2="1584.62"/><path class="cls-14" d="M933,1404.08s83.66-3.66,97.25,123.75"/><polygon class="cls-15" points="497.36 1452.61 546.48 1354.36 595.6 1391.2 546.48 1489.45 497.36 1452.61"/><path class="cls-16" d="M717.46,1025.39s-83-97.79-10-115.41c0,0-25.17-32.72,30.2-57.89s108.23-22.65,108.23-22.65,12.58,78-42.79,90.61-40.27,55.37-40.27,55.37l-15.1,5L715,952.77C722.94,983,722,1005.73,717.46,1025.39Z"/><path class="cls-8" d="M726.86,962.81s-34.52-17.59-32,0,5,37.75,32.72,22.65"/><path class="cls-10" d="M890.34,817.09s46,156.58-18.42,245.61l43-15.35S964,943,914.9,817.09Z"/><path class="cls-10" d="M678.5,764.9S546.48,811,580.25,946C580.25,946,620.16,826.3,678.5,764.9Z"/><polygon class="cls-5" points="1452.17 1418.84 1481.34 1490.98 1432.99 1514.77 1391.33 1427.48 1452.17 1418.84"/><line class="cls-14" x1="1185.07" y1="1440.33" x2="1166.65" y2="1526.29"/><path class="cls-14" d="M677.41,2369.53s-57.25-69.57-32.68-164.74,164.76-53.12,164.76-53.12"/><line class="cls-14" x1="515.78" y1="2143.39" x2="644.73" y2="2204.79"/><path class="cls-14" d="M239.47,2524.08s82.89-6.14,135.09,64.47"/><path class="cls-14" d="M1096,2702.15s67.55-67.55,141.23-76.76"/><path class="cls-14" d="M1274.1,2025.63s-52.19,47.14-52.19,148.46S1301,2306.21,1301,2306.21"/><line class="cls-14" x1="1074.54" y1="2164.88" x2="1221.91" y2="2143.39"/><path class="cls-14" d="M570.67,1931.42s144.16-38.93,276.43,100.33"/><path class="cls-14" d="M969.84,2023.53S1007,1880,1166.65,1855.1"/><path class="cls-14" d="M395.09,2306.21s50.48,147,165.41,154.82"/><path class="cls-14" d="M1076.08,2431.47s72.24,40.39,198.07,25.05"/><polygon class="cls-5" points="701.77 1704.03 970.16 1679.8 970.16 1704.03 712.27 1731.99 701.77 1704.03"/><path class="cls-16" d="M1578.22,1282.4c-4.86,16-21.78,29-37.79,29s-25-13-20.17-29,21.78-29,37.79-29c.81,0,1.61,0,2.39.11-3.12,14.07,4.69,25.3,18.42,26.45C1578.68,1280.77,1578.47,1281.59,1578.22,1282.4Z"/><path class="cls-16" d="M1560.65,1252.15c-13.72-1.16-21.53-12.38-18.41-26.46C1556,1226.85,1563.77,1238.08,1560.65,1252.15Z"/><path class="cls-9" d="M1298.91,2844.2c-41.63,8.91-196.89-106.07-202.88-142-6.14-36.84-36.84-537.27-36.84-537.27L893.34,1902.5l47.16-70.7s221.88,201.57,207.73,424.75C1120.33,2696.28,1250.74,2734.35,1298.91,2844.2Z"/><path class="cls-9" d="M1125.72,1419.73c-21.06,25.91-55.2,66.37-95.48,108.1-35.27,36.56-75.31,74.08-115.34,103.61-32.55,24-65.09,42.74-95.18,51.43-13.54,3.9-37.36,2.42-67.72-4.46-29.66-6.69-65.55-18.51-104.23-35.46a792.74,792.74,0,0,1-153.48-89c-58.55-43.56-88.7-104.6-96.09-158.54,38.8,25,91.48,58.64,146.44,92.69l1.93,1.19c32.33,20,65.4,40.13,96.87,58.67,48.17,28.43,92.53,53.21,124.61,68.35,23.4,11.08,40.28,17,47.34,15.5,9.83-2.09,34.57-16.67,67.24-38.19,39.79-26.25,91.31-62.76,141.78-99.38C1060.24,1468.2,1095.54,1442.17,1125.72,1419.73Z"/><path class="cls-17" d="M2330.58,2970.15A1554.89,1554.89,0,0,0,1648.85,2688l-.3,0c-.91-.16-1.82-.29-2.73-.42a1.17,1.17,0,0,0-.26,0,1581.9,1581.9,0,0,0-465.28-1.17c-3.4.48-6.82,1-10.22,1.54s-6.86,1-10.26,1.6q-19.65,3.15-39.1,6.78l-.37.06c-1.36.26-2.75.54-4.11.78-3.1.59-6.17,1.17-9.25,1.78s-6.19,1.21-9.28,1.84q-69.59,14.06-136.82,34.18c-6.56,2-13.1,4-19.63,6l-.09,0a1554.46,1554.46,0,0,0-293.42,126.38A1570.78,1570.78,0,0,0,119.3,3349.43H520.37a3.23,3.23,0,0,0,3,3.05c4.4.31,9,.46,13.66.46a252.09,252.09,0,0,0,28-1.63,3.24,3.24,0,0,0,2.6-1.88H1232.3c6.12,1.73,12.4,3.38,18.77,4.89a2.75,2.75,0,0,0,.75.09,3.24,3.24,0,0,0,3.16-2.49,3.09,3.09,0,0,0-.43-2.49h279.5a2.89,2.89,0,0,0,.09,1.13,3.23,3.23,0,0,0,3.14,2.44,3.74,3.74,0,0,0,.8-.08c4.39-1.11,8.76-2.28,13.05-3.49H2698.64A1571.56,1571.56,0,0,0,2330.58,2970.15Z"/><ellipse class="cls-3" cx="2124.68" cy="3110.81" rx="89.49" ry="203.49" transform="translate(-1586.7 3756.63) rotate(-65.54)"/><ellipse class="cls-3" cx="689.4" cy="3177.92" rx="203.49" ry="89.49" transform="translate(-1496.6 770.46) rotate(-30)"/><path class="cls-18" d="M835.83,3003.79h-.06a279.72,279.72,0,0,0-41.37,4.14,3.24,3.24,0,0,0-2.67,3.74,3.27,3.27,0,0,0,3.21,2.71,2.48,2.48,0,0,0,.54-.06,278,278,0,0,1,40.42-4,3.25,3.25,0,0,0-.07-6.5Zm79.75,22c-9.61-8.49-22.45-14.61-38.16-18.23a3.24,3.24,0,1,0-1.45,6.32c14.65,3.38,26.54,9,35.31,16.78a3.26,3.26,0,0,0,2.14.82,3.2,3.2,0,0,0,2.44-1.1A3.24,3.24,0,0,0,915.58,3025.81ZM758,3019.36a3.26,3.26,0,0,0-4-2.23c-12.84,3.61-26.09,8-39.32,12.95a3.24,3.24,0,0,0,1.15,6.27,3.64,3.64,0,0,0,1.15-.19c13-4.92,26.11-9.22,38.79-12.8A3.24,3.24,0,0,0,758,3019.36Zm-77.17,28.29a3.26,3.26,0,0,0-4.31-1.58c-12.32,5.7-24.74,11.95-36.91,18.62a3.25,3.25,0,0,0,1.56,6.11,3.4,3.4,0,0,0,1.56-.39c12-6.61,24.33-12.82,36.52-18.45A3.25,3.25,0,0,0,680.81,3047.65Zm254.28,15.92a3.23,3.23,0,0,0-3.6-2.86,3.28,3.28,0,0,0-2.85,3.61,66,66,0,0,1,.43,7.54c0,9.63-2,20.17-5.93,31.36a3.25,3.25,0,0,0,2,4.16,3.79,3.79,0,0,0,1.08.17,3.24,3.24,0,0,0,3.07-2.16c4.18-11.89,6.3-23.16,6.3-33.53A70.24,70.24,0,0,0,935.09,3063.57Zm-326.61,23.16a3.24,3.24,0,0,0-4.48-1c-11.73,7.45-23.21,15.33-34.12,23.38a3.26,3.26,0,0,0-.69,4.55,3.33,3.33,0,0,0,2.62,1.32,3.27,3.27,0,0,0,1.93-.65c10.8-8,22.14-15.74,33.75-23.12A3.25,3.25,0,0,0,608.48,3086.73Zm-66.37,48.51a3.25,3.25,0,0,0-4.57-.32c-10.76,9.28-20.91,18.85-30.13,28.42a3.24,3.24,0,1,0,4.65,4.5c9.11-9.41,19.09-18.85,29.72-28A3.27,3.27,0,0,0,542.11,3135.24Zm367.48,3a3.25,3.25,0,0,0-4.48,1,294,294,0,0,1-24.34,32.58,3.25,3.25,0,0,0,4.94,4.22,296.19,296.19,0,0,0,24.87-33.32A3.26,3.26,0,0,0,909.59,3138.27Zm-52.35,63.24a3.22,3.22,0,0,0-4.59-.11c-8.81,8.38-18.27,16.73-28.23,24.83-.84.69-1.69,1.36-2.53,2.06a3.24,3.24,0,0,0,2,5.76,3.16,3.16,0,0,0,2-.72c2.29-1.86,4.59-3.72,6.84-5.61,8.51-7.08,16.69-14.33,24.33-21.62A3.25,3.25,0,0,0,857.24,3201.51Zm-372.43-7.41a3.23,3.23,0,0,0-4.55.61,246.24,246.24,0,0,0-22.62,35,3.23,3.23,0,0,0,1.36,4.38,3.15,3.15,0,0,0,1.52.36,3.23,3.23,0,0,0,2.87-1.73,241.6,241.6,0,0,1,22-34A3.26,3.26,0,0,0,484.81,3194.1Zm308.81,59.45a3.24,3.24,0,0,0-4.51-.82c-11.06,7.64-22.64,15.09-34.42,22.1a3.25,3.25,0,0,0,1.67,6,3.31,3.31,0,0,0,1.65-.45c11.9-7.11,23.61-14.62,34.78-22.37A3.2,3.2,0,0,0,793.62,3253.55Zm-70.36,42.5a3.26,3.26,0,0,0-4.37-1.41c-12.28,6.25-24.73,12.08-37.06,17.32a3.25,3.25,0,0,0-1.71,4.26,3.22,3.22,0,0,0,3,2,3.13,3.13,0,0,0,1.28-.24c12.47-5.3,25.07-11.21,37.45-17.53A3.27,3.27,0,0,0,723.26,3296.05Zm-238.41,41.47c-13.4-5.65-23.32-13.89-29.44-24.5a2.93,2.93,0,0,1-2.25-4.38,57.1,57.1,0,0,1-4.88-23.81,80.54,80.54,0,0,1,1.41-14.57,3.24,3.24,0,1,0-6.38-1.17,87.24,87.24,0,0,0-1.52,15.74,63.54,63.54,0,0,0,5.46,26.5,3.57,3.57,0,0,1,2.53,4.93c6.86,11.87,17.79,21,32.56,27.26a3.29,3.29,0,0,0,1.25.26,3.26,3.26,0,0,0,1.26-6.26Zm162.9-9a3.25,3.25,0,0,0-4.11-2.06c-13.32,4.49-26.52,8.27-39.25,11.28a3.25,3.25,0,0,0,.76,6.41,3.56,3.56,0,0,0,.73-.09c12.93-3,26.33-6.9,39.84-11.43A3.27,3.27,0,0,0,647.75,3328.56Zm-83.45,16.28a228.11,228.11,0,0,1-40.49,1.17,3.24,3.24,0,0,0-3.46,3,2.68,2.68,0,0,0,0,.41,3.23,3.23,0,0,0,3,3.05c4.4.31,9,.46,13.66.46a252.09,252.09,0,0,0,28-1.63,3.24,3.24,0,0,0,2.6-1.88,3.18,3.18,0,0,0,.28-1.71A3.3,3.3,0,0,0,564.3,3344.84Z"/><ellipse class="cls-3" cx="1390.8" cy="3232.04" rx="230.02" ry="101.15"/><ellipse class="cls-3" cx="1620.27" cy="2812.07" rx="67.66" ry="153.86" transform="translate(-1364.72 4085.96) rotate(-83.16)"/><path class="cls-18" d="M1699.62,2916.92c-13.12,1-26.8,1.45-40.79,1.23h-.06a3.25,3.25,0,0,0,0,6.5c2.54,0,5.07,0,7.58,0,11.5,0,22.88-.43,33.84-1.3a3.25,3.25,0,1,0-.52-6.47Zm-81.55-1.21c-2.92-.31-5.87-.63-8.81-1-10.63-1.27-21.28-2.9-31.63-4.82a3.25,3.25,0,1,0-1.19,6.38c10.48,1.95,21.26,3.6,32,4.89,3,.35,6,.7,8.92,1a2.06,2.06,0,0,0,.34,0,3.24,3.24,0,0,0,.33-6.47Zm165.07-13.64a3.24,3.24,0,0,0-4.2-1.84,236.18,236.18,0,0,1-39,11.15,3.25,3.25,0,0,0,.65,6.43,3.07,3.07,0,0,0,.65-.07,241.24,241.24,0,0,0,40-11.45A3.27,3.27,0,0,0,1783.14,2902.07Zm-245.3-1.43a380.7,380.7,0,0,1-38.62-13.07,3.25,3.25,0,1,0-2.4,6,389.32,389.32,0,0,0,39.27,13.3,3.32,3.32,0,0,0,.88.11,3.24,3.24,0,0,0,.87-6.37Zm292.51-87.28a3.25,3.25,0,0,0-5.48,3.48c5.74,9,8.64,18.06,8.64,26.84a39.58,39.58,0,0,1-.28,4.75c-1.41,11.73-8,22.55-19.53,32.23a3.25,3.25,0,0,0,2.1,5.74,3.17,3.17,0,0,0,2.08-.76c12.86-10.76,20.18-23,21.8-36.44a46.08,46.08,0,0,0,.33-5.52C1840,2833.64,1836.76,2823.44,1830.35,2813.36Zm-367.74,56.56c-12.88-7.47-23.81-15.45-32.49-23.77a3.26,3.26,0,0,0-4.51,4.7,179,179,0,0,0,33.75,24.7,3.16,3.16,0,0,0,1.63.43,3.25,3.25,0,0,0,1.62-6.06Zm-47.34-92.46a3.25,3.25,0,1,0-5.31-3.76,49.63,49.63,0,0,0-9.09,22.88,46.44,46.44,0,0,0-.32,5.52,49.11,49.11,0,0,0,1.88,13.35,3.1,3.1,0,0,0,.78,1.35,3.14,3.14,0,0,0,2.34,1,4.24,4.24,0,0,0,.88-.1,3.23,3.23,0,0,0,2.06-1.8,3.11,3.11,0,0,0,.2-2.21,42.32,42.32,0,0,1-1.65-11.6,39.41,39.41,0,0,1,.28-4.74A43,43,0,0,1,1415.27,2777.46Zm385.73,5.76a228.34,228.34,0,0,0-35.72-21.47,3.25,3.25,0,1,0-2.88,5.82,220.37,220.37,0,0,1,34.7,20.85,3.18,3.18,0,0,0,2,.65,3.25,3.25,0,0,0,2-5.85Zm-315.27-48.77a3.28,3.28,0,0,0-4-2.3,194,194,0,0,0-39,14.83,3.25,3.25,0,0,0,1.51,6.13,3.32,3.32,0,0,0,1.49-.37,187.19,187.19,0,0,1,37.74-14.31A3.26,3.26,0,0,0,1485.73,2734.45Zm241.16,11.45c-12.64-4.35-26-8.25-39.81-11.52a3.24,3.24,0,1,0-1.51,6.3c13.57,3.25,26.75,7.06,39.2,11.37a3.61,3.61,0,0,0,1.06.17,3.25,3.25,0,0,0,1.06-6.32Zm-80.46-19.38c-1.13-.17-2.25-.32-3.4-.47q-5.46-.78-11-1.45c-8.9-1.06-17.9-1.91-26.78-2.49a3.24,3.24,0,1,0-.43,6.47c8.77.59,17.64,1.41,26.45,2.47,2.13.26,4.27.52,6.41.82,2.62.33,5.22.69,7.77,1.08a2.7,2.7,0,0,0,.48.05,3.26,3.26,0,0,0,.48-6.48Zm-82.57-5.32a397.15,397.15,0,0,0-41.33,3.05,3.24,3.24,0,0,0,.39,6.45,3.17,3.17,0,0,0,.44,0,400.61,400.61,0,0,1,40.67-3,3.24,3.24,0,0,0,3.16-3.33A3.3,3.3,0,0,0,1563.86,2721.2Z"/><path class="cls-18" d="M1444.73,3097.16c-13.57-1.08-27.45-1.75-41.28-2h-.07a3.25,3.25,0,0,0-.06,6.5c13.7.23,27.47.88,40.89,2h.26a3.25,3.25,0,0,0,.26-6.48Zm-82.63-1.45c-13.86.61-27.73,1.67-41.22,3.12a3.24,3.24,0,0,0,.35,6.47,1.88,1.88,0,0,0,.34,0c13.36-1.43,27.09-2.49,40.83-3.07a3.25,3.25,0,1,0-.3-6.5Zm164.4,13.68c-13.1-3-26.78-5.49-40.68-7.57a3.25,3.25,0,0,0-1,6.43c13.74,2,27.25,4.56,40.2,7.49a4.25,4.25,0,0,0,.71.06,3.25,3.25,0,0,0,.72-6.41Zm-242.79-2a3.25,3.25,0,0,0-3.77-2.62c-13.89,2.49-27.49,5.5-40.41,8.92a3.24,3.24,0,0,0,.82,6.38,4,4,0,0,0,.84-.1c12.75-3.38,26.18-6.35,39.9-8.82A3.22,3.22,0,0,0,1283.71,3107.34Zm321.5,27.75a364.39,364.39,0,0,0-38.75-14.83,3.24,3.24,0,1,0-2,6.17,364.27,364.27,0,0,1,38,14.57,3.23,3.23,0,0,0,1.35.3,3.25,3.25,0,0,0,1.34-6.21Zm-401-7.08a3.24,3.24,0,0,0-4.18-1.9,315.7,315.7,0,0,0-38,16.88,3.25,3.25,0,0,0,1.51,6.11,3.16,3.16,0,0,0,1.52-.37,311.5,311.5,0,0,1,37.19-16.54A3.26,3.26,0,0,0,1204.18,3128Zm469.16,54.56c-8.21-9.66-18.84-18.88-31.63-27.45a3.25,3.25,0,1,0-3.62,5.39c12.3,8.24,22.49,17.08,30.29,26.26a3.26,3.26,0,0,0,4.59.36A3.23,3.23,0,0,0,1673.34,3182.57Zm-541.62-16.28a3.24,3.24,0,0,0-4.57-.44c-12.08,10-21.41,20.59-27.69,31.63a3.24,3.24,0,0,0,1.22,4.42,3.08,3.08,0,0,0,1.6.43,3.22,3.22,0,0,0,2.81-1.64c5.91-10.33,14.72-20.38,26.2-29.84A3.23,3.23,0,0,0,1131.72,3166.29Zm560.75,53.92a3.24,3.24,0,1,0-6.36,1.24,59.84,59.84,0,0,1,1.06,11.08c0,12.45-4,24.77-11.91,36.65a3.24,3.24,0,0,0,2.71,5,3.17,3.17,0,0,0,2.7-1.45c8.62-13,13-26.49,13-40.24A64,64,0,0,0,1692.47,3220.21Zm-581.08,53.62a82.42,82.42,0,0,1-6.58-10,65.07,65.07,0,0,1-8.38-25.7,3.24,3.24,0,0,0-6.45.61A69.55,69.55,0,0,0,1097,3263a90.6,90.6,0,0,0,9.16,14.74,3.29,3.29,0,0,0,2.59,1.28,3.17,3.17,0,0,0,2-.67A3.25,3.25,0,0,0,1111.39,3273.83Zm540.69,24.55a3.27,3.27,0,0,0-4.55-.6,219.76,219.76,0,0,1-34.44,21.23,3.26,3.26,0,0,0-1.45,4.36,3.25,3.25,0,0,0,4.35,1.45,225.29,225.29,0,0,0,35.48-21.87A3.26,3.26,0,0,0,1652.08,3298.38Zm-476.55,23.21a233.73,233.73,0,0,1-35-20.35,3.26,3.26,0,0,0-4.53.76,3.23,3.23,0,0,0,.76,4.52,241.29,241.29,0,0,0,36,20.94,3.34,3.34,0,0,0,1.41.3,3.2,3.2,0,0,0,2.92-1.84A3.25,3.25,0,0,0,1175.53,3321.59Zm404.2,15.24a3.27,3.27,0,0,0-4.16-2c-12.27,4.37-25.43,8.31-39.07,11.76a3.23,3.23,0,0,0-2.45,2.81,2.89,2.89,0,0,0,.09,1.13,3.23,3.23,0,0,0,3.14,2.44,3.74,3.74,0,0,0,.8-.08c4.39-1.11,8.76-2.28,13.05-3.49,9.2-2.6,18.12-5.43,26.63-8.44A3.26,3.26,0,0,0,1579.73,3336.83Zm-325.18,12.6a3.09,3.09,0,0,0-2-1.43c-13.68-3.25-26.89-7-39.27-11.21a3.25,3.25,0,0,0-2.08,6.15c6.8,2.29,13.84,4.46,21.07,6.49,6.12,1.73,12.4,3.38,18.77,4.89a2.75,2.75,0,0,0,.75.09,3.24,3.24,0,0,0,3.16-2.49A3.09,3.09,0,0,0,1254.55,3349.43Z"/><path class="cls-18" d="M2270.26,3269.76a3.23,3.23,0,0,0-3.94-2.33,212.6,212.6,0,0,1-40,6.06,3.25,3.25,0,0,0,.19,6.49.68.68,0,0,0,.2,0,215.72,215.72,0,0,0,41.22-6.23A3.26,3.26,0,0,0,2270.26,3269.76Zm-84.55,3a329.72,329.72,0,0,1-40.23-6.17,3.27,3.27,0,0,0-3.85,2.52,3.24,3.24,0,0,0,2.49,3.85,340.42,340.42,0,0,0,41,6.28h.28a3.25,3.25,0,0,0,.29-6.48Zm-79.54-16.93c-10.24-3.39-20.5-7.29-30.59-11.6q-3.73-1.59-7.4-3.25a3.24,3.24,0,0,0-3,5.7,2.82,2.82,0,0,0,.38.21,411.31,411.31,0,0,0,38.6,15.09,3,3,0,0,0,1,.18,3.28,3.28,0,0,0,3.08-2.23A3.25,3.25,0,0,0,2106.17,3255.84Zm231.9-29.76a3.25,3.25,0,0,0-4.55.63,100.66,100.66,0,0,1-29.94,25.87,3.25,3.25,0,1,0,3.25,5.62,107,107,0,0,0,31.86-27.58A3.23,3.23,0,0,0,2338.07,3226.08Zm-306.17-3.7a378.81,378.81,0,0,1-34.14-22.28,3.25,3.25,0,0,0-3.84,5.24,387.71,387.71,0,0,0,34.73,22.67,3.33,3.33,0,0,0,1.62.43,3.25,3.25,0,0,0,1.63-6.06Zm323.2-72.44a3.25,3.25,0,1,0-6.36,1.3,110,110,0,0,1,2.34,22.19,93.26,93.26,0,0,1-1.61,17.41,3.23,3.23,0,0,0,2.58,3.78,2.66,2.66,0,0,0,.61.07,3.22,3.22,0,0,0,3.18-2.64,99.45,99.45,0,0,0,1.73-18.62A117.63,117.63,0,0,0,2355.1,3149.94Zm-388.67,24.14a281.3,281.3,0,0,1-27.54-29.85,3.24,3.24,0,1,0-5.08,4,286.22,286.22,0,0,0,28.18,30.57,3.28,3.28,0,0,0,2.23.87,3.24,3.24,0,0,0,2.21-5.61Zm374.43-63.52a203.94,203.94,0,0,0-10.7-18.38c-3.63-5.58-7.62-11.14-11.92-16.64a3.24,3.24,0,0,0-5.11,4,231.31,231.31,0,0,1,13.74,19.57q4.52,7.21,8.21,14.42a3.25,3.25,0,0,0,2.88,1.75,3.41,3.41,0,0,0,1.49-.34A3.28,3.28,0,0,0,2340.86,3110.56Zm-424.15-.17a150.86,150.86,0,0,1-14-37.6,3.23,3.23,0,0,0-3.86-2.49,3.27,3.27,0,0,0-2.49,3.87A158,158,0,0,0,1911,3113.4a3.25,3.25,0,0,0,2.88,1.75,3.16,3.16,0,0,0,1.49-.39A3.26,3.26,0,0,0,1916.71,3110.39Zm373.49-65.55a341.65,341.65,0,0,0-31.8-26.67,3.25,3.25,0,1,0-3.87,5.22,333.2,333.2,0,0,1,31.21,26.15,3.2,3.2,0,0,0,2.23.88,3.22,3.22,0,0,0,2.23-5.58ZM1916,2992.52a3.22,3.22,0,0,0-4.52.69,90.7,90.7,0,0,0-9.59,16.34,92,92,0,0,0-6.93,22.54,3.24,3.24,0,0,0,2.64,3.74,2.05,2.05,0,0,0,.56.05,3.24,3.24,0,0,0,3.19-2.69,87,87,0,0,1,6.45-21,84.73,84.73,0,0,1,8.9-15.18A3.25,3.25,0,0,0,1916,2992.52Zm307.75,2.85a403.27,403.27,0,0,0-36.82-19l-2.75-1.25a3.27,3.27,0,0,0-4.29,1.64,3.24,3.24,0,0,0,1.65,4.29l2.71,1.23a399.44,399.44,0,0,1,36.23,18.75,3.37,3.37,0,0,0,1.63.43,3.24,3.24,0,0,0,1.64-6Zm-238.11-43.81a3.23,3.23,0,0,0-4-2.3,150.77,150.77,0,0,0-38.75,15.94,3.23,3.23,0,0,0,1.67,6,3.12,3.12,0,0,0,1.66-.45,145.26,145.26,0,0,1,37.09-15.22A3.26,3.26,0,0,0,1985.65,2951.56Zm159.88,8.57a377.83,377.83,0,0,0-40-10.8,3.24,3.24,0,1,0-1.34,6.34,367.66,367.66,0,0,1,39.33,10.63,3.36,3.36,0,0,0,1,.15,3.25,3.25,0,0,0,3.09-2.23A3.21,3.21,0,0,0,2145.53,2960.13Zm-81.1-16.91a282.92,282.92,0,0,0-41.56-.5,3.23,3.23,0,0,0-3,3.45,3.27,3.27,0,0,0,3.44,3,274.18,274.18,0,0,1,40.61.5,1.37,1.37,0,0,0,.28,0,3.26,3.26,0,0,0,.26-6.5Z"/><path class="cls-18" d="M1940.13,3306.26c-26.87-10.15-49.53-9.39-67.37,2.25-15,9.77-24.27,25.59-30.07,40.92h4.76c5.59-14.18,14.25-28.53,27.67-37.3,16.62-10.82,38-11.45,63.49-1.8,41.68,15.74,80.34,29.12,117.36,39.1h17.42C2031.57,3339.21,1987.84,3324.3,1940.13,3306.26Z"/><g class="cls-19"><path class="cls-9" d="M2698.64,3349.43H1551.13c-4.29,1.21-8.66,2.38-13.05,3.49a3.74,3.74,0,0,1-.8.08,3.23,3.23,0,0,1-3.14-2.44,2.89,2.89,0,0,1-.09-1.13h-279.5a3.09,3.09,0,0,1,.43,2.49,3.24,3.24,0,0,1-3.16,2.49,2.75,2.75,0,0,1-.75-.09c-6.37-1.51-12.65-3.16-18.77-4.89H567.61a3.24,3.24,0,0,1-2.6,1.88,252.09,252.09,0,0,1-28,1.63c-4.67,0-9.26-.15-13.66-.46a3.23,3.23,0,0,1-3-3.05H119.3a1570.78,1570.78,0,0,1,528.43-482.15c-17.23,13.92-33.14,27.78-47.48,41.57-48,46.08-78.45,91-82.24,132.72-.15,1.8-.26,3.57-.32,5.35-1.28,35.83,17.62,69.14,62.52,98.65C623.5,3174,691,3198.93,787.86,3219.09q17.63,3.66,36.56,7.14c2.77.48,5.57,1,8.38,1.49q13.91,2.47,28.49,4.81c36.63,5.89,76.57,11.65,119.11,17.08l4.61.58q15.94,2,32.32,4l5,.58q36.36,4.32,74.75,8.27l7.77.78q36,3.64,73.39,6.89c128.16,11.1,266.88,18.33,402.39,18.5,58.3.09,116-1.14,172-3.94,1.64-.06,3.29-.15,4.93-.23,72.27-3.71,141.65-10,205.77-19.49l10.69-1.62c31.85-4.91,62.33-10.65,91.17-17.23,3.5-.8,7-1.63,10.45-2.45a815.45,815.45,0,0,0,87-25.59h0c59.1-21.32,106.33-48.23,137.53-81.7a163.66,163.66,0,0,0,26.75-37.84c1.17-2.27,2.28-4.59,3.29-6.93a142.32,142.32,0,0,0,12-60c0-1.93-.07-3.9-.17-5.87a186.11,186.11,0,0,0-5.74-37.15q-2.34-9.32-5.69-19A1571.56,1571.56,0,0,1,2698.64,3349.43Z"/></g><polygon class="cls-20" points="1680.89 2180.3 1680.89 2393.63 1891.52 2461.14 2031.94 2285.62 1948.23 2091.19 1831.29 2099.79 1680.89 2180.3"/><path class="cls-21" d="M1680.89,2393.63l80.65-67.2a91.13,91.13,0,0,1,104.1-8.8h0a44.52,44.52,0,0,0,52.74-6l11.5-10.73a91.12,91.12,0,0,1,101.36-15.65l.7.33-140.42,175.52Z"/><ellipse class="cls-16" cx="1733.55" cy="2259.97" rx="33.75" ry="47.26"/><circle class="cls-13" cx="1894.22" cy="2242.41" r="33.75" transform="translate(-1030.82 1996.2) rotate(-45)"/><circle class="cls-16" cx="1883.42" cy="2137.1" r="22.95"/><circle class="cls-16" cx="1817.26" cy="2359.88" r="25.65" transform="translate(-1109.16 1805.35) rotate(-41.67)"/><polygon class="cls-22" points="286.39 1633.18 188.83 1710.3 234.1 1831.03 365.14 1831.79 423.79 1723.22 377.58 1672.85 286.39 1633.18"/><path class="cls-21" d="M188.83,1710.3l59.89,12.59a53.12,53.12,0,0,1,41.66,44.42h0a26,26,0,0,0,21.79,22l9.06,1.38A53.13,53.13,0,0,1,365,1831.35l.1.44-131-.76Z"/><ellipse class="cls-16" cx="268.99" cy="1686.06" rx="27.55" ry="19.68" transform="translate(-987.64 530.19) rotate(-38.33)"/><circle class="cls-13" cx="335.11" cy="1753.19" r="19.68" transform="translate(-1245.22 923.4) rotate(-51.48)"/><circle class="cls-16" cx="379.37" cy="1710.18" r="13.38" transform="translate(-1122.28 808.13) rotate(-46.5)"/><circle class="cls-16" cx="253.57" cy="1760.46" r="14.95" transform="translate(-1412.23 1137.03) rotate(-61.29)"/><path class="cls-10" d="M254.82,1446.64a135.48,135.48,0,0,0-83.59,96.47,135.45,135.45,0,0,0-83.85-97.74,135.51,135.51,0,0,0,83.56-96.44A135.56,135.56,0,0,0,254.82,1446.64Z"/><path class="cls-10" d="M503.08,1841.17a79.62,79.62,0,0,0,1.74,75,79.62,79.62,0,0,0-75.1-9.4,79.64,79.64,0,0,0-1.74-75A79.67,79.67,0,0,0,503.08,1841.17Z"/><path class="cls-10" d="M2271.89,2567.23a105.69,105.69,0,0,0-65.2,75.24,105.67,105.67,0,0,0-65.4-76.24,105.68,105.68,0,0,0,65.18-75.21A105.73,105.73,0,0,0,2271.89,2567.23Z"/><path class="cls-6" d="M1224.73,716.78a80.73,80.73,0,0,0-24,72.19,80.71,80.71,0,0,0-68.48-34.64,80.74,80.74,0,0,0,24-72.17A80.77,80.77,0,0,0,1224.73,716.78Z"/><path class="cls-10" d="M217.32,2698.43a80.73,80.73,0,0,0-24,72.19A80.71,80.71,0,0,0,124.87,2736a80.76,80.76,0,0,0,24-72.17A80.8,80.8,0,0,0,217.32,2698.43Z"/><path class="cls-10" d="M915.41,2454.72a80.72,80.72,0,0,0-70.66,28.17,80.72,80.72,0,0,0-17.62-74.7A80.75,80.75,0,0,0,897.77,2380,80.77,80.77,0,0,0,915.41,2454.72Z"/><path class="cls-10" d="M1471,1790.94a80.74,80.74,0,0,0-27.29,71,80.71,80.71,0,0,0-66.8-37.76,80.79,80.79,0,0,0,27.27-71A80.77,80.77,0,0,0,1471,1790.94Z"/><path class="cls-23" d="M462,664.41A141.52,141.52,0,0,0,278.05,521.35a139.61,139.61,0,0,0-39.6,19.79c-2.86,2.05-5.66,4.21-8.37,6.51s-5.2,4.51-7.7,6.92a140.7,140.7,0,0,0-19.85,23.94q-1.56,2.36-3,4.76c-1,1.62-1.93,3.26-2.84,4.92-2,3.68-3.85,7.42-5.52,11.24-.8,1.85-1.58,3.71-2.29,5.6s-1.47,3.88-2.12,5.85A141.57,141.57,0,0,0,219,754.62,144.1,144.1,0,0,0,239.24,772a142.09,142.09,0,0,0,122.65,19.7q3-.9,5.93-1.95c1.92-.66,3.8-1.38,5.67-2.13q5.79-2.33,11.37-5.16c1.69-.87,3.37-1.76,5-2.71h0c1.64-.91,3.24-1.84,4.84-2.83A142.61,142.61,0,0,0,419.06,758c2.79-2.69,5.46-5.49,8-8.39,2.37-2.69,4.64-5.45,6.76-8.3A140.91,140.91,0,0,0,462,664.41Z"/><g class="cls-24"><path class="cls-25" d="M415.46,754.24a136.29,136.29,0,1,1-135.85-228c-28.76,26.78-52.84,72.28-15,141.36,45.37,82.9,139.22,53.84,192.2-3.55A135.82,135.82,0,0,1,415.46,754.24Z"/></g><path class="cls-16" d="M330.75,577.42a39.62,39.62,0,0,1-9.89,6.64,53.85,53.85,0,0,1-27.34,5.05c-11.59-1-20.51-6.28-22.09-14.09a12.57,12.57,0,0,1,.14-5.59h0c2.2-9.14,13.71-17.87,28.8-20.92,8.91-1.81,17.72-1.35,24.78,1.25a26.33,26.33,0,0,1,6,3.08,14.47,14.47,0,0,1,6.21,8.85C338.39,566.86,336.05,572.44,330.75,577.42Z"/><ellipse class="cls-26" cx="301.17" cy="567.52" rx="22.82" ry="14.12" transform="translate(-106.52 70.96) rotate(-11.43)"/><path class="cls-16" d="M418.78,721.6a27.18,27.18,0,0,1-9.06,5.21,18.91,18.91,0,0,1-10.18.6c-6.76-1.5-12.29-6.79-15.58-14.88,0,0,0,0,0,0a45.68,45.68,0,0,1-2.91-20,55.35,55.35,0,0,1,1.25-8.72c.31-1.43.68-2.84,1.1-4.2A47.37,47.37,0,0,1,396,658.42c6.43-6,13.68-8.41,20.45-6.9a18.56,18.56,0,0,1,6.7,3A26.25,26.25,0,0,1,432,666.45a45.09,45.09,0,0,1,3,17.76h0a55.92,55.92,0,0,1-1.34,11C431.2,706.45,425.62,715.83,418.78,721.6Z"/><path class="cls-16" d="M225.12,746.76c-5.87-3.21-11-8.85-14.52-15.84a42.61,42.61,0,0,1-3.16-8.59c-2.79-11.46.14-22.21,7.93-26.08,4.62-2.3,10.31-1.85,16,1.27a27.89,27.89,0,0,1,2.8,1.77,37.69,37.69,0,0,1,11.7,14.06c3.48,7,4.87,14.51,3.89,21.15a20.75,20.75,0,0,1-3.38,9,14.14,14.14,0,0,1-5.26,4.57c-4.25,2.11-9.39,1.9-14.64-.56C226,747.25,225.58,747,225.12,746.76Z"/><ellipse class="cls-26" cx="227.28" cy="722.62" rx="12.49" ry="17.93" transform="translate(-298.17 176.96) rotate(-26.46)"/><ellipse class="cls-26" cx="411.24" cy="688.71" rx="31.51" ry="21.73" transform="translate(-350.46 940.21) rotate(-77.43)"/><path class="cls-16" d="M337,667.44a7.07,7.07,0,1,1,3.17-9.47A7.07,7.07,0,0,1,337,667.44Z"/><path class="cls-10" d="M183.36,622.73S78.48,620.56,62.18,655.79c-20.74,44.85,231.16,106.29,437.21,43.26,147.57-45.15-.52-76.56-41.15-75.8l3.93,15s66,8.89,79.51,16.71c37.16,21.52-306.24,101.31-457.28,12.26C50.55,647.3,178.06,640,178.06,640Z"/></g></g></svg>