<svg xmlns="http://www.w3.org/2000/svg" viewBox="0 0 546.9 543.48"><defs><style>.cls-1{isolation:isolate;}.cls-2{fill:#365e73;}.cls-3,.cls-9{fill:#fff;}.cls-4{fill:#81ccf3;}.cls-5{mix-blend-mode:multiply;}.cls-6{fill:#d8d8d8;}.cls-7{fill:#065a93;}.cls-8{fill:#15638e;}.cls-9{stroke:#383a1a;stroke-miterlimit:10;stroke-width:0.59px;}.cls-10{fill:#18203a;}</style></defs><g class="cls-1"><g id="Layer_1" data-name="Layer 1"><path class="cls-2" d="M546.9,273.45c0,151-79.2,270-230.22,270S0,424.47,0,273.45,64.61,0,215.63,0,546.9,122.43,546.9,273.45Z"/><path class="cls-3" d="M471.47,246.38C315.93,274.5,142.92,376.08,141.19,377.11l-5.27-8.92c1.74-1,176.36-103.55,333.71-132Z"/><path class="cls-4" d="M370.13,189.22a141.66,141.66,0,0,0-202.6,115.55,139.94,139.94,0,0,0,3.19,44.2q1.2,5.14,2.83,10.24c1,3.27,2.19,6.53,3.46,9.76a140.87,140.87,0,0,0,14.58,27.51c1,1.56,2.14,3.09,3.25,4.6s2.29,3,3.48,4.5q3.94,4.91,8.29,9.4c1.41,1.45,2.83,2.88,4.3,4.26s3,2.84,4.61,4.19a141.74,141.74,0,0,0,234.18-93c.2-2.07.36-4.15.46-6.23s.17-4,.19-6.07q.07-6.24-.44-12.48c-.15-1.9-.33-3.8-.58-5.69h0c-.21-1.86-.46-3.7-.76-5.56a143.08,143.08,0,0,0-8.23-29.73q-2.15-5.43-4.72-10.6c-1.58-3.22-3.28-6.37-5.1-9.42A141,141,0,0,0,370.13,189.22Z"/><g class="cls-5"><path class="cls-6" d="M435.51,266.54A136.44,136.44,0,1,1,172.7,305.22c13.8,36.84,46.71,76.49,125.07,67.87,94-10.33,103-108.27,70.11-179.21A136,136,0,0,1,435.51,266.54Z"/></g><path class="cls-7" d="M529.93,250.56c9.6,24.23-78.69,81.95-197.22,128.91s-222.38,65.4-232,41.16c-4.19-10.58,10.27-27.54,37.75-47.2-14.09,11.46-21,21-18.49,27.27,7.58,19.12,99.29.72,204.86-41.11s185-91.24,177.41-110.36c-2.49-6.27-14-8.51-32.15-7.2C503.58,237.52,525.74,240,529.93,250.56Z"/><path class="cls-3" d="M469.74,236.85l-.34,0a5.18,5.18,0,0,0,1.07,10.3c19.5-1.41,26.13,1.82,27,3.94,1.42,3.57-6,16.55-44.2,40.37-1.53,1-3.1,1.91-4.67,2.87s-3.2,1.92-4.84,2.88h0c-1.58.93-3.16,1.86-4.8,2.79a802.54,802.54,0,0,1-73.09,36.69c-13.78,6.14-28.15,12.19-42.89,18-17.9,7.1-35.6,13.6-52.7,19.37h0c-24.15,8.18-47.12,14.91-67.73,19.84-1.84.45-3.66.86-5.45,1.27s-3.66.83-5.44,1.22c-2.36.51-4.68,1-7,1.45-44.1,8.84-58.42,4.44-59.84.87-.85-2.13,1.77-9,16.94-21.36a5.14,5.14,0,0,0,.85-7.15,5.17,5.17,0,0,0-6.33-1.55,5.08,5.08,0,0,0-.81.48c-31.36,22.43-44.68,40.38-39.54,53.32,5.81,14.67,33,17.8,80.88,9.31,12.08-2.14,25.07-5,38.73-8.42,2-.5,4-1,6.09-1.56h0c2.08-.54,4.15-1.08,6.25-1.66a1011.81,1011.81,0,0,0,106.76-35.92A1005.64,1005.64,0,0,0,438.5,336.55c1.88-1,3.76-2,5.6-3s3.75-2.07,5.6-3.1c9.45-5.29,18.34-10.56,26.59-15.78,2-1.27,4-2.53,5.91-3.81q30.51-19.94,43.7-35.56c8.79-10.38,11.76-19.28,8.84-26.61C529.63,235.75,507.77,231.77,469.74,236.85Z"/><path class="cls-8" d="M239.54,277.42a39.79,39.79,0,0,1,2.37,11.68,54,54,0,0,1-5.77,27.23c-5.37,10.34-13.64,16.58-21.48,15.06a12.56,12.56,0,0,1-5.11-2.26v0c-7.62-5.52-11.3-19.51-8.36-34.63,1.73-8.94,5.51-16.92,10.62-22.46a26.14,26.14,0,0,1,5.13-4.34,14.43,14.43,0,0,1,10.56-2.37C232.68,266.31,237,270.61,239.54,277.42Z"/><ellipse class="cls-9" cx="219.09" cy="301" rx="22.84" ry="14.14" transform="translate(-118.16 458.69) rotate(-79.01)"/><path class="cls-8" d="M406.57,251a27.15,27.15,0,0,1,1.36,10.38A18.89,18.89,0,0,1,404.6,271c-4,5.68-11,8.78-19.72,8.74h-.05a46,46,0,0,1-19.64-4.95,58,58,0,0,1-7.6-4.49c-1.19-.84-2.36-1.71-3.46-2.63A47.48,47.48,0,0,1,339.41,248c-3.06-8.22-2.56-15.87,1.42-21.56a18.61,18.61,0,0,1,5.33-5.05,26.36,26.36,0,0,1,14.44-3.67,45.17,45.17,0,0,1,17.59,4h0a56.22,56.22,0,0,1,9.65,5.44C397.3,233.73,403.84,242.47,406.57,251Z"/><path class="cls-8" d="M355.91,439.82c-5.22,4.21-12.4,6.83-20.21,7.39a41.82,41.82,0,0,1-9.15-.36c-11.67-1.79-20.5-8.61-21.1-17.29-.37-5.16,2.22-10.25,7.28-14.34a29.89,29.89,0,0,1,2.71-1.92,37.8,37.8,0,0,1,17.49-5.46c7.81-.54,15.28,1,21.05,4.48a20.62,20.62,0,0,1,7,6.55,14.07,14.07,0,0,1,2.22,6.62c.34,4.74-1.82,9.41-6.1,13.32C356.71,439.16,356.32,439.5,355.91,439.82Z"/><path class="cls-9" d="M352.3,427.34c.48,6.89-7.14,13.05-17,13.74s-18.3-4.32-18.78-11.21,7.13-13,17-13.74S351.81,420.45,352.3,427.34Z"/><ellipse class="cls-9" cx="373.26" cy="245.42" rx="21.75" ry="31.54" transform="translate(-41.85 410.46) rotate(-55.01)"/><path class="cls-10" d="M325.2,306.05a7.07,7.07,0,1,1-7.55-6.55A7.06,7.06,0,0,1,325.2,306.05Z"/></g></g></svg>