<svg xmlns="http://www.w3.org/2000/svg" viewBox="0 0 787.27 735.35"><defs><style>.cls-1{isolation:isolate;}.cls-2{fill:#def1f9;}.cls-2,.cls-4{mix-blend-mode:multiply;}.cls-3{fill:#83c6ee;}.cls-5{fill:#d8d8d8;}.cls-6{fill:#2d5162;}.cls-7{fill:#fff;}</style></defs><g class="cls-1"><g id="Layer_1" data-name="Layer 1"><path class="cls-2" d="M617,726.34C203.39,807.31-138.12,323,175.52,55.25,501.87-223.39,1068.34,638,617,726.34Z"/><path class="cls-3" d="M624.87,580.07A241.54,241.54,0,0,0,636,387C604.09,300.82,527.41,241.1,436,231.2A238.3,238.3,0,0,0,360.67,235c-5.86,1.24-11.71,2.7-17.51,4.43-5.61,1.62-11.18,3.48-16.74,5.52a240,240,0,0,0-47.32,23.76c-2.69,1.73-5.34,3.53-7.94,5.36s-5.25,3.78-7.79,5.75c-5.67,4.35-11.08,8.93-16.29,13.74-2.52,2.34-5,4.71-7.41,7.16s-4.94,5.06-7.3,7.68c-58.77,64.54-80.43,158.9-48,246.2A242.52,242.52,0,0,0,204,595.46,242,242,0,0,0,381.79,710.09c3.51.41,7,.76,10.56,1s6.88.45,10.32.55q10.62.36,21.25-.28c3.23-.18,6.47-.42,9.69-.78h0c3.17-.29,6.31-.65,9.48-1.09A243.78,243.78,0,0,0,494,696.61q9.3-3.43,18.2-7.63c5.53-2.57,10.95-5.33,16.2-8.32A239.81,239.81,0,0,0,624.87,580.07Z"/><g class="cls-4"><path class="cls-5" d="M490.92,688.35c-120.17,44.59-253.72-16.7-298.3-136.85s16.69-253.72,136.87-298.31A231.26,231.26,0,0,1,435,240c-63.16,22.09-131.83,76.58-120.11,210.16C328.94,610.42,495.17,629.31,617,576.06A231.28,231.28,0,0,1,490.92,688.35Z"/></g><path class="cls-6" d="M479.78,354.69a67.52,67.52,0,0,1-20,3.58,91.62,91.62,0,0,1-46.09-10.83c-17.38-9.51-27.69-23.81-24.81-37.09a21.4,21.4,0,0,1,4-8.6h0c9.68-12.76,33.61-18.49,59.22-12.93,15.14,3.28,28.55,10,37.79,18.91a44.43,44.43,0,0,1,7.19,8.88c3.62,6,4.91,12.2,3.64,18C498.91,343.44,491.44,350.55,479.78,354.69Z"/><ellipse class="cls-7" cx="440.43" cy="319.02" rx="24.05" ry="38.85" transform="translate(35.21 681.72) rotate(-77.75)"/><path class="cls-6" d="M518.43,639.72a46.34,46.34,0,0,1-17.69,1.93,32.39,32.39,0,0,1-16.29-6c-9.51-7-14.52-19-14.12-33.86,0,0,0-.06,0-.09.32-10.89,3.52-22.33,9.16-33.21a96.43,96.43,0,0,1,7.92-12.76c1.46-2,3-3.94,4.59-5.78,9.8-11.49,21.71-20,34.13-24.31,14.09-4.89,27.08-3.75,36.61,3.23a31.82,31.82,0,0,1,8.39,9.26c4,6.64,6,15.08,5.69,24.68a76.8,76.8,0,0,1-7.44,29.77h0a94.45,94.45,0,0,1-9.6,16.21C548.16,624.59,533,635.39,518.43,639.72Z"/><path class="cls-6" d="M199.24,546.49c-7-9-11.15-21.34-11.8-34.64a71.37,71.37,0,0,1,.95-15.55c3.49-19.78,15.4-34.53,30.19-35.23,8.79-.44,17.34,4.16,24.11,12.92a53.82,53.82,0,0,1,3.17,4.67,64.32,64.32,0,0,1,8.62,29.95c.63,13.3-2.33,25.95-8.4,35.63a35.05,35.05,0,0,1-11.4,11.65,24.08,24.08,0,0,1-11.33,3.53c-8.08.39-15.94-3.45-22.44-10.88C200.34,547.89,199.78,547.2,199.24,546.49Z"/><ellipse class="cls-7" cx="219.12" cy="510.33" rx="21.27" ry="30.52" transform="translate(-24.45 11.21) rotate(-2.77)"/><ellipse class="cls-7" cx="529.18" cy="583.27" rx="53.65" ry="37" transform="translate(-254.12 665.07) rotate(-53.75)"/><circle class="cls-6" cx="427.29" cy="487.27" r="12.02" transform="translate(-220.7 476.21) rotate(-47.77)"/><path class="cls-6" d="M219,324.51S56.9,249.39,7.38,293.19c-63,55.74,287.75,323.84,652.17,366.49,261,30.55,51.55-119.73-12.32-146.33l-4.16,26.14s96.86,59,112.56,80.44c43.22,59-546.83-51.49-721.44-293.66C-4.95,272,198.9,347.77,198.9,347.77Z"/></g></g></svg>